<ttFont>
    <TTGlyph name="ampersand" xMin="65" yMin="-16" xMax="1466" yMax="1497">
      <contour>
        <pt x="678" y="1497" on="1"/>
        <pt x="768" y="1497" on="0"/>
        <pt x="911" y="1442" on="0"/>
        <pt x="1012" y="1350" on="0"/>
        <pt x="1071" y="1231" on="0"/>
        <pt x="1076" y="1167" on="1"/>
        <pt x="915" y="1134" on="1"/>
        <pt x="912" y="1133" on="0"/>
        <pt x="905" y="1133" on="0"/>
        <pt x="902" y="1133" on="1"/>
        <pt x="884" y="1133" on="0"/>
        <pt x="857" y="1152" on="0"/>
        <pt x="848" y="1172" on="1"/>
        <pt x="839" y="1199" on="0"/>
        <pt x="810" y="1247" on="0"/>
        <pt x="770" y="1283" on="0"/>
        <pt x="714" y="1305" on="0"/>
        <pt x="678" y="1305" on="1"/>
        <pt x="635" y="1305" on="0"/>
        <pt x="568" y="1275" on="0"/>
        <pt x="521" y="1225" on="0"/>
        <pt x="496" y="1158" on="0"/>
        <pt x="496" y="1121" on="1"/>
        <pt x="496" y="1091" on="0"/>
        <pt x="509" y="1033" on="0"/>
        <pt x="538" y="976" on="0"/>
        <pt x="584" y="915" on="0"/>
        <pt x="618" y="881" on="1"/>
        <pt x="1011" y="472" on="1"/>
        <pt x="1045" y="537" on="0"/>
        <pt x="1086" y="680" on="0"/>
        <pt x="1092" y="754" on="1"/>
        <pt x="1094" y="777" on="0"/>
        <pt x="1121" y="806" on="0"/>
        <pt x="1144" y="806" on="1"/>
        <pt x="1303" y="806" on="1"/>
        <pt x="1302" y="671" on="0"/>
        <pt x="1226" y="425" on="0"/>
        <pt x="1156" y="322" on="1"/>
        <pt x="1466" y="0" on="1"/>
        <pt x="1218" y="0" on="1"/>
        <pt x="1199" y="0" on="0"/>
        <pt x="1169" y="4" on="0"/>
        <pt x="1142" y="15" on="0"/>
        <pt x="1118" y="34" on="0"/>
        <pt x="1104" y="48" on="1"/>
        <pt x="1002" y="154" on="1"/>
        <pt x="904" y="74" on="0"/>
        <pt x="663" y="-16" on="0"/>
        <pt x="523" y="-16" on="1"/>
        <pt x="437" y="-16" on="0"/>
        <pt x="273" y="42" on="0"/>
        <pt x="144" y="153" on="0"/>
        <pt x="65" y="309" on="0"/>
        <pt x="65" y="408" on="1"/>
        <pt x="65" y="476" on="0"/>
        <pt x="110" y="600" on="0"/>
        <pt x="190" y="707" on="0"/>
        <pt x="299" y="793" on="0"/>
        <pt x="365" y="823" on="1"/>
        <pt x="311" y="900" on="0"/>
        <pt x="261" y="1047" on="0"/>
        <pt x="261" y="1119" on="1"/>
        <pt x="261" y="1196" on="0"/>
        <pt x="317" y="1334" on="0"/>
        <pt x="424" y="1437" on="0"/>
        <pt x="580" y="1497" on="0"/>
      </contour>
      <contour>
        <pt x="322" y="428" on="1"/>
        <pt x="322" y="372" on="0"/>
        <pt x="361" y="282" on="0"/>
        <pt x="429" y="219" on="0"/>
        <pt x="518" y="185" on="0"/>
        <pt x="568" y="185" on="1"/>
        <pt x="658" y="185" on="0"/>
        <pt x="806" y="242" on="0"/>
        <pt x="868" y="292" on="1"/>
        <pt x="479" y="691" on="1"/>
        <pt x="397" y="638" on="0"/>
        <pt x="322" y="505" on="0"/>
      </contour>
    </TTGlyph>
    <TTGlyph name="asciitilde" xMin="100" yMin="408" xMax="1087" yMax="804">
      <contour>
        <pt x="763" y="664" on="1"/>
        <pt x="820" y="664" on="0"/>
        <pt x="883" y="737" on="0"/>
        <pt x="883" y="804" on="1"/>
        <pt x="1087" y="804" on="1"/>
        <pt x="1087" y="725" on="0"/>
        <pt x="1045" y="597" on="0"/>
        <pt x="966" y="506" on="0"/>
        <pt x="852" y="457" on="0"/>
        <pt x="778" y="457" on="1"/>
        <pt x="724" y="457" on="0"/>
        <pt x="624" y="485" on="0"/>
        <pt x="535" y="519" on="0"/>
        <pt x="457" y="548" on="0"/>
        <pt x="425" y="548" on="1"/>
        <pt x="367" y="548" on="0"/>
        <pt x="304" y="474" on="0"/>
        <pt x="304" y="408" on="1"/>
        <pt x="100" y="408" on="1"/>
        <pt x="100" y="486" on="0"/>
        <pt x="142" y="614" on="0"/>
        <pt x="221" y="706" on="0"/>
        <pt x="336" y="755" on="0"/>
        <pt x="409" y="755" on="1"/>
        <pt x="464" y="755" on="0"/>
        <pt x="563" y="726" on="0"/>
        <pt x="652" y="692" on="0"/>
        <pt x="730" y="664" on="0"/>
      </contour>
    </TTGlyph>
    <TTGlyph name="asterisk" xMin="77" yMin="857" xMax="739" yMax="1552">
      <contour>
        <pt x="347" y="857" on="1"/>
        <pt x="347" y="1044" on="1"/>
        <pt x="347" y="1065" on="0"/>
        <pt x="352" y="1104" on="0"/>
        <pt x="359" y="1121" on="1"/>
        <pt x="347" y="1107" on="0"/>
        <pt x="317" y="1084" on="0"/>
        <pt x="299" y="1073" on="1"/>
        <pt x="137" y="979" on="1"/>
        <pt x="77" y="1081" on="1"/>
        <pt x="240" y="1176" on="1"/>
        <pt x="258" y="1187" on="0"/>
        <pt x="294" y="1201" on="0"/>
        <pt x="314" y="1204" on="1"/>
        <pt x="294" y="1206" on="0"/>
        <pt x="258" y="1223" on="0"/>
        <pt x="240" y="1234" on="1"/>
        <pt x="77" y="1329" on="1"/>
        <pt x="136" y="1432" on="1"/>
        <pt x="299" y="1335" on="1"/>
        <pt x="317" y="1324" on="0"/>
        <pt x="348" y="1300" on="0"/>
        <pt x="360" y="1286" on="1"/>
        <pt x="352" y="1304" on="0"/>
        <pt x="347" y="1342" on="0"/>
        <pt x="347" y="1363" on="1"/>
        <pt x="347" y="1552" on="1"/>
        <pt x="468" y="1552" on="1"/>
        <pt x="468" y="1365" on="1"/>
        <pt x="468" y="1343" on="0"/>
        <pt x="463" y="1304" on="0"/>
        <pt x="456" y="1286" on="1"/>
        <pt x="467" y="1300" on="0"/>
        <pt x="498" y="1324" on="0"/>
        <pt x="516" y="1335" on="1"/>
        <pt x="678" y="1430" on="1"/>
        <pt x="739" y="1327" on="1"/>
        <pt x="576" y="1234" on="1"/>
        <pt x="557" y="1223" on="0"/>
        <pt x="521" y="1207" on="0"/>
        <pt x="502" y="1204" on="1"/>
        <pt x="537" y="1198" on="0"/>
        <pt x="576" y="1176" on="1"/>
        <pt x="739" y="1080" on="1"/>
        <pt x="679" y="978" on="1"/>
        <pt x="516" y="1073" on="1"/>
        <pt x="498" y="1084" on="0"/>
        <pt x="467" y="1107" on="0"/>
        <pt x="455" y="1121" on="1"/>
        <pt x="468" y="1089" on="0"/>
        <pt x="468" y="1046" on="1"/>
        <pt x="468" y="857" on="1"/>
      </contour>
    </TTGlyph>
    <TTGlyph name="at" xMin="68" yMin="-247" xMax="1622" yMax="1415">
      <contour>
        <pt x="1193" y="188" on="1"/>
        <pt x="1124" y="188" on="0"/>
        <pt x="1014" y="254" on="0"/>
        <pt x="993" y="327" on="1"/>
        <pt x="932" y="253" on="0"/>
        <pt x="797" y="189" on="0"/>
        <pt x="719" y="189" on="1"/>
        <pt x="655" y="189" on="0"/>
        <pt x="560" y="234" on="0"/>
        <pt x="495" y="313" on="0"/>
        <pt x="463" y="421" on="0"/>
        <pt x="463" y="484" on="1"/>
        <pt x="463" y="543" on="0"/>
        <pt x="493" y="663" on="0"/>
        <pt x="552" y="774" on="0"/>
        <pt x="641" y="871" on="0"/>
        <pt x="762" y="944" on="0"/>
        <pt x="912" y="986" on="0"/>
        <pt x="1003" y="986" on="1"/>
        <pt x="1082" y="986" on="0"/>
        <pt x="1194" y="962" on="0"/>
        <pt x="1247" y="939" on="1"/>
        <pt x="1148" y="559" on="1"/>
        <pt x="1132" y="494" on="0"/>
        <pt x="1132" y="450" on="1"/>
        <pt x="1132" y="419" on="0"/>
        <pt x="1147" y="378" on="0"/>
        <pt x="1173" y="353" on="0"/>
        <pt x="1210" y="344" on="0"/>
        <pt x="1231" y="344" on="1"/>
        <pt x="1274" y="344" on="0"/>
        <pt x="1351" y="398" on="0"/>
        <pt x="1408" y="497" on="0"/>
        <pt x="1442" y="632" on="0"/>
        <pt x="1442" y="712" on="1"/>
        <pt x="1442" y="845" on="0"/>
        <pt x="1359" y="1048" on="0"/>
        <pt x="1211" y="1184" on="0"/>
        <pt x="1004" y="1252" on="0"/>
        <pt x="881" y="1252" on="1"/>
        <pt x="747" y="1252" on="0"/>
        <pt x="517" y="1151" on="0"/>
        <pt x="348" y="975" on="0"/>
        <pt x="252" y="735" on="0"/>
        <pt x="252" y="597" on="1"/>
        <pt x="252" y="429" on="0"/>
        <pt x="357" y="174" on="0"/>
        <pt x="539" y="3" on="0"/>
        <pt x="786" y="-83" on="0"/>
        <pt x="929" y="-83" on="1"/>
        <pt x="1008" y="-83" on="0"/>
        <pt x="1145" y="-66" on="0"/>
        <pt x="1260" y="-36" on="0"/>
        <pt x="1354" y="2" on="0"/>
        <pt x="1391" y="24" on="1"/>
        <pt x="1411" y="35" on="0"/>
        <pt x="1426" y="35" on="1"/>
        <pt x="1456" y="35" on="0"/>
        <pt x="1468" y="2" on="1"/>
        <pt x="1503" y="-89" on="1"/>
        <pt x="1396" y="-159" on="0"/>
        <pt x="1111" y="-247" on="0"/>
        <pt x="929" y="-247" on="1"/>
        <pt x="744" y="-247" on="0"/>
        <pt x="428" y="-130" on="0"/>
        <pt x="198" y="88" on="0"/>
        <pt x="68" y="401" on="0"/>
        <pt x="68" y="597" on="1"/>
        <pt x="68" y="707" on="0"/>
        <pt x="124" y="913" on="0"/>
        <pt x="229" y="1095" on="0"/>
        <pt x="376" y="1246" on="0"/>
        <pt x="556" y="1355" on="0"/>
        <pt x="766" y="1415" on="0"/>
        <pt x="881" y="1415" on="1"/>
        <pt x="1026" y="1415" on="0"/>
        <pt x="1294" y="1318" on="0"/>
        <pt x="1500" y="1137" on="0"/>
        <pt x="1622" y="876" on="0"/>
        <pt x="1622" y="712" on="1"/>
        <pt x="1622" y="602" on="0"/>
        <pt x="1558" y="411" on="0"/>
        <pt x="1442" y="269" on="0"/>
        <pt x="1286" y="188" on="0"/>
      </contour>
      <contour>
        <pt x="769" y="352" on="1"/>
        <pt x="796" y="352" on="0"/>
        <pt x="850" y="369" on="0"/>
        <pt x="899" y="411" on="0"/>
        <pt x="940" y="480" on="0"/>
        <pt x="954" y="532" on="1"/>
        <pt x="1029" y="821" on="1"/>
        <pt x="996" y="827" on="0"/>
        <pt x="961" y="827" on="1"/>
        <pt x="897" y="827" on="0"/>
        <pt x="787" y="772" on="0"/>
        <pt x="706" y="678" on="0"/>
        <pt x="659" y="556" on="0"/>
        <pt x="659" y="490" on="1"/>
        <pt x="659" y="425" on="0"/>
        <pt x="715" y="352" on="0"/>
      </contour>
    </TTGlyph>
    <TTGlyph name="bar" xMin="208" yMin="-343" xMax="405" yMax="1584">
      <contour>
        <pt x="208" y="1584" on="1"/>
        <pt x="405" y="1584" on="1"/>
        <pt x="405" y="-343" on="1"/>
        <pt x="208" y="-343" on="1"/>
      </contour>
    </TTGlyph>
    <TTGlyph name="braceleft" xMin="29" yMin="-315" xMax="539" yMax="1584">
      <contour>
        <pt x="152" y="420" on="1"/>
        <pt x="152" y="482" on="0"/>
        <pt x="94" y="561" on="0"/>
        <pt x="29" y="561" on="1"/>
        <pt x="29" y="708" on="1"/>
        <pt x="94" y="708" on="0"/>
        <pt x="152" y="786" on="0"/>
        <pt x="152" y="849" on="1"/>
        <pt x="152" y="897" on="0"/>
        <pt x="139" y="992" on="0"/>
        <pt x="121" y="1089" on="0"/>
        <pt x="108" y="1186" on="0"/>
        <pt x="108" y="1236" on="1"/>
        <pt x="108" y="1314" on="0"/>
        <pt x="153" y="1442" on="0"/>
        <pt x="246" y="1534" on="0"/>
        <pt x="388" y="1584" on="0"/>
        <pt x="485" y="1584" on="1"/>
        <pt x="539" y="1584" on="1"/>
        <pt x="539" y="1471" on="1"/>
        <pt x="539" y="1458" on="0"/>
        <pt x="528" y="1439" on="0"/>
        <pt x="510" y="1426" on="0"/>
        <pt x="492" y="1420" on="0"/>
        <pt x="485" y="1420" on="1"/>
        <pt x="475" y="1420" on="1"/>
        <pt x="404" y="1420" on="0"/>
        <pt x="328" y="1330" on="0"/>
        <pt x="328" y="1251" on="1"/>
        <pt x="328" y="1195" on="0"/>
        <pt x="340" y="1092" on="0"/>
        <pt x="354" y="994" on="0"/>
        <pt x="366" y="900" on="0"/>
        <pt x="366" y="852" on="1"/>
        <pt x="366" y="813" on="0"/>
        <pt x="344" y="743" on="0"/>
        <pt x="302" y="687" on="0"/>
        <pt x="244" y="644" on="0"/>
        <pt x="207" y="634" on="1"/>
        <pt x="244" y="623" on="0"/>
        <pt x="302" y="581" on="0"/>
        <pt x="344" y="523" on="0"/>
        <pt x="366" y="454" on="0"/>
        <pt x="366" y="416" on="1"/>
        <pt x="366" y="368" on="0"/>
        <pt x="354" y="273" on="0"/>
        <pt x="340" y="176" on="0"/>
        <pt x="328" y="73" on="0"/>
        <pt x="328" y="16" on="1"/>
        <pt x="328" y="-61" on="0"/>
        <pt x="404" y="-152" on="0"/>
        <pt x="475" y="-152" on="1"/>
        <pt x="485" y="-152" on="1"/>
        <pt x="492" y="-152" on="0"/>
        <pt x="510" y="-158" on="0"/>
        <pt x="528" y="-170" on="0"/>
        <pt x="539" y="-190" on="0"/>
        <pt x="539" y="-204" on="1"/>
        <pt x="539" y="-315" on="1"/>
        <pt x="485" y="-315" on="1"/>
        <pt x="388" y="-315" on="0"/>
        <pt x="246" y="-265" on="0"/>
        <pt x="153" y="-174" on="0"/>
        <pt x="108" y="-46" on="0"/>
        <pt x="108" y="32" on="1"/>
        <pt x="108" y="82" on="0"/>
        <pt x="121" y="179" on="0"/>
        <pt x="139" y="275" on="0"/>
        <pt x="152" y="372" on="0"/>
      </contour>
    </TTGlyph>
    <TTGlyph name="braceright" xMin="74" yMin="-315" xMax="584" yMax="1584">
      <contour>
        <pt x="461" y="420" on="1"/>
        <pt x="461" y="372" on="0"/>
        <pt x="474" y="275" on="0"/>
        <pt x="492" y="179" on="0"/>
        <pt x="505" y="82" on="0"/>
        <pt x="505" y="32" on="1"/>
        <pt x="505" y="-46" on="0"/>
        <pt x="460" y="-174" on="0"/>
        <pt x="367" y="-265" on="0"/>
        <pt x="225" y="-315" on="0"/>
        <pt x="128" y="-315" on="1"/>
        <pt x="74" y="-315" on="1"/>
        <pt x="74" y="-204" on="1"/>
        <pt x="74" y="-190" on="0"/>
        <pt x="85" y="-170" on="0"/>
        <pt x="103" y="-158" on="0"/>
        <pt x="121" y="-152" on="0"/>
        <pt x="128" y="-152" on="1"/>
        <pt x="137" y="-152" on="1"/>
        <pt x="209" y="-152" on="0"/>
        <pt x="285" y="-61" on="0"/>
        <pt x="285" y="16" on="1"/>
        <pt x="285" y="73" on="0"/>
        <pt x="273" y="176" on="0"/>
        <pt x="259" y="273" on="0"/>
        <pt x="247" y="368" on="0"/>
        <pt x="247" y="416" on="1"/>
        <pt x="247" y="454" on="0"/>
        <pt x="269" y="523" on="0"/>
        <pt x="310" y="581" on="0"/>
        <pt x="369" y="623" on="0"/>
        <pt x="406" y="634" on="1"/>
        <pt x="369" y="644" on="0"/>
        <pt x="310" y="687" on="0"/>
        <pt x="269" y="743" on="0"/>
        <pt x="247" y="813" on="0"/>
        <pt x="247" y="852" on="1"/>
        <pt x="247" y="900" on="0"/>
        <pt x="259" y="994" on="0"/>
        <pt x="273" y="1092" on="0"/>
        <pt x="285" y="1195" on="0"/>
        <pt x="285" y="1251" on="1"/>
        <pt x="285" y="1330" on="0"/>
        <pt x="209" y="1420" on="0"/>
        <pt x="137" y="1420" on="1"/>
        <pt x="128" y="1420" on="1"/>
        <pt x="121" y="1420" on="0"/>
        <pt x="103" y="1426" on="0"/>
        <pt x="85" y="1439" on="0"/>
        <pt x="74" y="1458" on="0"/>
        <pt x="74" y="1471" on="1"/>
        <pt x="74" y="1584" on="1"/>
        <pt x="128" y="1584" on="1"/>
        <pt x="225" y="1584" on="0"/>
        <pt x="367" y="1534" on="0"/>
        <pt x="460" y="1442" on="0"/>
        <pt x="505" y="1314" on="0"/>
        <pt x="505" y="1236" on="1"/>
        <pt x="505" y="1186" on="0"/>
        <pt x="492" y="1089" on="0"/>
        <pt x="474" y="992" on="0"/>
        <pt x="461" y="897" on="0"/>
        <pt x="461" y="849" on="1"/>
        <pt x="461" y="786" on="0"/>
        <pt x="519" y="708" on="0"/>
        <pt x="584" y="708" on="1"/>
        <pt x="584" y="561" on="1"/>
        <pt x="519" y="561" on="0"/>
        <pt x="461" y="482" on="0"/>
      </contour>
    </TTGlyph>
    <TTGlyph name="colon" xMin="115" yMin="-14" xMax="425" yMax="1024">
      <contour>
        <pt x="115" y="139" on="1"/>
        <pt x="115" y="171" on="0"/>
        <pt x="139" y="228" on="0"/>
        <pt x="181" y="269" on="0"/>
        <pt x="238" y="294" on="0"/>
        <pt x="271" y="294" on="1"/>
        <pt x="302" y="294" on="0"/>
        <pt x="360" y="269" on="0"/>
        <pt x="401" y="228" on="0"/>
        <pt x="425" y="171" on="0"/>
        <pt x="425" y="139" on="1"/>
        <pt x="425" y="106" on="0"/>
        <pt x="401" y="50" on="0"/>
        <pt x="360" y="9" on="0"/>
        <pt x="302" y="-14" on="0"/>
        <pt x="271" y="-14" on="1"/>
        <pt x="238" y="-14" on="0"/>
        <pt x="181" y="9" on="0"/>
        <pt x="139" y="50" on="0"/>
        <pt x="115" y="106" on="0"/>
      </contour>
      <contour>
        <pt x="115" y="869" on="1"/>
        <pt x="115" y="901" on="0"/>
        <pt x="139" y="958" on="0"/>
        <pt x="181" y="999" on="0"/>
        <pt x="238" y="1024" on="0"/>
        <pt x="271" y="1024" on="1"/>
        <pt x="302" y="1024" on="0"/>
        <pt x="360" y="999" on="0"/>
        <pt x="401" y="958" on="0"/>
        <pt x="425" y="901" on="0"/>
        <pt x="425" y="869" on="1"/>
        <pt x="425" y="837" on="0"/>
        <pt x="401" y="780" on="0"/>
        <pt x="360" y="739" on="0"/>
        <pt x="302" y="716" on="0"/>
        <pt x="271" y="716" on="1"/>
        <pt x="238" y="716" on="0"/>
        <pt x="181" y="739" on="0"/>
        <pt x="139" y="780" on="0"/>
        <pt x="115" y="837" on="0"/>
      </contour>
    </TTGlyph>
    <TTGlyph name="comma" xMin="81" yMin="-291" xMax="383" yMax="294">
      <contour>
        <pt x="81" y="156" on="1"/>
        <pt x="81" y="184" on="0"/>
        <pt x="103" y="234" on="0"/>
        <pt x="141" y="272" on="0"/>
        <pt x="197" y="294" on="0"/>
        <pt x="229" y="294" on="1"/>
        <pt x="268" y="294" on="0"/>
        <pt x="326" y="266" on="0"/>
        <pt x="365" y="218" on="0"/>
        <pt x="383" y="156" on="0"/>
        <pt x="383" y="121" on="1"/>
        <pt x="383" y="72" on="0"/>
        <pt x="353" y="-37" on="0"/>
        <pt x="296" y="-145" on="0"/>
        <pt x="212" y="-248" on="0"/>
        <pt x="158" y="-291" on="1"/>
        <pt x="114" y="-251" on="1"/>
        <pt x="95" y="-236" on="0"/>
        <pt x="95" y="-213" on="1"/>
        <pt x="95" y="-205" on="0"/>
        <pt x="107" y="-184" on="0"/>
        <pt x="115" y="-176" on="1"/>
        <pt x="126" y="-164" on="0"/>
        <pt x="159" y="-128" on="0"/>
        <pt x="192" y="-82" on="0"/>
        <pt x="219" y="-28" on="0"/>
        <pt x="225" y="3" on="1"/>
        <pt x="194" y="3" on="0"/>
        <pt x="140" y="27" on="0"/>
        <pt x="103" y="68" on="0"/>
        <pt x="81" y="123" on="0"/>
      </contour>
    </TTGlyph>
    <TTGlyph name="dollar" xMin="70" yMin="-228" xMax="1107" yMax="1687">
      <contour>
        <pt x="473" y="-9" on="1"/>
        <pt x="354" y="7" on="0"/>
        <pt x="144" y="105" on="0"/>
        <pt x="70" y="178" on="1"/>
        <pt x="148" y="294" on="1"/>
        <pt x="158" y="309" on="0"/>
        <pt x="192" y="329" on="0"/>
        <pt x="210" y="329" on="1"/>
        <pt x="233" y="329" on="0"/>
        <pt x="284" y="297" on="0"/>
        <pt x="350" y="254" on="0"/>
        <pt x="434" y="211" on="0"/>
        <pt x="491" y="201" on="1"/>
        <pt x="530" y="659" on="1"/>
        <pt x="457" y="680" on="0"/>
        <pt x="315" y="735" on="0"/>
        <pt x="201" y="826" on="0"/>
        <pt x="131" y="966" on="0"/>
        <pt x="131" y="1070" on="1"/>
        <pt x="131" y="1148" on="0"/>
        <pt x="194" y="1296" on="0"/>
        <pt x="313" y="1413" on="0"/>
        <pt x="487" y="1489" on="0"/>
        <pt x="599" y="1494" on="1"/>
        <pt x="611" y="1623" on="1"/>
        <pt x="613" y="1648" on="0"/>
        <pt x="650" y="1687" on="0"/>
        <pt x="679" y="1687" on="1"/>
        <pt x="772" y="1687" on="1"/>
        <pt x="755" y="1485" on="1"/>
        <pt x="864" y="1467" on="0"/>
        <pt x="1021" y="1379" on="0"/>
        <pt x="1080" y="1324" on="1"/>
        <pt x="1018" y="1231" on="1"/>
        <pt x="1004" y="1210" on="0"/>
        <pt x="975" y="1190" on="0"/>
        <pt x="955" y="1190" on="1"/>
        <pt x="939" y="1190" on="0"/>
        <pt x="897" y="1209" on="0"/>
        <pt x="843" y="1237" on="0"/>
        <pt x="778" y="1266" on="0"/>
        <pt x="738" y="1275" on="1"/>
        <pt x="702" y="851" on="1"/>
        <pt x="776" y="828" on="0"/>
        <pt x="920" y="774" on="0"/>
        <pt x="1036" y="688" on="0"/>
        <pt x="1107" y="560" on="0"/>
        <pt x="1107" y="464" on="1"/>
        <pt x="1107" y="369" on="0"/>
        <pt x="1044" y="202" on="0"/>
        <pt x="922" y="74" on="0"/>
        <pt x="744" y="-6" on="0"/>
        <pt x="629" y="-14" on="1"/>
        <pt x="617" y="-165" on="1"/>
        <pt x="615" y="-188" on="0"/>
        <pt x="578" y="-228" on="0"/>
        <pt x="548" y="-228" on="1"/>
        <pt x="455" y="-228" on="1"/>
      </contour>
      <contour>
        <pt x="868" y="425" on="1"/>
        <pt x="868" y="464" on="0"/>
        <pt x="840" y="522" on="0"/>
        <pt x="790" y="567" on="0"/>
        <pt x="722" y="600" on="0"/>
        <pt x="682" y="613" on="1"/>
        <pt x="648" y="198" on="1"/>
        <pt x="756" y="212" on="0"/>
        <pt x="868" y="330" on="0"/>
      </contour>
      <contour>
        <pt x="370" y="1095" on="1"/>
        <pt x="370" y="1056" on="0"/>
        <pt x="397" y="996" on="0"/>
        <pt x="445" y="950" on="0"/>
        <pt x="510" y="914" on="0"/>
        <pt x="549" y="900" on="1"/>
        <pt x="581" y="1279" on="1"/>
        <pt x="525" y="1272" on="0"/>
        <pt x="445" y="1238" on="0"/>
        <pt x="394" y="1189" on="0"/>
        <pt x="370" y="1128" on="0"/>
      </contour>
    </TTGlyph>
    <TTGlyph name="eight" xMin="79" yMin="-16" xMax="1107" yMax="1497">
      <contour>
        <pt x="593" y="-16" on="1"/>
        <pt x="478" y="-16" on="0"/>
        <pt x="289" y="45" on="0"/>
        <pt x="154" y="158" on="0"/>
        <pt x="79" y="317" on="0"/>
        <pt x="79" y="416" on="1"/>
        <pt x="79" y="547" on="0"/>
        <pt x="208" y="728" on="0"/>
        <pt x="344" y="772" on="1"/>
        <pt x="236" y="817" on="0"/>
        <pt x="128" y="983" on="0"/>
        <pt x="128" y="1100" on="1"/>
        <pt x="128" y="1184" on="0"/>
        <pt x="197" y="1329" on="0"/>
        <pt x="320" y="1437" on="0"/>
        <pt x="491" y="1497" on="0"/>
        <pt x="593" y="1497" on="1"/>
        <pt x="695" y="1497" on="0"/>
        <pt x="866" y="1437" on="0"/>
        <pt x="989" y="1329" on="0"/>
        <pt x="1058" y="1184" on="0"/>
        <pt x="1058" y="1100" on="1"/>
        <pt x="1058" y="983" on="0"/>
        <pt x="949" y="817" on="0"/>
        <pt x="842" y="772" on="1"/>
        <pt x="978" y="728" on="0"/>
        <pt x="1107" y="547" on="0"/>
        <pt x="1107" y="416" on="1"/>
        <pt x="1107" y="317" on="0"/>
        <pt x="1032" y="158" on="0"/>
        <pt x="897" y="45" on="0"/>
        <pt x="708" y="-16" on="0"/>
      </contour>
      <contour>
        <pt x="593" y="181" on="1"/>
        <pt x="656" y="181" on="0"/>
        <pt x="750" y="217" on="0"/>
        <pt x="814" y="281" on="0"/>
        <pt x="847" y="369" on="0"/>
        <pt x="847" y="420" on="1"/>
        <pt x="847" y="542" on="0"/>
        <pt x="712" y="667" on="0"/>
        <pt x="593" y="667" on="1"/>
        <pt x="474" y="667" on="0"/>
        <pt x="339" y="542" on="0"/>
        <pt x="339" y="420" on="1"/>
        <pt x="339" y="369" on="0"/>
        <pt x="372" y="281" on="0"/>
        <pt x="436" y="217" on="0"/>
        <pt x="531" y="181" on="0"/>
      </contour>
      <contour>
        <pt x="593" y="865" on="1"/>
        <pt x="654" y="865" on="0"/>
        <pt x="738" y="904" on="0"/>
        <pt x="790" y="969" on="0"/>
        <pt x="811" y="1052" on="0"/>
        <pt x="811" y="1096" on="1"/>
        <pt x="811" y="1138" on="0"/>
        <pt x="785" y="1213" on="0"/>
        <pt x="731" y="1272" on="0"/>
        <pt x="649" y="1307" on="0"/>
        <pt x="593" y="1307" on="1"/>
        <pt x="537" y="1307" on="0"/>
        <pt x="455" y="1272" on="0"/>
        <pt x="401" y="1213" on="0"/>
        <pt x="375" y="1138" on="0"/>
        <pt x="375" y="1096" on="1"/>
        <pt x="375" y="1052" on="0"/>
        <pt x="396" y="969" on="0"/>
        <pt x="448" y="904" on="0"/>
        <pt x="532" y="865" on="0"/>
      </contour>
    </TTGlyph>
    <TTGlyph name="equal" xMin="139" yMin="414" xMax="1046" yMax="963">
      <contour>
        <pt x="139" y="602" on="1"/>
        <pt x="1046" y="602" on="1"/>
        <pt x="1046" y="414" on="1"/>
        <pt x="139" y="414" on="1"/>
      </contour>
      <contour>
        <pt x="139" y="963" on="1"/>
        <pt x="1046" y="963" on="1"/>
        <pt x="1046" y="775" on="1"/>
        <pt x="139" y="775" on="1"/>
      </contour>
    </TTGlyph>
    <TTGlyph name="exclam" xMin="214" yMin="-14" xMax="524" yMax="1481">
      <contour>
        <pt x="492" y="1481" on="1"/>
        <pt x="492" y="895" on="1"/>
        <pt x="492" y="802" on="0"/>
        <pt x="473" y="623" on="0"/>
        <pt x="458" y="522" on="1"/>
        <pt x="287" y="522" on="1"/>
        <pt x="271" y="623" on="0"/>
        <pt x="253" y="802" on="0"/>
        <pt x="253" y="895" on="1"/>
        <pt x="253" y="1481" on="1"/>
      </contour>
      <contour>
        <pt x="214" y="139" on="1"/>
        <pt x="214" y="171" on="0"/>
        <pt x="238" y="228" on="0"/>
        <pt x="280" y="269" on="0"/>
        <pt x="337" y="294" on="0"/>
        <pt x="370" y="294" on="1"/>
        <pt x="401" y="294" on="0"/>
        <pt x="459" y="269" on="0"/>
        <pt x="500" y="228" on="0"/>
        <pt x="524" y="171" on="0"/>
        <pt x="524" y="139" on="1"/>
        <pt x="524" y="106" on="0"/>
        <pt x="500" y="50" on="0"/>
        <pt x="459" y="9" on="0"/>
        <pt x="401" y="-14" on="0"/>
        <pt x="370" y="-14" on="1"/>
        <pt x="337" y="-14" on="0"/>
        <pt x="280" y="9" on="0"/>
        <pt x="238" y="50" on="0"/>
        <pt x="214" y="106" on="0"/>
      </contour>
    </TTGlyph>
    <TTGlyph name="five" xMin="77" yMin="-16" xMax="1062" yMax="1481">
      <contour>
        <pt x="1012" y="1373" on="1"/>
        <pt x="1012" y="1319" on="0"/>
        <pt x="943" y="1251" on="0"/>
        <pt x="863" y="1251" on="1"/>
        <pt x="456" y="1251" on="1"/>
        <pt x="403" y="942" on="1"/>
        <pt x="503" y="963" on="0"/>
        <pt x="586" y="963" on="1"/>
        <pt x="703" y="963" on="0"/>
        <pt x="880" y="893" on="0"/>
        <pt x="1001" y="770" on="0"/>
        <pt x="1062" y="605" on="0"/>
        <pt x="1062" y="510" on="1"/>
        <pt x="1062" y="392" on="0"/>
        <pt x="979" y="198" on="0"/>
        <pt x="832" y="59" on="0"/>
        <pt x="630" y="-16" on="0"/>
        <pt x="511" y="-16" on="1"/>
        <pt x="442" y="-16" on="0"/>
        <pt x="317" y="12" on="0"/>
        <pt x="207" y="60" on="0"/>
        <pt x="114" y="123" on="0"/>
        <pt x="77" y="158" on="1"/>
        <pt x="155" y="265" on="1"/>
        <pt x="179" y="300" on="0"/>
        <pt x="220" y="300" on="1"/>
        <pt x="246" y="300" on="0"/>
        <pt x="298" y="267" on="0"/>
        <pt x="368" y="228" on="0"/>
        <pt x="460" y="196" on="0"/>
        <pt x="526" y="196" on="1"/>
        <pt x="595" y="196" on="0"/>
        <pt x="702" y="241" on="0"/>
        <pt x="772" y="322" on="0"/>
        <pt x="808" y="433" on="0"/>
        <pt x="808" y="499" on="1"/>
        <pt x="808" y="620" on="0"/>
        <pt x="668" y="756" on="0"/>
        <pt x="532" y="756" on="1"/>
        <pt x="424" y="756" on="0"/>
        <pt x="316" y="717" on="1"/>
        <pt x="158" y="762" on="1"/>
        <pt x="281" y="1481" on="1"/>
        <pt x="1012" y="1481" on="1"/>
      </contour>
    </TTGlyph>
    <TTGlyph name="four" xMin="23" yMin="0" xMax="1150" yMax="1482">
      <contour>
        <pt x="964" y="558" on="1"/>
        <pt x="1150" y="558" on="1"/>
        <pt x="1150" y="412" on="1"/>
        <pt x="1150" y="391" on="0"/>
        <pt x="1124" y="361" on="0"/>
        <pt x="1098" y="361" on="1"/>
        <pt x="964" y="361" on="1"/>
        <pt x="964" y="0" on="1"/>
        <pt x="743" y="0" on="1"/>
        <pt x="743" y="361" on="1"/>
        <pt x="118" y="361" on="1"/>
        <pt x="93" y="361" on="0"/>
        <pt x="54" y="393" on="0"/>
        <pt x="49" y="417" on="1"/>
        <pt x="23" y="545" on="1"/>
        <pt x="724" y="1482" on="1"/>
        <pt x="964" y="1482" on="1"/>
      </contour>
      <contour>
        <pt x="743" y="1042" on="1"/>
        <pt x="743" y="1075" on="0"/>
        <pt x="747" y="1151" on="0"/>
        <pt x="752" y="1192" on="1"/>
        <pt x="292" y="558" on="1"/>
        <pt x="743" y="558" on="1"/>
      </contour>
    </TTGlyph>
    <TTGlyph name="greater" xMin="234" yMin="215" xMax="1045" yMax="1164">
      <contour>
        <pt x="234" y="215" on="1"/>
        <pt x="234" y="395" on="1"/>
        <pt x="234" y="416" on="0"/>
        <pt x="254" y="450" on="0"/>
        <pt x="278" y="462" on="1"/>
        <pt x="650" y="653" on="1"/>
        <pt x="695" y="676" on="0"/>
        <pt x="755" y="690" on="1"/>
        <pt x="726" y="697" on="0"/>
        <pt x="673" y="715" on="0"/>
        <pt x="650" y="727" on="1"/>
        <pt x="278" y="918" on="1"/>
        <pt x="254" y="930" on="0"/>
        <pt x="234" y="964" on="0"/>
        <pt x="234" y="984" on="1"/>
        <pt x="234" y="1164" on="1"/>
        <pt x="1045" y="741" on="1"/>
        <pt x="1045" y="639" on="1"/>
      </contour>
    </TTGlyph>
    <TTGlyph name="guillemotleft" xMin="125" yMin="129" xMax="846" yMax="973">
      <contour>
        <pt x="125" y="535" on="1"/>
        <pt x="125" y="567" on="1"/>
        <pt x="387" y="973" on="1"/>
        <pt x="470" y="934" on="1"/>
        <pt x="491" y="925" on="0"/>
        <pt x="509" y="896" on="0"/>
        <pt x="509" y="879" on="1"/>
        <pt x="509" y="857" on="0"/>
        <pt x="496" y="835" on="1"/>
        <pt x="354" y="594" on="1"/>
        <pt x="340" y="567" on="0"/>
        <pt x="322" y="551" on="1"/>
        <pt x="338" y="537" on="0"/>
        <pt x="354" y="508" on="1"/>
        <pt x="496" y="266" on="1"/>
        <pt x="509" y="244" on="0"/>
        <pt x="509" y="221" on="1"/>
        <pt x="509" y="186" on="0"/>
        <pt x="470" y="168" on="1"/>
        <pt x="387" y="129" on="1"/>
      </contour>
      <contour>
        <pt x="462" y="535" on="1"/>
        <pt x="462" y="567" on="1"/>
        <pt x="724" y="973" on="1"/>
        <pt x="807" y="934" on="1"/>
        <pt x="827" y="925" on="0"/>
        <pt x="846" y="896" on="0"/>
        <pt x="846" y="879" on="1"/>
        <pt x="846" y="857" on="0"/>
        <pt x="833" y="835" on="1"/>
        <pt x="691" y="594" on="1"/>
        <pt x="677" y="567" on="0"/>
        <pt x="659" y="551" on="1"/>
        <pt x="675" y="537" on="0"/>
        <pt x="691" y="508" on="1"/>
        <pt x="833" y="266" on="1"/>
        <pt x="846" y="244" on="0"/>
        <pt x="846" y="221" on="1"/>
        <pt x="846" y="186" on="0"/>
        <pt x="807" y="168" on="1"/>
        <pt x="724" y="129" on="1"/>
      </contour>
    </TTGlyph>
    <TTGlyph name="guillemotright" xMin="147" yMin="129" xMax="868" yMax="973">
      <contour>
        <pt x="269" y="129" on="1"/>
        <pt x="186" y="168" on="1"/>
        <pt x="165" y="177" on="0"/>
        <pt x="147" y="206" on="0"/>
        <pt x="147" y="223" on="1"/>
        <pt x="147" y="244" on="0"/>
        <pt x="160" y="266" on="1"/>
        <pt x="302" y="508" on="1"/>
        <pt x="318" y="537" on="0"/>
        <pt x="334" y="551" on="1"/>
        <pt x="316" y="567" on="0"/>
        <pt x="302" y="594" on="1"/>
        <pt x="160" y="835" on="1"/>
        <pt x="147" y="857" on="0"/>
        <pt x="147" y="879" on="1"/>
        <pt x="147" y="915" on="0"/>
        <pt x="186" y="934" on="1"/>
        <pt x="269" y="973" on="1"/>
        <pt x="531" y="567" on="1"/>
        <pt x="531" y="535" on="1"/>
      </contour>
      <contour>
        <pt x="606" y="129" on="1"/>
        <pt x="523" y="168" on="1"/>
        <pt x="502" y="177" on="0"/>
        <pt x="484" y="206" on="0"/>
        <pt x="484" y="223" on="1"/>
        <pt x="484" y="244" on="0"/>
        <pt x="497" y="266" on="1"/>
        <pt x="639" y="508" on="1"/>
        <pt x="655" y="537" on="0"/>
        <pt x="671" y="551" on="1"/>
        <pt x="653" y="567" on="0"/>
        <pt x="639" y="594" on="1"/>
        <pt x="497" y="835" on="1"/>
        <pt x="484" y="857" on="0"/>
        <pt x="484" y="879" on="1"/>
        <pt x="484" y="915" on="0"/>
        <pt x="523" y="934" on="1"/>
        <pt x="606" y="973" on="1"/>
        <pt x="868" y="567" on="1"/>
        <pt x="868" y="535" on="1"/>
      </contour>
    </TTGlyph>
    <TTGlyph name="hyphen" xMin="102" yMin="513" xMax="632" yMax="724">
      <contour>
        <pt x="102" y="724" on="1"/>
        <pt x="632" y="724" on="1"/>
        <pt x="632" y="513" on="1"/>
        <pt x="102" y="513" on="1"/>
      </contour>
    </TTGlyph>
    <TTGlyph name="less" xMin="142" yMin="215" xMax="953" yMax="1164">
      <contour>
        <pt x="142" y="741" on="1"/>
        <pt x="953" y="1164" on="1"/>
        <pt x="953" y="984" on="1"/>
        <pt x="953" y="964" on="0"/>
        <pt x="933" y="930" on="0"/>
        <pt x="909" y="918" on="1"/>
        <pt x="537" y="727" on="1"/>
        <pt x="514" y="715" on="0"/>
        <pt x="461" y="697" on="0"/>
        <pt x="432" y="690" on="1"/>
        <pt x="461" y="683" on="0"/>
        <pt x="514" y="666" on="0"/>
        <pt x="537" y="653" on="1"/>
        <pt x="909" y="462" on="1"/>
        <pt x="933" y="450" on="0"/>
        <pt x="953" y="416" on="0"/>
        <pt x="953" y="395" on="1"/>
        <pt x="953" y="215" on="1"/>
        <pt x="142" y="639" on="1"/>
      </contour>
    </TTGlyph>
    <TTGlyph name="nine" xMin="133" yMin="0" xMax="1130" yMax="1497">
      <contour>
        <pt x="543" y="591" on="1"/>
        <pt x="466" y="591" on="0"/>
        <pt x="318" y="644" on="0"/>
        <pt x="203" y="752" on="0"/>
        <pt x="133" y="910" on="0"/>
        <pt x="133" y="1017" on="1"/>
        <pt x="133" y="1116" on="0"/>
        <pt x="207" y="1290" on="0"/>
        <pt x="340" y="1421" on="0"/>
        <pt x="526" y="1497" on="0"/>
        <pt x="639" y="1497" on="1"/>
        <pt x="753" y="1497" on="0"/>
        <pt x="934" y="1425" on="0"/>
        <pt x="1062" y="1296" on="0"/>
        <pt x="1130" y="1116" on="0"/>
        <pt x="1130" y="1009" on="1"/>
        <pt x="1130" y="940" on="0"/>
        <pt x="1107" y="817" on="0"/>
        <pt x="1063" y="703" on="0"/>
        <pt x="1001" y="596" on="0"/>
        <pt x="963" y="542" on="1"/>
        <pt x="625" y="58" on="1"/>
        <pt x="607" y="34" on="0"/>
        <pt x="539" y="0" on="0"/>
        <pt x="494" y="0" on="1"/>
        <pt x="262" y="0" on="1"/>
        <pt x="722" y="574" on="1"/>
        <pt x="739" y="596" on="0"/>
        <pt x="770" y="637" on="0"/>
        <pt x="784" y="657" on="1"/>
        <pt x="733" y="625" on="0"/>
        <pt x="610" y="591" on="0"/>
      </contour>
      <contour>
        <pt x="888" y="1034" on="1"/>
        <pt x="888" y="1095" on="0"/>
        <pt x="851" y="1190" on="0"/>
        <pt x="783" y="1255" on="0"/>
        <pt x="690" y="1290" on="0"/>
        <pt x="635" y="1290" on="1"/>
        <pt x="577" y="1290" on="0"/>
        <pt x="485" y="1252" on="0"/>
        <pt x="421" y="1185" on="0"/>
        <pt x="386" y="1092" on="0"/>
        <pt x="386" y="1036" on="1"/>
        <pt x="386" y="912" on="0"/>
        <pt x="514" y="782" on="0"/>
        <pt x="632" y="782" on="1"/>
        <pt x="693" y="782" on="0"/>
        <pt x="788" y="821" on="0"/>
        <pt x="854" y="889" on="0"/>
        <pt x="888" y="981" on="0"/>
      </contour>
    </TTGlyph>
    <TTGlyph name="numbersign" xMin="39" yMin="0" xMax="1161" yMax="1481">
      <contour>
        <pt x="850" y="418" on="1"/>
        <pt x="771" y="0" on="1"/>
        <pt x="655" y="0" on="1"/>
        <pt x="625" y="0" on="0"/>
        <pt x="580" y="49" on="0"/>
        <pt x="580" y="85" on="1"/>
        <pt x="580" y="90" on="0"/>
        <pt x="581" y="99" on="0"/>
        <pt x="582" y="104" on="1"/>
        <pt x="642" y="418" on="1"/>
        <pt x="432" y="418" on="1"/>
        <pt x="373" y="92" on="1"/>
        <pt x="364" y="43" on="0"/>
        <pt x="298" y="0" on="0"/>
        <pt x="258" y="0" on="1"/>
        <pt x="147" y="0" on="1"/>
        <pt x="224" y="418" on="1"/>
        <pt x="107" y="418" on="1"/>
        <pt x="74" y="418" on="0"/>
        <pt x="39" y="450" on="0"/>
        <pt x="39" y="486" on="1"/>
        <pt x="39" y="501" on="0"/>
        <pt x="42" y="519" on="1"/>
        <pt x="55" y="600" on="1"/>
        <pt x="250" y="600" on="1"/>
        <pt x="303" y="883" on="1"/>
        <pt x="84" y="883" on="1"/>
        <pt x="104" y="988" on="1"/>
        <pt x="111" y="1027" on="0"/>
        <pt x="160" y="1065" on="0"/>
        <pt x="215" y="1065" on="1"/>
        <pt x="329" y="1065" on="1"/>
        <pt x="392" y="1395" on="1"/>
        <pt x="400" y="1436" on="0"/>
        <pt x="460" y="1481" on="0"/>
        <pt x="500" y="1481" on="1"/>
        <pt x="614" y="1481" on="1"/>
        <pt x="537" y="1065" on="1"/>
        <pt x="746" y="1065" on="1"/>
        <pt x="824" y="1481" on="1"/>
        <pt x="937" y="1481" on="1"/>
        <pt x="973" y="1481" on="0"/>
        <pt x="1018" y="1440" on="0"/>
        <pt x="1018" y="1408" on="1"/>
        <pt x="1018" y="1398" on="0"/>
        <pt x="1017" y="1393" on="1"/>
        <pt x="953" y="1065" on="1"/>
        <pt x="1161" y="1065" on="1"/>
        <pt x="1142" y="959" on="1"/>
        <pt x="1135" y="921" on="0"/>
        <pt x="1085" y="883" on="0"/>
        <pt x="1030" y="883" on="1"/>
        <pt x="928" y="883" on="1"/>
        <pt x="876" y="600" on="1"/>
        <pt x="1021" y="600" on="1"/>
        <pt x="1054" y="600" on="0"/>
        <pt x="1088" y="568" on="0"/>
        <pt x="1088" y="530" on="1"/>
        <pt x="1088" y="516" on="0"/>
        <pt x="1085" y="498" on="1"/>
        <pt x="1072" y="418" on="1"/>
      </contour>
      <contour>
        <pt x="458" y="600" on="1"/>
        <pt x="668" y="600" on="1"/>
        <pt x="720" y="883" on="1"/>
        <pt x="511" y="883" on="1"/>
      </contour>
    </TTGlyph>
    <TTGlyph name="one" xMin="168" yMin="0" xMax="1094" yMax="1483">
      <contour>
        <pt x="274" y="189" on="1"/>
        <pt x="575" y="189" on="1"/>
        <pt x="575" y="1053" on="1"/>
        <pt x="575" y="1103" on="0"/>
        <pt x="578" y="1158" on="1"/>
        <pt x="365" y="980" on="1"/>
        <pt x="351" y="969" on="0"/>
        <pt x="324" y="961" on="0"/>
        <pt x="310" y="961" on="1"/>
        <pt x="290" y="961" on="0"/>
        <pt x="256" y="978" on="0"/>
        <pt x="248" y="989" on="1"/>
        <pt x="168" y="1099" on="1"/>
        <pt x="620" y="1483" on="1"/>
        <pt x="827" y="1483" on="1"/>
        <pt x="827" y="189" on="1"/>
        <pt x="1094" y="189" on="1"/>
        <pt x="1094" y="0" on="1"/>
        <pt x="274" y="0" on="1"/>
      </contour>
    </TTGlyph>
    <TTGlyph name="parenleft" xMin="108" yMin="-324" xMax="537" yMax="1608">
      <contour>
        <pt x="327" y="642" on="1"/>
        <pt x="327" y="431" on="0"/>
        <pt x="430" y="24" on="0"/>
        <pt x="525" y="-156" on="1"/>
        <pt x="532" y="-169" on="0"/>
        <pt x="537" y="-191" on="0"/>
        <pt x="537" y="-201" on="1"/>
        <pt x="537" y="-221" on="0"/>
        <pt x="517" y="-247" on="0"/>
        <pt x="502" y="-255" on="1"/>
        <pt x="390" y="-324" on="1"/>
        <pt x="314" y="-207" on="0"/>
        <pt x="207" y="29" on="0"/>
        <pt x="140" y="268" on="0"/>
        <pt x="108" y="514" on="0"/>
        <pt x="108" y="642" on="1"/>
        <pt x="108" y="770" on="0"/>
        <pt x="140" y="1017" on="0"/>
        <pt x="207" y="1256" on="0"/>
        <pt x="314" y="1491" on="0"/>
        <pt x="390" y="1608" on="1"/>
        <pt x="502" y="1540" on="1"/>
        <pt x="517" y="1532" on="0"/>
        <pt x="537" y="1506" on="0"/>
        <pt x="537" y="1487" on="1"/>
        <pt x="537" y="1467" on="0"/>
        <pt x="524" y="1441" on="1"/>
        <pt x="430" y="1262" on="0"/>
        <pt x="327" y="853" on="0"/>
      </contour>
    </TTGlyph>
    <TTGlyph name="parenright" xMin="76" yMin="-324" xMax="505" yMax="1608">
      <contour>
        <pt x="286" y="642" on="1"/>
        <pt x="286" y="853" on="0"/>
        <pt x="184" y="1262" on="0"/>
        <pt x="89" y="1441" on="1"/>
        <pt x="76" y="1467" on="0"/>
        <pt x="76" y="1487" on="1"/>
        <pt x="76" y="1506" on="0"/>
        <pt x="96" y="1532" on="0"/>
        <pt x="111" y="1540" on="1"/>
        <pt x="223" y="1608" on="1"/>
        <pt x="299" y="1491" on="0"/>
        <pt x="406" y="1256" on="0"/>
        <pt x="473" y="1017" on="0"/>
        <pt x="505" y="770" on="0"/>
        <pt x="505" y="642" on="1"/>
        <pt x="505" y="514" on="0"/>
        <pt x="473" y="268" on="0"/>
        <pt x="406" y="29" on="0"/>
        <pt x="299" y="-207" on="0"/>
        <pt x="223" y="-324" on="1"/>
        <pt x="111" y="-255" on="1"/>
        <pt x="96" y="-247" on="0"/>
        <pt x="76" y="-221" on="0"/>
        <pt x="76" y="-201" on="1"/>
        <pt x="76" y="-191" on="0"/>
        <pt x="81" y="-169" on="0"/>
        <pt x="88" y="-156" on="1"/>
        <pt x="184" y="24" on="0"/>
        <pt x="286" y="431" on="0"/>
      </contour>
    </TTGlyph>
    <TTGlyph name="percent" xMin="62" yMin="-18" xMax="1582" yMax="1496">
      <contour>
        <pt x="746" y="1122" on="1"/>
        <pt x="746" y="1038" on="0"/>
        <pt x="690" y="903" on="0"/>
        <pt x="596" y="808" on="0"/>
        <pt x="471" y="757" on="0"/>
        <pt x="403" y="757" on="1"/>
        <pt x="329" y="757" on="0"/>
        <pt x="204" y="808" on="0"/>
        <pt x="113" y="903" on="0"/>
        <pt x="62" y="1038" on="0"/>
        <pt x="62" y="1122" on="1"/>
        <pt x="62" y="1208" on="0"/>
        <pt x="113" y="1348" on="0"/>
        <pt x="204" y="1444" on="0"/>
        <pt x="329" y="1496" on="0"/>
        <pt x="403" y="1496" on="1"/>
        <pt x="477" y="1496" on="0"/>
        <pt x="603" y="1444" on="0"/>
        <pt x="695" y="1348" on="0"/>
        <pt x="746" y="1208" on="0"/>
      </contour>
      <contour>
        <pt x="550" y="1122" on="1"/>
        <pt x="550" y="1182" on="0"/>
        <pt x="528" y="1262" on="0"/>
        <pt x="488" y="1311" on="0"/>
        <pt x="434" y="1332" on="0"/>
        <pt x="403" y="1332" on="1"/>
        <pt x="372" y="1332" on="0"/>
        <pt x="319" y="1311" on="0"/>
        <pt x="280" y="1262" on="0"/>
        <pt x="259" y="1182" on="0"/>
        <pt x="259" y="1122" on="1"/>
        <pt x="259" y="1065" on="0"/>
        <pt x="280" y="988" on="0"/>
        <pt x="319" y="941" on="0"/>
        <pt x="372" y="921" on="0"/>
        <pt x="403" y="921" on="1"/>
        <pt x="434" y="921" on="0"/>
        <pt x="488" y="941" on="0"/>
        <pt x="528" y="988" on="0"/>
        <pt x="550" y="1065" on="0"/>
      </contour>
      <contour>
        <pt x="1239" y="1441" on="1"/>
        <pt x="1251" y="1456" on="0"/>
        <pt x="1288" y="1481" on="0"/>
        <pt x="1320" y="1481" on="1"/>
        <pt x="1504" y="1481" on="1"/>
        <pt x="404" y="38" on="1"/>
        <pt x="392" y="22" on="0"/>
        <pt x="354" y="0" on="0"/>
        <pt x="327" y="0" on="1"/>
        <pt x="139" y="0" on="1"/>
      </contour>
      <contour>
        <pt x="1582" y="348" on="1"/>
        <pt x="1582" y="264" on="0"/>
        <pt x="1525" y="129" on="0"/>
        <pt x="1431" y="34" on="0"/>
        <pt x="1306" y="-18" on="0"/>
        <pt x="1239" y="-18" on="1"/>
        <pt x="1165" y="-18" on="0"/>
        <pt x="1040" y="34" on="0"/>
        <pt x="949" y="129" on="0"/>
        <pt x="898" y="264" on="0"/>
        <pt x="898" y="348" on="1"/>
        <pt x="898" y="434" on="0"/>
        <pt x="949" y="573" on="0"/>
        <pt x="1040" y="670" on="0"/>
        <pt x="1165" y="722" on="0"/>
        <pt x="1239" y="722" on="1"/>
        <pt x="1312" y="722" on="0"/>
        <pt x="1438" y="670" on="0"/>
        <pt x="1530" y="573" on="0"/>
        <pt x="1582" y="434" on="0"/>
      </contour>
      <contour>
        <pt x="1387" y="348" on="1"/>
        <pt x="1387" y="408" on="0"/>
        <pt x="1364" y="487" on="0"/>
        <pt x="1324" y="537" on="0"/>
        <pt x="1269" y="558" on="0"/>
        <pt x="1239" y="558" on="1"/>
        <pt x="1208" y="558" on="0"/>
        <pt x="1155" y="537" on="0"/>
        <pt x="1117" y="487" on="0"/>
        <pt x="1094" y="408" on="0"/>
        <pt x="1094" y="348" on="1"/>
        <pt x="1094" y="291" on="0"/>
        <pt x="1117" y="213" on="0"/>
        <pt x="1155" y="166" on="0"/>
        <pt x="1208" y="145" on="0"/>
        <pt x="1239" y="145" on="1"/>
        <pt x="1269" y="145" on="0"/>
        <pt x="1324" y="166" on="0"/>
        <pt x="1364" y="213" on="0"/>
        <pt x="1387" y="291" on="0"/>
      </contour>
    </TTGlyph>
    <TTGlyph name="period" xMin="74" yMin="-14" xMax="384" yMax="294">
      <contour>
        <pt x="74" y="139" on="1"/>
        <pt x="74" y="171" on="0"/>
        <pt x="98" y="228" on="0"/>
        <pt x="140" y="269" on="0"/>
        <pt x="197" y="294" on="0"/>
        <pt x="230" y="294" on="1"/>
        <pt x="261" y="294" on="0"/>
        <pt x="319" y="269" on="0"/>
        <pt x="360" y="228" on="0"/>
        <pt x="384" y="171" on="0"/>
        <pt x="384" y="139" on="1"/>
        <pt x="384" y="106" on="0"/>
        <pt x="360" y="50" on="0"/>
        <pt x="319" y="9" on="0"/>
        <pt x="261" y="-14" on="0"/>
        <pt x="230" y="-14" on="1"/>
        <pt x="197" y="-14" on="0"/>
        <pt x="140" y="9" on="0"/>
        <pt x="98" y="50" on="0"/>
        <pt x="74" y="106" on="0"/>
      </contour>
    </TTGlyph>
    <TTGlyph name="plus" xMin="93" yMin="172" xMax="1092" yMax="1201">
      <contour>
        <pt x="694" y="1201" on="1"/>
        <pt x="694" y="781" on="1"/>
        <pt x="1092" y="781" on="1"/>
        <pt x="1092" y="594" on="1"/>
        <pt x="694" y="594" on="1"/>
        <pt x="694" y="172" on="1"/>
        <pt x="489" y="172" on="1"/>
        <pt x="489" y="594" on="1"/>
        <pt x="93" y="594" on="1"/>
        <pt x="93" y="781" on="1"/>
        <pt x="489" y="781" on="1"/>
        <pt x="489" y="1201" on="1"/>
      </contour>
    </TTGlyph>
    <TTGlyph name="question" xMin="37" yMin="-14" xMax="827" yMax="1497">
      <contour>
        <pt x="37" y="1347" on="1"/>
        <pt x="72" y="1377" on="0"/>
        <pt x="155" y="1433" on="0"/>
        <pt x="251" y="1474" on="0"/>
        <pt x="364" y="1497" on="0"/>
        <pt x="429" y="1497" on="1"/>
        <pt x="518" y="1497" on="0"/>
        <pt x="665" y="1448" on="0"/>
        <pt x="769" y="1357" on="0"/>
        <pt x="827" y="1228" on="0"/>
        <pt x="827" y="1148" on="1"/>
        <pt x="827" y="1070" on="0"/>
        <pt x="781" y="956" on="0"/>
        <pt x="713" y="872" on="0"/>
        <pt x="633" y="811" on="0"/>
        <pt x="561" y="757" on="0"/>
        <pt x="509" y="705" on="0"/>
        <pt x="504" y="672" on="1"/>
        <pt x="480" y="522" on="1"/>
        <pt x="307" y="522" on="1"/>
        <pt x="290" y="689" on="1"/>
        <pt x="289" y="694" on="0"/>
        <pt x="289" y="701" on="0"/>
        <pt x="289" y="707" on="1"/>
        <pt x="289" y="752" on="0"/>
        <pt x="334" y="818" on="0"/>
        <pt x="402" y="877" on="0"/>
        <pt x="479" y="932" on="0"/>
        <pt x="547" y="996" on="0"/>
        <pt x="592" y="1078" on="0"/>
        <pt x="592" y="1134" on="1"/>
        <pt x="592" y="1170" on="0"/>
        <pt x="564" y="1229" on="0"/>
        <pt x="515" y="1271" on="0"/>
        <pt x="447" y="1293" on="0"/>
        <pt x="407" y="1293" on="1"/>
        <pt x="348" y="1293" on="0"/>
        <pt x="267" y="1268" on="0"/>
        <pt x="211" y="1236" on="0"/>
        <pt x="172" y="1210" on="0"/>
        <pt x="157" y="1210" on="1"/>
        <pt x="120" y="1210" on="0"/>
        <pt x="104" y="1241" on="1"/>
      </contour>
      <contour>
        <pt x="231" y="139" on="1"/>
        <pt x="231" y="171" on="0"/>
        <pt x="254" y="228" on="0"/>
        <pt x="296" y="269" on="0"/>
        <pt x="353" y="294" on="0"/>
        <pt x="386" y="294" on="1"/>
        <pt x="418" y="294" on="0"/>
        <pt x="475" y="269" on="0"/>
        <pt x="516" y="228" on="0"/>
        <pt x="541" y="171" on="0"/>
        <pt x="541" y="139" on="1"/>
        <pt x="541" y="106" on="0"/>
        <pt x="516" y="50" on="0"/>
        <pt x="475" y="9" on="0"/>
        <pt x="418" y="-14" on="0"/>
        <pt x="386" y="-14" on="1"/>
        <pt x="353" y="-14" on="0"/>
        <pt x="296" y="9" on="0"/>
        <pt x="254" y="50" on="0"/>
        <pt x="231" y="106" on="0"/>
      </contour>
    </TTGlyph>
    <TTGlyph name="quotedbl" xMin="134" yMin="933" xMax="731" yMax="1481">
      <contour>
        <pt x="354" y="1481" on="1"/>
        <pt x="354" y="1186" on="1"/>
        <pt x="331" y="1026" on="1"/>
        <pt x="323" y="981" on="0"/>
        <pt x="286" y="933" on="0"/>
        <pt x="243" y="933" on="1"/>
        <pt x="206" y="933" on="0"/>
        <pt x="163" y="981" on="0"/>
        <pt x="157" y="1026" on="1"/>
        <pt x="134" y="1186" on="1"/>
        <pt x="134" y="1481" on="1"/>
      </contour>
      <contour>
        <pt x="731" y="1481" on="1"/>
        <pt x="731" y="1186" on="1"/>
        <pt x="707" y="1026" on="1"/>
        <pt x="700" y="981" on="0"/>
        <pt x="662" y="933" on="0"/>
        <pt x="619" y="933" on="1"/>
        <pt x="583" y="933" on="0"/>
        <pt x="540" y="981" on="0"/>
        <pt x="533" y="1026" on="1"/>
        <pt x="511" y="1186" on="1"/>
        <pt x="511" y="1481" on="1"/>
      </contour>
    </TTGlyph>
    <TTGlyph name="quotesingle" xMin="134" yMin="933" xMax="354" yMax="1481">
      <contour>
        <pt x="354" y="1481" on="1"/>
        <pt x="354" y="1186" on="1"/>
        <pt x="331" y="1026" on="1"/>
        <pt x="323" y="981" on="0"/>
        <pt x="286" y="933" on="0"/>
        <pt x="243" y="933" on="1"/>
        <pt x="206" y="933" on="0"/>
        <pt x="163" y="981" on="0"/>
        <pt x="157" y="1026" on="1"/>
        <pt x="134" y="1186" on="1"/>
        <pt x="134" y="1481" on="1"/>
      </contour>
    </TTGlyph>
    <TTGlyph name="semicolon" xMin="115" yMin="-291" xMax="425" yMax="1024">
      <contour>
        <pt x="122" y="156" on="1"/>
        <pt x="122" y="184" on="0"/>
        <pt x="144" y="234" on="0"/>
        <pt x="183" y="272" on="0"/>
        <pt x="238" y="294" on="0"/>
        <pt x="271" y="294" on="1"/>
        <pt x="310" y="294" on="0"/>
        <pt x="367" y="266" on="0"/>
        <pt x="406" y="218" on="0"/>
        <pt x="424" y="156" on="0"/>
        <pt x="424" y="121" on="1"/>
        <pt x="424" y="72" on="0"/>
        <pt x="395" y="-37" on="0"/>
        <pt x="337" y="-145" on="0"/>
        <pt x="253" y="-248" on="0"/>
        <pt x="199" y="-291" on="1"/>
        <pt x="155" y="-251" on="1"/>
        <pt x="137" y="-236" on="0"/>
        <pt x="137" y="-213" on="1"/>
        <pt x="137" y="-205" on="0"/>
        <pt x="148" y="-184" on="0"/>
        <pt x="156" y="-176" on="1"/>
        <pt x="167" y="-164" on="0"/>
        <pt x="200" y="-128" on="0"/>
        <pt x="233" y="-82" on="0"/>
        <pt x="260" y="-28" on="0"/>
        <pt x="267" y="3" on="1"/>
        <pt x="235" y="3" on="0"/>
        <pt x="182" y="27" on="0"/>
        <pt x="144" y="68" on="0"/>
        <pt x="122" y="123" on="0"/>
      </contour>
      <contour>
        <pt x="115" y="869" on="1"/>
        <pt x="115" y="901" on="0"/>
        <pt x="139" y="958" on="0"/>
        <pt x="181" y="999" on="0"/>
        <pt x="238" y="1024" on="0"/>
        <pt x="271" y="1024" on="1"/>
        <pt x="302" y="1024" on="0"/>
        <pt x="360" y="999" on="0"/>
        <pt x="401" y="958" on="0"/>
        <pt x="425" y="901" on="0"/>
        <pt x="425" y="869" on="1"/>
        <pt x="425" y="837" on="0"/>
        <pt x="401" y="780" on="0"/>
        <pt x="360" y="739" on="0"/>
        <pt x="302" y="716" on="0"/>
        <pt x="271" y="716" on="1"/>
        <pt x="238" y="716" on="0"/>
        <pt x="181" y="739" on="0"/>
        <pt x="139" y="780" on="0"/>
        <pt x="115" y="837" on="0"/>
      </contour>
    </TTGlyph>
    <TTGlyph name="seven" xMin="98" yMin="0" xMax="1122" yMax="1481">
      <contour>
        <pt x="1122" y="1481" on="1"/>
        <pt x="1122" y="1371" on="1"/>
        <pt x="1122" y="1322" on="0"/>
        <pt x="1100" y="1262" on="0"/>
        <pt x="1090" y="1241" on="1"/>
        <pt x="530" y="86" on="1"/>
        <pt x="513" y="50" on="0"/>
        <pt x="449" y="0" on="0"/>
        <pt x="395" y="0" on="1"/>
        <pt x="212" y="0" on="1"/>
        <pt x="785" y="1132" on="1"/>
        <pt x="821" y="1201" on="0"/>
        <pt x="865" y="1251" on="1"/>
        <pt x="156" y="1251" on="1"/>
        <pt x="133" y="1251" on="0"/>
        <pt x="98" y="1286" on="0"/>
        <pt x="98" y="1310" on="1"/>
        <pt x="98" y="1481" on="1"/>
      </contour>
    </TTGlyph>
    <TTGlyph name="six" xMin="89" yMin="-16" xMax="1123" yMax="1481">
      <contour>
        <pt x="686" y="925" on="1"/>
        <pt x="770" y="925" on="0"/>
        <pt x="929" y="869" on="0"/>
        <pt x="1050" y="758" on="0"/>
        <pt x="1123" y="592" on="0"/>
        <pt x="1123" y="481" on="1"/>
        <pt x="1123" y="378" on="0"/>
        <pt x="1047" y="197" on="0"/>
        <pt x="910" y="61" on="0"/>
        <pt x="717" y="-16" on="0"/>
        <pt x="600" y="-16" on="1"/>
        <pt x="481" y="-16" on="0"/>
        <pt x="293" y="59" on="0"/>
        <pt x="160" y="196" on="0"/>
        <pt x="89" y="387" on="0"/>
        <pt x="89" y="504" on="1"/>
        <pt x="89" y="608" on="0"/>
        <pt x="174" y="828" on="0"/>
        <pt x="263" y="947" on="1"/>
        <pt x="616" y="1421" on="1"/>
        <pt x="635" y="1446" on="0"/>
        <pt x="705" y="1481" on="0"/>
        <pt x="752" y="1481" on="1"/>
        <pt x="977" y="1481" on="1"/>
        <pt x="538" y="943" on="1"/>
        <pt x="523" y="926" on="0"/>
        <pt x="498" y="895" on="0"/>
        <pt x="485" y="879" on="1"/>
        <pt x="528" y="900" on="0"/>
        <pt x="628" y="925" on="0"/>
      </contour>
      <contour>
        <pt x="332" y="465" on="1"/>
        <pt x="332" y="403" on="0"/>
        <pt x="365" y="302" on="0"/>
        <pt x="432" y="230" on="0"/>
        <pt x="530" y="190" on="0"/>
        <pt x="595" y="190" on="1"/>
        <pt x="655" y="190" on="0"/>
        <pt x="757" y="231" on="0"/>
        <pt x="829" y="305" on="0"/>
        <pt x="870" y="404" on="0"/>
        <pt x="870" y="463" on="1"/>
        <pt x="870" y="526" on="0"/>
        <pt x="831" y="628" on="0"/>
        <pt x="760" y="698" on="0"/>
        <pt x="659" y="735" on="0"/>
        <pt x="599" y="735" on="1"/>
        <pt x="539" y="735" on="0"/>
        <pt x="440" y="694" on="0"/>
        <pt x="370" y="622" on="0"/>
        <pt x="332" y="522" on="0"/>
      </contour>
    </TTGlyph>
    <TTGlyph name="slash" xMin="-18" yMin="-97" xMax="817" yMax="1522">
      <contour>
        <pt x="224" y="-3" on="1"/>
        <pt x="214" y="-27" on="0"/>
        <pt x="186" y="-61" on="0"/>
        <pt x="149" y="-85" on="0"/>
        <pt x="108" y="-97" on="0"/>
        <pt x="88" y="-97" on="1"/>
        <pt x="-18" y="-97" on="1"/>
        <pt x="580" y="1433" on="1"/>
        <pt x="597" y="1476" on="0"/>
        <pt x="663" y="1522" on="0"/>
        <pt x="709" y="1522" on="1"/>
        <pt x="817" y="1522" on="1"/>
      </contour>
    </TTGlyph>
    <TTGlyph name="three" xMin="92" yMin="-16" xMax="1116" yMax="1497">
      <contour>
        <pt x="640" y="1497" on="1"/>
        <pt x="742" y="1497" on="0"/>
        <pt x="907" y="1439" on="0"/>
        <pt x="1024" y="1335" on="0"/>
        <pt x="1086" y="1196" on="0"/>
        <pt x="1086" y="1115" on="1"/>
        <pt x="1086" y="1044" on="0"/>
        <pt x="1055" y="937" on="0"/>
        <pt x="994" y="857" on="0"/>
        <pt x="907" y="802" on="0"/>
        <pt x="852" y="783" on="1"/>
        <pt x="985" y="741" on="0"/>
        <pt x="1116" y="569" on="0"/>
        <pt x="1116" y="439" on="1"/>
        <pt x="1116" y="329" on="0"/>
        <pt x="1034" y="159" on="0"/>
        <pt x="895" y="43" on="0"/>
        <pt x="712" y="-16" on="0"/>
        <pt x="609" y="-16" on="1"/>
        <pt x="498" y="-16" on="0"/>
        <pt x="332" y="35" on="0"/>
        <pt x="209" y="135" on="0"/>
        <pt x="123" y="281" on="0"/>
        <pt x="92" y="376" on="1"/>
        <pt x="204" y="422" on="1"/>
        <pt x="232" y="434" on="0"/>
        <pt x="262" y="434" on="1"/>
        <pt x="289" y="434" on="0"/>
        <pt x="331" y="412" on="0"/>
        <pt x="342" y="390" on="1"/>
        <pt x="360" y="354" on="0"/>
        <pt x="404" y="285" on="0"/>
        <pt x="466" y="230" on="0"/>
        <pt x="549" y="197" on="0"/>
        <pt x="606" y="197" on="1"/>
        <pt x="671" y="197" on="0"/>
        <pt x="767" y="239" on="0"/>
        <pt x="831" y="306" on="0"/>
        <pt x="863" y="389" on="0"/>
        <pt x="863" y="431" on="1"/>
        <pt x="863" y="484" on="0"/>
        <pt x="841" y="571" on="0"/>
        <pt x="769" y="633" on="0"/>
        <pt x="635" y="668" on="0"/>
        <pt x="522" y="668" on="1"/>
        <pt x="522" y="848" on="1"/>
        <pt x="615" y="849" on="0"/>
        <pt x="738" y="882" on="0"/>
        <pt x="811" y="940" on="0"/>
        <pt x="840" y="1022" on="0"/>
        <pt x="840" y="1071" on="1"/>
        <pt x="840" y="1177" on="0"/>
        <pt x="725" y="1284" on="0"/>
        <pt x="626" y="1284" on="1"/>
        <pt x="535" y="1284" on="0"/>
        <pt x="417" y="1189" on="0"/>
        <pt x="393" y="1114" on="1"/>
        <pt x="381" y="1075" on="0"/>
        <pt x="338" y="1041" on="0"/>
        <pt x="303" y="1041" on="1"/>
        <pt x="287" y="1041" on="0"/>
        <pt x="268" y="1044" on="1"/>
        <pt x="135" y="1068" on="1"/>
        <pt x="150" y="1175" on="0"/>
        <pt x="238" y="1335" on="0"/>
        <pt x="371" y="1443" on="0"/>
        <pt x="542" y="1497" on="0"/>
      </contour>
    </TTGlyph>
    <TTGlyph name="two" xMin="86" yMin="0" xMax="1102" yMax="1497">
      <contour>
        <pt x="616" y="1497" on="1"/>
        <pt x="719" y="1497" on="0"/>
        <pt x="889" y="1437" on="0"/>
        <pt x="1010" y="1326" on="0"/>
        <pt x="1077" y="1170" on="0"/>
        <pt x="1077" y="1075" on="1"/>
        <pt x="1077" y="993" on="0"/>
        <pt x="1029" y="854" on="0"/>
        <pt x="948" y="727" on="0"/>
        <pt x="840" y="608" on="0"/>
        <pt x="780" y="547" on="1"/>
        <pt x="446" y="206" on="1"/>
        <pt x="496" y="220" on="0"/>
        <pt x="590" y="236" on="0"/>
        <pt x="633" y="236" on="1"/>
        <pt x="1013" y="236" on="1"/>
        <pt x="1054" y="236" on="0"/>
        <pt x="1102" y="189" on="0"/>
        <pt x="1102" y="152" on="1"/>
        <pt x="1102" y="0" on="1"/>
        <pt x="86" y="0" on="1"/>
        <pt x="86" y="84" on="1"/>
        <pt x="86" y="110" on="0"/>
        <pt x="108" y="165" on="0"/>
        <pt x="131" y="188" on="1"/>
        <pt x="581" y="639" on="1"/>
        <pt x="637" y="696" on="0"/>
        <pt x="726" y="801" on="0"/>
        <pt x="786" y="903" on="0"/>
        <pt x="818" y="1009" on="0"/>
        <pt x="818" y="1067" on="1"/>
        <pt x="818" y="1120" on="0"/>
        <pt x="787" y="1201" on="0"/>
        <pt x="730" y="1256" on="0"/>
        <pt x="651" y="1284" on="0"/>
        <pt x="602" y="1284" on="1"/>
        <pt x="511" y="1284" on="0"/>
        <pt x="393" y="1192" on="0"/>
        <pt x="370" y="1114" on="1"/>
        <pt x="358" y="1075" on="0"/>
        <pt x="313" y="1041" on="0"/>
        <pt x="279" y="1041" on="1"/>
        <pt x="263" y="1041" on="0"/>
        <pt x="245" y="1044" on="1"/>
        <pt x="112" y="1068" on="1"/>
        <pt x="127" y="1175" on="0"/>
        <pt x="215" y="1335" on="0"/>
        <pt x="347" y="1443" on="0"/>
        <pt x="518" y="1497" on="0"/>
      </contour>
    </TTGlyph>
    <TTGlyph name="uni00AD" xMin="102" yMin="513" xMax="632" yMax="724">
      <contour>
        <pt x="102" y="724" on="1"/>
        <pt x="632" y="724" on="1"/>
        <pt x="632" y="513" on="1"/>
        <pt x="102" y="513" on="1"/>
      </contour>
    </TTGlyph>
    <TTGlyph name="uni1780" xMin="250" yMin="0" xMax="1330" yMax="1500">
      <contour>
        <pt x="500" y="0" on="1"/>
        <pt x="250" y="0" on="1"/>
        <pt x="250" y="700" on="1"/>
        <pt x="250" y="1200" on="0"/>
        <pt x="790" y="1200" on="1"/>
        <pt x="1330" y="1200" on="0"/>
        <pt x="1330" y="700" on="1"/>
        <pt x="1330" y="0" on="1"/>
        <pt x="1080" y="0" on="1"/>
        <pt x="1080" y="700" on="1"/>
        <pt x="1080" y="1000" on="0"/>
        <pt x="790" y="1000" on="1"/>
        <pt x="500" y="1000" on="0"/>
        <pt x="500" y="700" on="1"/>
      </contour>
      <contour>
        <pt x="1330" y="1500" on="1"/>
        <pt x="1330" y="1300" on="1"/>
        <pt x="250" y="1300" on="1"/>
        <pt x="250" y="1500" on="1"/>
      </contour>
    </TTGlyph>
    <TTGlyph name="uni1781" xMin="250" yMin="0" xMax="1330" yMax="1500">
      <contour>
        <pt x="250" y="654" on="1"/>
        <pt x="1080" y="794" on="0"/>
        <pt x="1080" y="1100" on="1"/>
        <pt x="1080" y="1300" on="0"/>
        <pt x="790" y="1300" on="1"/>
        <pt x="500" y="1300" on="0"/>
        <pt x="500" y="1100" on="1"/>
        <pt x="500" y="979" on="0"/>
        <pt x="554" y="979" on="1"/>
        <pt x="588" y="979" on="0"/>
        <pt x="710" y="1015" on="1"/>
        <pt x="710" y="862" on="1"/>
        <pt x="655" y="821" on="0"/>
        <pt x="568" y="821" on="1"/>
        <pt x="250" y="821" on="0"/>
        <pt x="250" y="1100" on="1"/>
        <pt x="250" y="1500" on="0"/>
        <pt x="790" y="1500" on="1"/>
        <pt x="1330" y="1500" on="0"/>
        <pt x="1330" y="1100" on="1"/>
        <pt x="1330" y="687" on="0"/>
        <pt x="500" y="507" on="1"/>
        <pt x="500" y="400" on="1"/>
        <pt x="500" y="200" on="0"/>
        <pt x="790" y="200" on="1"/>
        <pt x="1080" y="200" on="0"/>
        <pt x="1080" y="400" on="1"/>
        <pt x="1080" y="560" on="0"/>
        <pt x="963" y="611" on="1"/>
        <pt x="1151" y="711" on="1"/>
        <pt x="1330" y="589" on="0"/>
        <pt x="1330" y="400" on="1"/>
        <pt x="1330" y="0" on="0"/>
        <pt x="790" y="0" on="1"/>
        <pt x="250" y="0" on="0"/>
        <pt x="250" y="400" on="1"/>
      </contour>
    </TTGlyph>
    <TTGlyph name="uni1782" xMin="250" yMin="0" xMax="1330" yMax="1500">
      <contour>
        <pt x="1330" y="1500" on="1"/>
        <pt x="1330" y="1300" on="1"/>
        <pt x="250" y="1300" on="1"/>
        <pt x="250" y="1500" on="1"/>
      </contour>
      <contour>
        <pt x="499" y="400" on="1"/>
        <pt x="600" y="500" on="0"/>
        <pt x="700" y="500" on="1"/>
        <pt x="830" y="500" on="1"/>
        <pt x="830" y="290" on="1"/>
        <pt x="700" y="290" on="1"/>
        <pt x="571" y="290" on="0"/>
        <pt x="500" y="148" on="1"/>
        <pt x="500" y="0" on="1"/>
        <pt x="250" y="0" on="1"/>
        <pt x="250" y="700" on="1"/>
        <pt x="250" y="1200" on="0"/>
        <pt x="790" y="1200" on="1"/>
        <pt x="1330" y="1200" on="0"/>
        <pt x="1330" y="700" on="1"/>
        <pt x="1330" y="0" on="1"/>
        <pt x="1080" y="0" on="1"/>
        <pt x="1080" y="700" on="1"/>
        <pt x="1080" y="1000" on="0"/>
        <pt x="790" y="1000" on="1"/>
        <pt x="500" y="1000" on="0"/>
        <pt x="500" y="700" on="1"/>
      </contour>
    </TTGlyph>
    <TTGlyph name="uni1783" xMin="100" yMin="0" xMax="2080" yMax="1500">
      <contour>
        <pt x="300" y="1329" on="1"/>
        <pt x="269" y="1329" on="0"/>
        <pt x="250" y="1302" on="0"/>
        <pt x="250" y="1273" on="1"/>
        <pt x="250" y="1243" on="0"/>
        <pt x="269" y="1217" on="0"/>
        <pt x="300" y="1215" on="1"/>
      </contour>
      <contour>
        <pt x="250" y="1044" on="1"/>
        <pt x="174" y="1050" on="0"/>
        <pt x="100" y="1157" on="0"/>
        <pt x="100" y="1275" on="1"/>
        <pt x="100" y="1393" on="0"/>
        <pt x="174" y="1500" on="0"/>
        <pt x="300" y="1500" on="1"/>
        <pt x="426" y="1500" on="0"/>
        <pt x="500" y="1393" on="0"/>
        <pt x="500" y="1275" on="1"/>
        <pt x="500" y="500" on="1"/>
        <pt x="500" y="200" on="0"/>
        <pt x="740" y="200" on="1"/>
        <pt x="1015" y="200" on="0"/>
        <pt x="1015" y="500" on="1"/>
        <pt x="1015" y="1100" on="1"/>
        <pt x="1015" y="1182" on="0"/>
        <pt x="915" y="1262" on="1"/>
        <pt x="915" y="1350" on="1"/>
        <pt x="915" y="1500" on="0"/>
        <pt x="1105" y="1500" on="1"/>
        <pt x="1315" y="1500" on="1"/>
        <pt x="1315" y="1300" on="1"/>
        <pt x="1145" y="1300" on="1"/>
        <pt x="1145" y="1288" on="1"/>
        <pt x="1265" y="1208" on="0"/>
        <pt x="1265" y="1100" on="1"/>
        <pt x="1265" y="500" on="1"/>
        <pt x="1265" y="200" on="0"/>
        <pt x="1540" y="200" on="1"/>
        <pt x="1780" y="200" on="0"/>
        <pt x="1780" y="500" on="1"/>
        <pt x="1780" y="1100" on="1"/>
        <pt x="1780" y="1182" on="0"/>
        <pt x="1680" y="1262" on="1"/>
        <pt x="1680" y="1350" on="1"/>
        <pt x="1680" y="1500" on="0"/>
        <pt x="1870" y="1500" on="1"/>
        <pt x="2080" y="1500" on="1"/>
        <pt x="2080" y="1300" on="1"/>
        <pt x="1910" y="1300" on="1"/>
        <pt x="1910" y="1288" on="1"/>
        <pt x="2030" y="1208" on="0"/>
        <pt x="2030" y="1100" on="1"/>
        <pt x="2030" y="500" on="1"/>
        <pt x="2030" y="0" on="0"/>
        <pt x="1540" y="0" on="1"/>
        <pt x="1204" y="0" on="0"/>
        <pt x="1140" y="141" on="1"/>
        <pt x="1076" y="0" on="0"/>
        <pt x="740" y="0" on="1"/>
        <pt x="250" y="0" on="0"/>
        <pt x="250" y="500" on="1"/>
      </contour>
    </TTGlyph>
    <TTGlyph name="uni1784" xMin="100" yMin="0" xMax="1330" yMax="1800">
      <contour>
        <pt x="300" y="729" on="1"/>
        <pt x="269" y="729" on="0"/>
        <pt x="250" y="702" on="0"/>
        <pt x="250" y="673" on="1"/>
        <pt x="250" y="643" on="0"/>
        <pt x="269" y="617" on="0"/>
        <pt x="300" y="615" on="1"/>
      </contour>
      <contour>
        <pt x="500" y="261" on="1"/>
        <pt x="790" y="524" on="1"/>
        <pt x="1080" y="261" on="1"/>
        <pt x="1080" y="850" on="1"/>
        <pt x="1080" y="970" on="0"/>
        <pt x="963" y="1057" on="1"/>
        <pt x="904" y="1000" on="0"/>
        <pt x="680" y="1000" on="1"/>
        <pt x="440" y="1000" on="0"/>
        <pt x="250" y="1126" on="0"/>
        <pt x="250" y="1265" on="1"/>
        <pt x="250" y="1357" on="0"/>
        <pt x="330" y="1482" on="0"/>
        <pt x="330" y="1545" on="1"/>
        <pt x="330" y="1600" on="0"/>
        <pt x="200" y="1600" on="1"/>
        <pt x="200" y="1800" on="1"/>
        <pt x="560" y="1800" on="0"/>
        <pt x="560" y="1610" on="1"/>
        <pt x="560" y="1543" on="0"/>
        <pt x="480" y="1358" on="0"/>
        <pt x="480" y="1311" on="1"/>
        <pt x="480" y="1259" on="0"/>
        <pt x="563" y="1200" on="0"/>
        <pt x="687" y="1200" on="1"/>
        <pt x="794" y="1200" on="0"/>
        <pt x="847" y="1231" on="1"/>
        <pt x="780" y="1286" on="0"/>
        <pt x="780" y="1360" on="1"/>
        <pt x="780" y="1500" on="0"/>
        <pt x="1000" y="1500" on="1"/>
        <pt x="1230" y="1500" on="0"/>
        <pt x="1230" y="1330" on="1"/>
        <pt x="1230" y="1255" on="0"/>
        <pt x="1136" y="1182" on="1"/>
        <pt x="1330" y="1041" on="0"/>
        <pt x="1330" y="900" on="1"/>
        <pt x="1330" y="0" on="1"/>
        <pt x="1062" y="0" on="1"/>
        <pt x="790" y="272" on="1"/>
        <pt x="518" y="0" on="1"/>
        <pt x="250" y="0" on="1"/>
        <pt x="250" y="444" on="1"/>
        <pt x="174" y="450" on="0"/>
        <pt x="100" y="557" on="0"/>
        <pt x="100" y="675" on="1"/>
        <pt x="100" y="793" on="0"/>
        <pt x="174" y="900" on="0"/>
        <pt x="300" y="900" on="1"/>
        <pt x="426" y="900" on="0"/>
        <pt x="500" y="793" on="0"/>
        <pt x="500" y="675" on="1"/>
      </contour>
      <contour>
        <pt x="998" y="1279" on="1"/>
        <pt x="1029" y="1301" on="1"/>
        <pt x="1046" y="1315" on="0"/>
        <pt x="1046" y="1328" on="1"/>
        <pt x="1046" y="1359" on="0"/>
        <pt x="1004" y="1359" on="1"/>
        <pt x="964" y="1359" on="0"/>
        <pt x="964" y="1334" on="1"/>
        <pt x="964" y="1320" on="0"/>
        <pt x="976" y="1310" on="1"/>
      </contour>
    </TTGlyph>
    <TTGlyph name="uni1785" xMin="200" yMin="0" xMax="1330" yMax="1500">
      <contour>
        <pt x="1130" y="960" on="1"/>
        <pt x="1106" y="960" on="0"/>
        <pt x="1090" y="939" on="0"/>
        <pt x="1090" y="926" on="1"/>
        <pt x="1090" y="913" on="0"/>
        <pt x="1097" y="905" on="1"/>
        <pt x="1105" y="894" on="0"/>
        <pt x="1130" y="894" on="1"/>
      </contour>
      <contour>
        <pt x="250" y="1100" on="1"/>
        <pt x="250" y="1180" on="0"/>
        <pt x="200" y="1260" on="1"/>
        <pt x="200" y="1300" on="1"/>
        <pt x="200" y="1500" on="0"/>
        <pt x="440" y="1500" on="1"/>
        <pt x="1330" y="1500" on="1"/>
        <pt x="1330" y="1300" on="1"/>
        <pt x="510" y="1300" on="1"/>
        <pt x="450" y="1300" on="0"/>
        <pt x="450" y="1280" on="1"/>
        <pt x="500" y="1200" on="0"/>
        <pt x="500" y="1100" on="1"/>
        <pt x="500" y="500" on="1"/>
        <pt x="500" y="200" on="0"/>
        <pt x="790" y="200" on="1"/>
        <pt x="1080" y="200" on="0"/>
        <pt x="1080" y="500" on="1"/>
        <pt x="1080" y="753" on="1"/>
        <pt x="1000" y="756" on="0"/>
        <pt x="956" y="814" on="1"/>
        <pt x="920" y="858" on="0"/>
        <pt x="920" y="925" on="1"/>
        <pt x="920" y="992" on="0"/>
        <pt x="1006" y="1100" on="0"/>
        <pt x="1130" y="1100" on="1"/>
        <pt x="1244" y="1100" on="0"/>
        <pt x="1330" y="992" on="0"/>
        <pt x="1330" y="925" on="1"/>
        <pt x="1330" y="500" on="1"/>
        <pt x="1330" y="0" on="0"/>
        <pt x="790" y="0" on="1"/>
        <pt x="250" y="0" on="0"/>
        <pt x="250" y="500" on="1"/>
      </contour>
    </TTGlyph>
    <TTGlyph name="uni1786" xMin="200" yMin="0" xMax="1330" yMax="1500">
      <contour>
        <pt x="1130" y="960" on="1"/>
        <pt x="1106" y="960" on="0"/>
        <pt x="1090" y="939" on="0"/>
        <pt x="1090" y="926" on="1"/>
        <pt x="1090" y="913" on="0"/>
        <pt x="1097" y="905" on="1"/>
        <pt x="1105" y="894" on="0"/>
        <pt x="1130" y="894" on="1"/>
      </contour>
      <contour>
        <pt x="250" y="1100" on="1"/>
        <pt x="250" y="1180" on="0"/>
        <pt x="200" y="1260" on="1"/>
        <pt x="200" y="1300" on="1"/>
        <pt x="200" y="1500" on="0"/>
        <pt x="440" y="1500" on="1"/>
        <pt x="1330" y="1500" on="1"/>
        <pt x="1330" y="1300" on="1"/>
        <pt x="510" y="1300" on="1"/>
        <pt x="450" y="1300" on="0"/>
        <pt x="450" y="1280" on="1"/>
        <pt x="500" y="1200" on="0"/>
        <pt x="500" y="1100" on="1"/>
        <pt x="500" y="500" on="1"/>
        <pt x="605" y="500" on="1"/>
        <pt x="840" y="500" on="0"/>
        <pt x="840" y="300" on="1"/>
        <pt x="840" y="200" on="0"/>
        <pt x="960" y="200" on="1"/>
        <pt x="1080" y="200" on="0"/>
        <pt x="1080" y="300" on="1"/>
        <pt x="1080" y="753" on="1"/>
        <pt x="1000" y="756" on="0"/>
        <pt x="956" y="814" on="1"/>
        <pt x="920" y="858" on="0"/>
        <pt x="920" y="925" on="1"/>
        <pt x="920" y="992" on="0"/>
        <pt x="1006" y="1100" on="0"/>
        <pt x="1130" y="1100" on="1"/>
        <pt x="1244" y="1100" on="0"/>
        <pt x="1330" y="992" on="0"/>
        <pt x="1330" y="925" on="1"/>
        <pt x="1330" y="300" on="1"/>
        <pt x="1330" y="0" on="0"/>
        <pt x="990" y="0" on="1"/>
        <pt x="590" y="0" on="0"/>
        <pt x="590" y="200" on="1"/>
        <pt x="590" y="300" on="0"/>
        <pt x="545" y="300" on="1"/>
        <pt x="500" y="300" on="0"/>
        <pt x="500" y="210" on="1"/>
        <pt x="500" y="0" on="1"/>
        <pt x="250" y="0" on="1"/>
      </contour>
    </TTGlyph>
    <TTGlyph name="uni1787" xMin="200" yMin="0" xMax="1330" yMax="1650">
      <contour>
        <pt x="250" y="1100" on="1"/>
        <pt x="250" y="1180" on="0"/>
        <pt x="200" y="1260" on="1"/>
        <pt x="200" y="1300" on="1"/>
        <pt x="200" y="1500" on="0"/>
        <pt x="440" y="1500" on="1"/>
        <pt x="762" y="1500" on="1"/>
        <pt x="992" y="1400" on="1"/>
        <pt x="1050" y="1400" on="1"/>
        <pt x="1080" y="1400" on="0"/>
        <pt x="1080" y="1420" on="1"/>
        <pt x="1080" y="1650" on="1"/>
        <pt x="1330" y="1650" on="1"/>
        <pt x="1330" y="1420" on="1"/>
        <pt x="1330" y="1200" on="0"/>
        <pt x="1120" y="1200" on="1"/>
        <pt x="918" y="1200" on="1"/>
        <pt x="688" y="1300" on="1"/>
        <pt x="510" y="1300" on="1"/>
        <pt x="450" y="1300" on="0"/>
        <pt x="450" y="1280" on="1"/>
        <pt x="500" y="1200" on="0"/>
        <pt x="500" y="1100" on="1"/>
        <pt x="500" y="306" on="1"/>
        <pt x="790" y="552" on="1"/>
        <pt x="1080" y="306" on="1"/>
        <pt x="1080" y="1100" on="1"/>
        <pt x="1330" y="1100" on="1"/>
        <pt x="1330" y="0" on="1"/>
        <pt x="1114" y="0" on="1"/>
        <pt x="790" y="278" on="1"/>
        <pt x="466" y="0" on="1"/>
        <pt x="250" y="0" on="1"/>
      </contour>
    </TTGlyph>
    <TTGlyph name="uni1788" xMin="250" yMin="0" xMax="2580" yMax="1500">
      <contour>
        <pt x="450" y="171" on="1"/>
        <pt x="481" y="171" on="0"/>
        <pt x="500" y="198" on="0"/>
        <pt x="500" y="227" on="1"/>
        <pt x="500" y="257" on="0"/>
        <pt x="481" y="283" on="0"/>
        <pt x="450" y="285" on="1"/>
      </contour>
      <contour>
        <pt x="250" y="1000" on="1"/>
        <pt x="250" y="1500" on="0"/>
        <pt x="708" y="1500" on="1"/>
        <pt x="1165" y="1500" on="0"/>
        <pt x="1165" y="1000" on="1"/>
        <pt x="1165" y="500" on="1"/>
        <pt x="1165" y="200" on="0"/>
        <pt x="1390" y="200" on="1"/>
        <pt x="1615" y="200" on="0"/>
        <pt x="1615" y="500" on="1"/>
        <pt x="1615" y="1100" on="1"/>
        <pt x="1615" y="1182" on="0"/>
        <pt x="1515" y="1262" on="1"/>
        <pt x="1515" y="1350" on="1"/>
        <pt x="1515" y="1500" on="0"/>
        <pt x="1705" y="1500" on="1"/>
        <pt x="1915" y="1500" on="1"/>
        <pt x="1915" y="1300" on="1"/>
        <pt x="1745" y="1300" on="1"/>
        <pt x="1745" y="1288" on="1"/>
        <pt x="1865" y="1208" on="0"/>
        <pt x="1865" y="1100" on="1"/>
        <pt x="1865" y="500" on="1"/>
        <pt x="1865" y="200" on="0"/>
        <pt x="2090" y="200" on="1"/>
        <pt x="2280" y="200" on="0"/>
        <pt x="2280" y="500" on="1"/>
        <pt x="2280" y="1100" on="1"/>
        <pt x="2280" y="1182" on="0"/>
        <pt x="2180" y="1262" on="1"/>
        <pt x="2180" y="1350" on="1"/>
        <pt x="2180" y="1500" on="0"/>
        <pt x="2370" y="1500" on="1"/>
        <pt x="2580" y="1500" on="1"/>
        <pt x="2580" y="1300" on="1"/>
        <pt x="2410" y="1300" on="1"/>
        <pt x="2410" y="1288" on="1"/>
        <pt x="2530" y="1208" on="0"/>
        <pt x="2530" y="1100" on="1"/>
        <pt x="2530" y="500" on="1"/>
        <pt x="2530" y="0" on="0"/>
        <pt x="2090" y="0" on="1"/>
        <pt x="1804" y="0" on="0"/>
        <pt x="1740" y="141" on="1"/>
        <pt x="1676" y="0" on="0"/>
        <pt x="1390" y="0" on="1"/>
        <pt x="915" y="0" on="0"/>
        <pt x="915" y="500" on="1"/>
        <pt x="915" y="1000" on="1"/>
        <pt x="915" y="1300" on="0"/>
        <pt x="708" y="1300" on="1"/>
        <pt x="500" y="1300" on="0"/>
        <pt x="500" y="1000" on="1"/>
        <pt x="500" y="456" on="1"/>
        <pt x="576" y="450" on="0"/>
        <pt x="650" y="343" on="0"/>
        <pt x="650" y="225" on="1"/>
        <pt x="650" y="127" on="0"/>
        <pt x="546" y="0" on="0"/>
        <pt x="450" y="0" on="1"/>
        <pt x="354" y="0" on="0"/>
        <pt x="250" y="117" on="0"/>
        <pt x="250" y="225" on="1"/>
      </contour>
    </TTGlyph>
    <TTGlyph name="uni1789" xMin="250" yMin="-500" xMax="2030" yMax="1527">
      <contour>
        <pt x="450" y="171" on="1"/>
        <pt x="481" y="171" on="0"/>
        <pt x="500" y="198" on="0"/>
        <pt x="500" y="227" on="1"/>
        <pt x="500" y="257" on="0"/>
        <pt x="481" y="283" on="0"/>
        <pt x="450" y="285" on="1"/>
      </contour>
      <contour>
        <pt x="1751" y="-207" on="1"/>
        <pt x="1640" y="-170" on="0"/>
        <pt x="1640" y="-114" on="1"/>
        <pt x="1640" y="-50" on="0"/>
        <pt x="1802" y="-50" on="1"/>
        <pt x="2030" y="-50" on="0"/>
        <pt x="2030" y="-230" on="1"/>
        <pt x="2030" y="-500" on="0"/>
        <pt x="1240" y="-500" on="1"/>
        <pt x="820" y="-500" on="0"/>
        <pt x="470" y="-300" on="0"/>
        <pt x="250" y="-300" on="1"/>
        <pt x="250" y="-100" on="1"/>
        <pt x="560" y="-100" on="0"/>
        <pt x="910" y="-300" on="0"/>
        <pt x="1240" y="-300" on="1"/>
        <pt x="1580" y="-300" on="0"/>
        <pt x="1790" y="-248" on="0"/>
        <pt x="1790" y="-209" on="1"/>
        <pt x="1790" y="-193" on="0"/>
        <pt x="1780" y="-193" on="1"/>
        <pt x="1770" y="-193" on="0"/>
      </contour>
      <contour>
        <pt x="1203" y="1336" on="1"/>
        <pt x="1506" y="1500" on="1"/>
        <pt x="1590" y="1500" on="1"/>
        <pt x="2030" y="1500" on="0"/>
        <pt x="2030" y="1100" on="1"/>
        <pt x="2030" y="0" on="1"/>
        <pt x="1780" y="0" on="1"/>
        <pt x="1780" y="1100" on="1"/>
        <pt x="1780" y="1300" on="0"/>
        <pt x="1590" y="1300" on="1"/>
        <pt x="1567" y="1300" on="1"/>
        <pt x="1330" y="1187" on="1"/>
        <pt x="1330" y="0" on="1"/>
        <pt x="1080" y="0" on="1"/>
        <pt x="1080" y="1121" on="1"/>
        <pt x="1009" y="1210" on="1"/>
        <pt x="790" y="1053" on="1"/>
        <pt x="571" y="1210" on="1"/>
        <pt x="500" y="1121" on="1"/>
        <pt x="500" y="456" on="1"/>
        <pt x="576" y="450" on="0"/>
        <pt x="650" y="343" on="0"/>
        <pt x="650" y="225" on="1"/>
        <pt x="650" y="127" on="0"/>
        <pt x="546" y="0" on="0"/>
        <pt x="450" y="0" on="1"/>
        <pt x="354" y="0" on="0"/>
        <pt x="250" y="117" on="0"/>
        <pt x="250" y="225" on="1"/>
        <pt x="250" y="1189" on="1"/>
        <pt x="543" y="1527" on="1"/>
        <pt x="790" y="1321" on="1"/>
        <pt x="1037" y="1527" on="1"/>
      </contour>
    </TTGlyph>
    <TTGlyph name="uni1789.a" xMin="250" yMin="0" xMax="2030" yMax="1527">
      <contour>
        <pt x="450" y="171" on="1"/>
        <pt x="481" y="171" on="0"/>
        <pt x="500" y="198" on="0"/>
        <pt x="500" y="227" on="1"/>
        <pt x="500" y="257" on="0"/>
        <pt x="481" y="283" on="0"/>
        <pt x="450" y="285" on="1"/>
      </contour>
      <contour>
        <pt x="1203" y="1336" on="1"/>
        <pt x="1506" y="1500" on="1"/>
        <pt x="1590" y="1500" on="1"/>
        <pt x="2030" y="1500" on="0"/>
        <pt x="2030" y="1100" on="1"/>
        <pt x="2030" y="0" on="1"/>
        <pt x="1780" y="0" on="1"/>
        <pt x="1780" y="1100" on="1"/>
        <pt x="1780" y="1300" on="0"/>
        <pt x="1590" y="1300" on="1"/>
        <pt x="1567" y="1300" on="1"/>
        <pt x="1330" y="1187" on="1"/>
        <pt x="1330" y="0" on="1"/>
        <pt x="1080" y="0" on="1"/>
        <pt x="1080" y="1121" on="1"/>
        <pt x="1009" y="1210" on="1"/>
        <pt x="790" y="1053" on="1"/>
        <pt x="571" y="1210" on="1"/>
        <pt x="500" y="1121" on="1"/>
        <pt x="500" y="456" on="1"/>
        <pt x="576" y="450" on="0"/>
        <pt x="650" y="343" on="0"/>
        <pt x="650" y="225" on="1"/>
        <pt x="650" y="127" on="0"/>
        <pt x="546" y="0" on="0"/>
        <pt x="450" y="0" on="1"/>
        <pt x="354" y="0" on="0"/>
        <pt x="250" y="117" on="0"/>
        <pt x="250" y="225" on="1"/>
        <pt x="250" y="1189" on="1"/>
        <pt x="543" y="1527" on="1"/>
        <pt x="790" y="1321" on="1"/>
        <pt x="1037" y="1527" on="1"/>
      </contour>
    </TTGlyph>
    <TTGlyph name="uni178917C917B617C6" xMin="250" yMin="-1200" xMax="2730" yMax="2250">
      <contour>
        <pt x="450" y="171" on="1"/>
        <pt x="481" y="171" on="0"/>
        <pt x="500" y="198" on="0"/>
        <pt x="500" y="227" on="1"/>
        <pt x="500" y="257" on="0"/>
        <pt x="481" y="283" on="0"/>
        <pt x="450" y="285" on="1"/>
      </contour>
      <contour>
        <pt x="1751" y="-207" on="1"/>
        <pt x="1640" y="-170" on="0"/>
        <pt x="1640" y="-114" on="1"/>
        <pt x="1640" y="-50" on="0"/>
        <pt x="1802" y="-50" on="1"/>
        <pt x="2030" y="-50" on="0"/>
        <pt x="2030" y="-230" on="1"/>
        <pt x="2030" y="-500" on="0"/>
        <pt x="1240" y="-500" on="1"/>
        <pt x="820" y="-500" on="0"/>
        <pt x="470" y="-300" on="0"/>
        <pt x="250" y="-300" on="1"/>
        <pt x="250" y="-100" on="1"/>
        <pt x="560" y="-100" on="0"/>
        <pt x="910" y="-300" on="0"/>
        <pt x="1240" y="-300" on="1"/>
        <pt x="1580" y="-300" on="0"/>
        <pt x="1790" y="-248" on="0"/>
        <pt x="1790" y="-209" on="1"/>
        <pt x="1790" y="-193" on="0"/>
        <pt x="1780" y="-193" on="1"/>
        <pt x="1770" y="-193" on="0"/>
      </contour>
      <contour>
        <pt x="2030" y="1500" on="1"/>
        <pt x="2220" y="1500" on="1"/>
        <pt x="2730" y="1500" on="0"/>
        <pt x="2730" y="1100" on="1"/>
        <pt x="2730" y="0" on="1"/>
        <pt x="2480" y="0" on="1"/>
        <pt x="2480" y="1100" on="1"/>
        <pt x="2480" y="1300" on="0"/>
        <pt x="2220" y="1300" on="1"/>
        <pt x="2030" y="1300" on="1"/>
      </contour>
      <contour>
        <pt x="1203" y="1336" on="1"/>
        <pt x="1506" y="1500" on="1"/>
        <pt x="1590" y="1500" on="1"/>
        <pt x="2030" y="1500" on="0"/>
        <pt x="2030" y="1100" on="1"/>
        <pt x="2030" y="0" on="1"/>
        <pt x="1780" y="0" on="1"/>
        <pt x="1780" y="1100" on="1"/>
        <pt x="1780" y="1300" on="0"/>
        <pt x="1590" y="1300" on="1"/>
        <pt x="1567" y="1300" on="1"/>
        <pt x="1330" y="1187" on="1"/>
        <pt x="1330" y="0" on="1"/>
        <pt x="1080" y="0" on="1"/>
        <pt x="1080" y="1121" on="1"/>
        <pt x="1009" y="1210" on="1"/>
        <pt x="790" y="1053" on="1"/>
        <pt x="571" y="1210" on="1"/>
        <pt x="500" y="1121" on="1"/>
        <pt x="500" y="456" on="1"/>
        <pt x="576" y="450" on="0"/>
        <pt x="650" y="343" on="0"/>
        <pt x="650" y="225" on="1"/>
        <pt x="650" y="127" on="0"/>
        <pt x="546" y="0" on="0"/>
        <pt x="450" y="0" on="1"/>
        <pt x="354" y="0" on="0"/>
        <pt x="250" y="117" on="0"/>
        <pt x="250" y="225" on="1"/>
        <pt x="250" y="1189" on="1"/>
        <pt x="543" y="1527" on="1"/>
        <pt x="790" y="1321" on="1"/>
        <pt x="1037" y="1527" on="1"/>
      </contour>
      <contour>
        <pt x="2245" y="2025" on="1"/>
        <pt x="2245" y="2000" on="0"/>
        <pt x="2258" y="1988" on="1"/>
        <pt x="2270" y="1975" on="0"/>
        <pt x="2295" y="1975" on="1"/>
        <pt x="2320" y="1975" on="0"/>
        <pt x="2333" y="1988" on="1"/>
        <pt x="2345" y="2000" on="0"/>
        <pt x="2345" y="2025" on="1"/>
        <pt x="2345" y="2050" on="0"/>
        <pt x="2333" y="2062" on="1"/>
        <pt x="2320" y="2075" on="0"/>
        <pt x="2295" y="2075" on="1"/>
        <pt x="2270" y="2075" on="0"/>
        <pt x="2258" y="2062" on="1"/>
        <pt x="2245" y="2050" on="0"/>
      </contour>
      <contour>
        <pt x="2520" y="2025" on="1"/>
        <pt x="2520" y="1912" on="0"/>
        <pt x="2464" y="1856" on="1"/>
        <pt x="2408" y="1800" on="0"/>
        <pt x="2295" y="1800" on="1"/>
        <pt x="2182" y="1800" on="0"/>
        <pt x="2126" y="1856" on="1"/>
        <pt x="2070" y="1912" on="0"/>
        <pt x="2070" y="2025" on="1"/>
        <pt x="2070" y="2138" on="0"/>
        <pt x="2126" y="2194" on="1"/>
        <pt x="2182" y="2250" on="0"/>
        <pt x="2295" y="2250" on="1"/>
        <pt x="2408" y="2250" on="0"/>
        <pt x="2464" y="2194" on="1"/>
        <pt x="2520" y="2138" on="0"/>
      </contour>
      <contour>
        <pt x="2030" y="-700" on="1"/>
        <pt x="2030" y="-1200" on="1"/>
        <pt x="1780" y="-1200" on="1"/>
        <pt x="1780" y="-700" on="1"/>
      </contour>
    </TTGlyph>
    <TTGlyph name="uni178A" xMin="250" yMin="0" xMax="1330" yMax="1650">
      <contour>
        <pt x="250" y="1050" on="1"/>
        <pt x="500" y="1050" on="1"/>
        <pt x="500" y="311" on="1"/>
        <pt x="790" y="574" on="1"/>
        <pt x="1080" y="311" on="1"/>
        <pt x="1080" y="1050" on="1"/>
        <pt x="1330" y="1050" on="1"/>
        <pt x="1330" y="0" on="1"/>
        <pt x="1114" y="0" on="1"/>
        <pt x="790" y="278" on="1"/>
        <pt x="466" y="0" on="1"/>
        <pt x="250" y="0" on="1"/>
      </contour>
      <contour>
        <pt x="500" y="1341" on="1"/>
        <pt x="500" y="1320" on="0"/>
        <pt x="790" y="1320" on="1"/>
        <pt x="1080" y="1320" on="0"/>
        <pt x="1080" y="1500" on="1"/>
        <pt x="1080" y="1650" on="1"/>
        <pt x="1330" y="1650" on="1"/>
        <pt x="1330" y="1500" on="1"/>
        <pt x="1330" y="1120" on="0"/>
        <pt x="790" y="1120" on="1"/>
        <pt x="250" y="1120" on="0"/>
        <pt x="250" y="1340" on="1"/>
        <pt x="250" y="1500" on="0"/>
        <pt x="456" y="1500" on="1"/>
        <pt x="585" y="1500" on="0"/>
        <pt x="640" y="1459" on="1"/>
        <pt x="640" y="1346" on="1"/>
        <pt x="518" y="1362" on="0"/>
        <pt x="509" y="1362" on="1"/>
        <pt x="500" y="1362" on="0"/>
      </contour>
    </TTGlyph>
    <TTGlyph name="uni178B" xMin="100" yMin="0" xMax="1480" yMax="1650">
      <contour>
        <pt x="300" y="1329" on="1"/>
        <pt x="269" y="1329" on="0"/>
        <pt x="250" y="1302" on="0"/>
        <pt x="250" y="1273" on="1"/>
        <pt x="250" y="1243" on="0"/>
        <pt x="269" y="1217" on="0"/>
        <pt x="300" y="1215" on="1"/>
      </contour>
      <contour>
        <pt x="500" y="500" on="1"/>
        <pt x="500" y="200" on="0"/>
        <pt x="790" y="200" on="1"/>
        <pt x="1080" y="200" on="0"/>
        <pt x="1080" y="500" on="1"/>
        <pt x="1080" y="1100" on="1"/>
        <pt x="1080" y="1182" on="0"/>
        <pt x="980" y="1262" on="1"/>
        <pt x="980" y="1350" on="1"/>
        <pt x="980" y="1500" on="0"/>
        <pt x="1170" y="1500" on="1"/>
        <pt x="1200" y="1500" on="1"/>
        <pt x="1250" y="1430" on="1"/>
        <pt x="1250" y="1650" on="1"/>
        <pt x="1480" y="1650" on="1"/>
        <pt x="1480" y="1470" on="1"/>
        <pt x="1480" y="1300" on="0"/>
        <pt x="1270" y="1300" on="1"/>
        <pt x="1210" y="1300" on="1"/>
        <pt x="1210" y="1288" on="1"/>
        <pt x="1330" y="1208" on="0"/>
        <pt x="1330" y="1100" on="1"/>
        <pt x="1330" y="500" on="1"/>
        <pt x="1330" y="0" on="0"/>
        <pt x="790" y="0" on="1"/>
        <pt x="250" y="0" on="0"/>
        <pt x="250" y="500" on="1"/>
        <pt x="250" y="1044" on="1"/>
        <pt x="174" y="1050" on="0"/>
        <pt x="100" y="1157" on="0"/>
        <pt x="100" y="1275" on="1"/>
        <pt x="100" y="1393" on="0"/>
        <pt x="174" y="1500" on="0"/>
        <pt x="300" y="1500" on="1"/>
        <pt x="426" y="1500" on="0"/>
        <pt x="500" y="1393" on="0"/>
        <pt x="500" y="1275" on="1"/>
      </contour>
    </TTGlyph>
    <TTGlyph name="uni178C" xMin="250" yMin="0" xMax="1330" yMax="1528">
      <contour>
        <pt x="500" y="1100" on="1"/>
        <pt x="500" y="1029" on="0"/>
        <pt x="554" y="1029" on="1"/>
        <pt x="588" y="1029" on="0"/>
        <pt x="710" y="1065" on="1"/>
        <pt x="710" y="862" on="1"/>
        <pt x="655" y="821" on="0"/>
        <pt x="568" y="821" on="1"/>
        <pt x="250" y="821" on="0"/>
        <pt x="250" y="1100" on="1"/>
        <pt x="250" y="1179" on="1"/>
        <pt x="542" y="1528" on="1"/>
        <pt x="790" y="1321" on="1"/>
        <pt x="1038" y="1528" on="1"/>
        <pt x="1330" y="1179" on="1"/>
        <pt x="1330" y="1100" on="1"/>
        <pt x="1330" y="687" on="0"/>
        <pt x="500" y="507" on="1"/>
        <pt x="500" y="400" on="1"/>
        <pt x="500" y="200" on="0"/>
        <pt x="570" y="200" on="1"/>
        <pt x="700" y="200" on="0"/>
        <pt x="1080" y="468" on="1"/>
        <pt x="1080" y="600" on="1"/>
        <pt x="1330" y="600" on="1"/>
        <pt x="1330" y="0" on="1"/>
        <pt x="1080" y="0" on="1"/>
        <pt x="1080" y="242" on="1"/>
        <pt x="802" y="0" on="0"/>
        <pt x="570" y="0" on="1"/>
        <pt x="250" y="0" on="0"/>
        <pt x="250" y="400" on="1"/>
        <pt x="250" y="654" on="1"/>
        <pt x="1080" y="794" on="0"/>
        <pt x="1080" y="1100" on="1"/>
        <pt x="1080" y="1141" on="1"/>
        <pt x="1011" y="1227" on="1"/>
        <pt x="790" y="1050" on="1"/>
        <pt x="569" y="1227" on="1"/>
        <pt x="500" y="1141" on="1"/>
      </contour>
    </TTGlyph>
    <TTGlyph name="uni178D" xMin="250" yMin="0" xMax="2080" yMax="1528">
      <contour>
        <pt x="450" y="171" on="1"/>
        <pt x="481" y="171" on="0"/>
        <pt x="500" y="198" on="0"/>
        <pt x="500" y="227" on="1"/>
        <pt x="500" y="257" on="0"/>
        <pt x="481" y="283" on="0"/>
        <pt x="450" y="285" on="1"/>
      </contour>
      <contour>
        <pt x="250" y="1179" on="1"/>
        <pt x="542" y="1528" on="1"/>
        <pt x="790" y="1321" on="1"/>
        <pt x="1038" y="1528" on="1"/>
        <pt x="1330" y="1179" on="1"/>
        <pt x="1330" y="500" on="1"/>
        <pt x="1640" y="500" on="0"/>
        <pt x="1640" y="300" on="1"/>
        <pt x="1640" y="200" on="0"/>
        <pt x="1710" y="200" on="1"/>
        <pt x="1780" y="200" on="0"/>
        <pt x="1780" y="300" on="1"/>
        <pt x="1780" y="1100" on="1"/>
        <pt x="1780" y="1182" on="0"/>
        <pt x="1680" y="1262" on="1"/>
        <pt x="1680" y="1350" on="1"/>
        <pt x="1680" y="1500" on="0"/>
        <pt x="1870" y="1500" on="1"/>
        <pt x="2080" y="1500" on="1"/>
        <pt x="2080" y="1300" on="1"/>
        <pt x="1910" y="1300" on="1"/>
        <pt x="1910" y="1288" on="1"/>
        <pt x="2030" y="1208" on="0"/>
        <pt x="2030" y="1100" on="1"/>
        <pt x="2030" y="250" on="1"/>
        <pt x="2030" y="0" on="0"/>
        <pt x="1740" y="0" on="1"/>
        <pt x="1390" y="0" on="0"/>
        <pt x="1390" y="200" on="1"/>
        <pt x="1390" y="300" on="0"/>
        <pt x="1340" y="300" on="1"/>
        <pt x="1330" y="300" on="1"/>
        <pt x="1330" y="0" on="1"/>
        <pt x="1080" y="0" on="1"/>
        <pt x="1080" y="1141" on="1"/>
        <pt x="1011" y="1227" on="1"/>
        <pt x="790" y="1050" on="1"/>
        <pt x="569" y="1227" on="1"/>
        <pt x="500" y="1141" on="1"/>
        <pt x="500" y="456" on="1"/>
        <pt x="576" y="450" on="0"/>
        <pt x="650" y="343" on="0"/>
        <pt x="650" y="225" on="1"/>
        <pt x="650" y="127" on="0"/>
        <pt x="546" y="0" on="0"/>
        <pt x="450" y="0" on="1"/>
        <pt x="354" y="0" on="0"/>
        <pt x="250" y="117" on="0"/>
        <pt x="250" y="225" on="1"/>
      </contour>
    </TTGlyph>
    <TTGlyph name="uni178E" xMin="250" yMin="0" xMax="2530" yMax="1500">
      <contour>
        <pt x="450" y="171" on="1"/>
        <pt x="481" y="171" on="0"/>
        <pt x="500" y="198" on="0"/>
        <pt x="500" y="227" on="1"/>
        <pt x="500" y="257" on="0"/>
        <pt x="481" y="283" on="0"/>
        <pt x="450" y="285" on="1"/>
      </contour>
      <contour>
        <pt x="250" y="1000" on="1"/>
        <pt x="250" y="1500" on="0"/>
        <pt x="708" y="1500" on="1"/>
        <pt x="1165" y="1500" on="0"/>
        <pt x="1165" y="1000" on="1"/>
        <pt x="1165" y="315" on="1"/>
        <pt x="1390" y="612" on="1"/>
        <pt x="1615" y="315" on="1"/>
        <pt x="1615" y="1000" on="1"/>
        <pt x="1615" y="1500" on="0"/>
        <pt x="2073" y="1500" on="1"/>
        <pt x="2530" y="1500" on="0"/>
        <pt x="2530" y="1000" on="1"/>
        <pt x="2530" y="0" on="1"/>
        <pt x="2280" y="0" on="1"/>
        <pt x="2280" y="1000" on="1"/>
        <pt x="2280" y="1300" on="0"/>
        <pt x="2073" y="1300" on="1"/>
        <pt x="1865" y="1300" on="0"/>
        <pt x="1865" y="1000" on="1"/>
        <pt x="1865" y="0" on="1"/>
        <pt x="1572" y="0" on="1"/>
        <pt x="1390" y="255" on="1"/>
        <pt x="1208" y="0" on="1"/>
        <pt x="915" y="0" on="1"/>
        <pt x="915" y="1000" on="1"/>
        <pt x="915" y="1300" on="0"/>
        <pt x="708" y="1300" on="1"/>
        <pt x="500" y="1300" on="0"/>
        <pt x="500" y="1000" on="1"/>
        <pt x="500" y="456" on="1"/>
        <pt x="576" y="450" on="0"/>
        <pt x="650" y="343" on="0"/>
        <pt x="650" y="225" on="1"/>
        <pt x="650" y="127" on="0"/>
        <pt x="546" y="0" on="0"/>
        <pt x="450" y="0" on="1"/>
        <pt x="354" y="0" on="0"/>
        <pt x="250" y="117" on="0"/>
        <pt x="250" y="225" on="1"/>
      </contour>
    </TTGlyph>
    <TTGlyph name="uni178F" xMin="250" yMin="0" xMax="1330" yMax="1500">
      <contour>
        <pt x="450" y="171" on="1"/>
        <pt x="481" y="171" on="0"/>
        <pt x="500" y="198" on="0"/>
        <pt x="500" y="227" on="1"/>
        <pt x="500" y="257" on="0"/>
        <pt x="481" y="283" on="0"/>
        <pt x="450" y="285" on="1"/>
      </contour>
      <contour>
        <pt x="1330" y="1500" on="1"/>
        <pt x="1330" y="1300" on="1"/>
        <pt x="250" y="1300" on="1"/>
        <pt x="250" y="1500" on="1"/>
      </contour>
      <contour>
        <pt x="250" y="700" on="1"/>
        <pt x="250" y="1200" on="0"/>
        <pt x="790" y="1200" on="1"/>
        <pt x="1330" y="1200" on="0"/>
        <pt x="1330" y="700" on="1"/>
        <pt x="1330" y="0" on="1"/>
        <pt x="1080" y="0" on="1"/>
        <pt x="1080" y="700" on="1"/>
        <pt x="1080" y="1000" on="0"/>
        <pt x="790" y="1000" on="1"/>
        <pt x="500" y="1000" on="0"/>
        <pt x="500" y="700" on="1"/>
        <pt x="500" y="456" on="1"/>
        <pt x="576" y="450" on="0"/>
        <pt x="650" y="343" on="0"/>
        <pt x="650" y="225" on="1"/>
        <pt x="650" y="127" on="0"/>
        <pt x="546" y="0" on="0"/>
        <pt x="450" y="0" on="1"/>
        <pt x="354" y="0" on="0"/>
        <pt x="250" y="117" on="0"/>
        <pt x="250" y="225" on="1"/>
      </contour>
    </TTGlyph>
    <TTGlyph name="uni1790" xMin="200" yMin="0" xMax="1330" yMax="1650">
      <contour>
        <pt x="1130" y="960" on="1"/>
        <pt x="1106" y="960" on="0"/>
        <pt x="1090" y="939" on="0"/>
        <pt x="1090" y="926" on="1"/>
        <pt x="1090" y="913" on="0"/>
        <pt x="1097" y="905" on="1"/>
        <pt x="1105" y="894" on="0"/>
        <pt x="1130" y="894" on="1"/>
      </contour>
      <contour>
        <pt x="500" y="1100" on="1"/>
        <pt x="500" y="500" on="1"/>
        <pt x="500" y="200" on="0"/>
        <pt x="790" y="200" on="1"/>
        <pt x="1080" y="200" on="0"/>
        <pt x="1080" y="500" on="1"/>
        <pt x="1080" y="753" on="1"/>
        <pt x="1000" y="756" on="0"/>
        <pt x="956" y="814" on="1"/>
        <pt x="920" y="858" on="0"/>
        <pt x="920" y="925" on="1"/>
        <pt x="920" y="992" on="0"/>
        <pt x="1006" y="1100" on="0"/>
        <pt x="1130" y="1100" on="1"/>
        <pt x="1244" y="1100" on="0"/>
        <pt x="1330" y="992" on="0"/>
        <pt x="1330" y="925" on="1"/>
        <pt x="1330" y="500" on="1"/>
        <pt x="1330" y="0" on="0"/>
        <pt x="790" y="0" on="1"/>
        <pt x="250" y="0" on="0"/>
        <pt x="250" y="500" on="1"/>
        <pt x="250" y="1100" on="1"/>
        <pt x="250" y="1180" on="0"/>
        <pt x="200" y="1260" on="1"/>
        <pt x="200" y="1300" on="1"/>
        <pt x="200" y="1500" on="0"/>
        <pt x="440" y="1500" on="1"/>
        <pt x="762" y="1500" on="1"/>
        <pt x="992" y="1400" on="1"/>
        <pt x="1050" y="1400" on="1"/>
        <pt x="1080" y="1400" on="0"/>
        <pt x="1080" y="1420" on="1"/>
        <pt x="1080" y="1650" on="1"/>
        <pt x="1330" y="1650" on="1"/>
        <pt x="1330" y="1420" on="1"/>
        <pt x="1330" y="1200" on="0"/>
        <pt x="1120" y="1200" on="1"/>
        <pt x="918" y="1200" on="1"/>
        <pt x="688" y="1300" on="1"/>
        <pt x="510" y="1300" on="1"/>
        <pt x="450" y="1300" on="0"/>
        <pt x="450" y="1280" on="1"/>
        <pt x="500" y="1200" on="0"/>
      </contour>
    </TTGlyph>
    <TTGlyph name="uni1791" xMin="250" yMin="0" xMax="1330" yMax="1500">
      <contour>
        <pt x="1180" y="614" on="1"/>
        <pt x="1180" y="643" on="0"/>
        <pt x="1160" y="643" on="1"/>
        <pt x="1140" y="643" on="0"/>
        <pt x="1140" y="613" on="1"/>
        <pt x="1140" y="575" on="0"/>
        <pt x="1180" y="571" on="1"/>
      </contour>
      <contour>
        <pt x="1190" y="443" on="1"/>
        <pt x="1190" y="400" on="1"/>
        <pt x="1190" y="0" on="0"/>
        <pt x="790" y="0" on="1"/>
        <pt x="390" y="0" on="0"/>
        <pt x="390" y="400" on="1"/>
        <pt x="390" y="600" on="1"/>
        <pt x="640" y="600" on="1"/>
        <pt x="640" y="400" on="1"/>
        <pt x="640" y="200" on="0"/>
        <pt x="790" y="200" on="1"/>
        <pt x="940" y="200" on="0"/>
        <pt x="940" y="400" on="1"/>
        <pt x="940" y="483" on="1"/>
        <pt x="250" y="732" on="0"/>
        <pt x="250" y="1100" on="1"/>
        <pt x="250" y="1500" on="0"/>
        <pt x="790" y="1500" on="1"/>
        <pt x="1330" y="1500" on="0"/>
        <pt x="1330" y="1100" on="1"/>
        <pt x="1330" y="821" on="0"/>
        <pt x="1012" y="821" on="1"/>
        <pt x="925" y="821" on="0"/>
        <pt x="870" y="862" on="1"/>
        <pt x="870" y="1075" on="1"/>
        <pt x="992" y="1039" on="0"/>
        <pt x="1026" y="1039" on="1"/>
        <pt x="1080" y="1039" on="0"/>
        <pt x="1080" y="1100" on="1"/>
        <pt x="1080" y="1300" on="0"/>
        <pt x="790" y="1300" on="1"/>
        <pt x="500" y="1300" on="0"/>
        <pt x="500" y="1100" on="1"/>
        <pt x="500" y="784" on="0"/>
        <pt x="940" y="677" on="1"/>
        <pt x="940" y="760" on="0"/>
        <pt x="1120" y="760" on="1"/>
        <pt x="1330" y="760" on="0"/>
        <pt x="1330" y="635" on="1"/>
        <pt x="1330" y="522" on="0"/>
        <pt x="1249" y="448" on="0"/>
      </contour>
    </TTGlyph>
    <TTGlyph name="uni1792" xMin="200" yMin="0" xMax="1330" yMax="1500">
      <contour>
        <pt x="1130" y="960" on="1"/>
        <pt x="1106" y="960" on="0"/>
        <pt x="1090" y="939" on="0"/>
        <pt x="1090" y="926" on="1"/>
        <pt x="1090" y="913" on="0"/>
        <pt x="1097" y="905" on="1"/>
        <pt x="1105" y="894" on="0"/>
        <pt x="1130" y="894" on="1"/>
      </contour>
      <contour>
        <pt x="250" y="1100" on="1"/>
        <pt x="250" y="1180" on="0"/>
        <pt x="200" y="1260" on="1"/>
        <pt x="200" y="1300" on="1"/>
        <pt x="200" y="1500" on="0"/>
        <pt x="440" y="1500" on="1"/>
        <pt x="1330" y="1500" on="1"/>
        <pt x="1330" y="1300" on="1"/>
        <pt x="510" y="1300" on="1"/>
        <pt x="450" y="1300" on="0"/>
        <pt x="450" y="1280" on="1"/>
        <pt x="500" y="1200" on="0"/>
        <pt x="500" y="1100" on="1"/>
        <pt x="500" y="306" on="1"/>
        <pt x="790" y="552" on="1"/>
        <pt x="1080" y="306" on="1"/>
        <pt x="1080" y="753" on="1"/>
        <pt x="1000" y="756" on="0"/>
        <pt x="956" y="814" on="1"/>
        <pt x="920" y="858" on="0"/>
        <pt x="920" y="925" on="1"/>
        <pt x="920" y="992" on="0"/>
        <pt x="1006" y="1100" on="0"/>
        <pt x="1130" y="1100" on="1"/>
        <pt x="1244" y="1100" on="0"/>
        <pt x="1330" y="992" on="0"/>
        <pt x="1330" y="925" on="1"/>
        <pt x="1330" y="0" on="1"/>
        <pt x="1114" y="0" on="1"/>
        <pt x="790" y="278" on="1"/>
        <pt x="466" y="0" on="1"/>
        <pt x="250" y="0" on="1"/>
      </contour>
    </TTGlyph>
    <TTGlyph name="uni1793" xMin="250" yMin="0" xMax="1330" yMax="1500">
      <contour>
        <pt x="1330" y="653" on="1"/>
        <pt x="1330" y="400" on="1"/>
        <pt x="1330" y="0" on="0"/>
        <pt x="1010" y="0" on="1"/>
        <pt x="773" y="0" on="0"/>
        <pt x="575" y="250" on="0"/>
        <pt x="500" y="250" on="1"/>
        <pt x="500" y="0" on="1"/>
        <pt x="250" y="0" on="1"/>
        <pt x="250" y="600" on="1"/>
        <pt x="500" y="600" on="1"/>
        <pt x="500" y="450" on="1"/>
        <pt x="665" y="450" on="0"/>
        <pt x="884" y="200" on="0"/>
        <pt x="967" y="200" on="1"/>
        <pt x="1080" y="200" on="0"/>
        <pt x="1080" y="400" on="1"/>
        <pt x="1080" y="507" on="1"/>
        <pt x="250" y="687" on="0"/>
        <pt x="250" y="1100" on="1"/>
        <pt x="250" y="1500" on="0"/>
        <pt x="790" y="1500" on="1"/>
        <pt x="1330" y="1500" on="0"/>
        <pt x="1330" y="1100" on="1"/>
        <pt x="1330" y="821" on="0"/>
        <pt x="1012" y="821" on="1"/>
        <pt x="925" y="821" on="0"/>
        <pt x="870" y="862" on="1"/>
        <pt x="870" y="1065" on="1"/>
        <pt x="992" y="1029" on="0"/>
        <pt x="1026" y="1029" on="1"/>
        <pt x="1080" y="1029" on="0"/>
        <pt x="1080" y="1100" on="1"/>
        <pt x="1080" y="1300" on="0"/>
        <pt x="790" y="1300" on="1"/>
        <pt x="500" y="1300" on="0"/>
        <pt x="500" y="1100" on="1"/>
        <pt x="500" y="843" on="0"/>
      </contour>
    </TTGlyph>
    <TTGlyph name="uni1794" xMin="150" yMin="0" xMax="1380" yMax="1500">
      <contour>
        <pt x="1080" y="1100" on="1"/>
        <pt x="1080" y="1182" on="0"/>
        <pt x="980" y="1262" on="1"/>
        <pt x="980" y="1350" on="1"/>
        <pt x="980" y="1500" on="0"/>
        <pt x="1170" y="1500" on="1"/>
        <pt x="1380" y="1500" on="1"/>
        <pt x="1380" y="1300" on="1"/>
        <pt x="1210" y="1300" on="1"/>
        <pt x="1210" y="1288" on="1"/>
        <pt x="1330" y="1208" on="0"/>
        <pt x="1330" y="1100" on="1"/>
        <pt x="1330" y="500" on="1"/>
        <pt x="1330" y="0" on="0"/>
        <pt x="790" y="0" on="1"/>
        <pt x="250" y="0" on="0"/>
        <pt x="250" y="500" on="1"/>
        <pt x="250" y="1100" on="1"/>
        <pt x="250" y="1182" on="0"/>
        <pt x="150" y="1262" on="1"/>
        <pt x="150" y="1350" on="1"/>
        <pt x="150" y="1500" on="0"/>
        <pt x="340" y="1500" on="1"/>
        <pt x="550" y="1500" on="1"/>
        <pt x="550" y="1300" on="1"/>
        <pt x="380" y="1300" on="1"/>
        <pt x="380" y="1288" on="1"/>
        <pt x="500" y="1208" on="0"/>
        <pt x="500" y="1100" on="1"/>
        <pt x="500" y="500" on="1"/>
        <pt x="500" y="200" on="0"/>
        <pt x="790" y="200" on="1"/>
        <pt x="1080" y="200" on="0"/>
        <pt x="1080" y="500" on="1"/>
      </contour>
    </TTGlyph>
    <TTGlyph name="uni1794.a" xMin="200" yMin="-200" xMax="1330" yMax="1500">
      <contour>
        <pt x="1330" y="-200" on="1"/>
        <pt x="1080" y="-200" on="1"/>
        <pt x="1080" y="51" on="1"/>
        <pt x="963" y="0" on="0"/>
        <pt x="790" y="0" on="1"/>
        <pt x="250" y="0" on="0"/>
        <pt x="250" y="500" on="1"/>
        <pt x="250" y="1100" on="1"/>
        <pt x="250" y="1180" on="0"/>
        <pt x="200" y="1260" on="1"/>
        <pt x="200" y="1300" on="1"/>
        <pt x="200" y="1500" on="0"/>
        <pt x="440" y="1500" on="1"/>
        <pt x="1330" y="1500" on="1"/>
        <pt x="1330" y="1300" on="1"/>
        <pt x="510" y="1300" on="1"/>
        <pt x="450" y="1300" on="0"/>
        <pt x="450" y="1280" on="1"/>
        <pt x="500" y="1200" on="0"/>
        <pt x="500" y="1100" on="1"/>
        <pt x="500" y="500" on="1"/>
        <pt x="500" y="200" on="0"/>
        <pt x="790" y="200" on="1"/>
        <pt x="1080" y="200" on="0"/>
        <pt x="1080" y="500" on="1"/>
        <pt x="1080" y="1100" on="1"/>
        <pt x="1330" y="1100" on="1"/>
      </contour>
    </TTGlyph>
    <TTGlyph name="uni179417C917B6" xMin="200" yMin="-200" xMax="2030" yMax="2250">
      <contour>
        <pt x="1330" y="-200" on="1"/>
        <pt x="1080" y="-200" on="1"/>
        <pt x="1080" y="51" on="1"/>
        <pt x="963" y="0" on="0"/>
        <pt x="790" y="0" on="1"/>
        <pt x="250" y="0" on="0"/>
        <pt x="250" y="500" on="1"/>
        <pt x="250" y="1100" on="1"/>
        <pt x="250" y="1180" on="0"/>
        <pt x="200" y="1260" on="1"/>
        <pt x="200" y="1300" on="1"/>
        <pt x="200" y="1500" on="0"/>
        <pt x="440" y="1500" on="1"/>
        <pt x="1520" y="1500" on="1"/>
        <pt x="2030" y="1500" on="0"/>
        <pt x="2030" y="1100" on="1"/>
        <pt x="2030" y="0" on="1"/>
        <pt x="1780" y="0" on="1"/>
        <pt x="1780" y="1100" on="1"/>
        <pt x="1780" y="1300" on="0"/>
        <pt x="1520" y="1300" on="1"/>
        <pt x="510" y="1300" on="1"/>
        <pt x="450" y="1300" on="0"/>
        <pt x="450" y="1280" on="1"/>
        <pt x="500" y="1200" on="0"/>
        <pt x="500" y="1100" on="1"/>
        <pt x="500" y="500" on="1"/>
        <pt x="500" y="200" on="0"/>
        <pt x="790" y="200" on="1"/>
        <pt x="1080" y="200" on="0"/>
        <pt x="1080" y="500" on="1"/>
        <pt x="1080" y="1100" on="1"/>
        <pt x="1330" y="1100" on="1"/>
      </contour>
      <contour>
        <pt x="930" y="2250" on="1"/>
        <pt x="930" y="1800" on="1"/>
        <pt x="730" y="1800" on="1"/>
        <pt x="730" y="2250" on="1"/>
      </contour>
      <contour>
        <pt x="1230" y="2250" on="1"/>
        <pt x="1230" y="1800" on="1"/>
        <pt x="1030" y="1800" on="1"/>
        <pt x="1030" y="2250" on="1"/>
      </contour>
    </TTGlyph>
    <TTGlyph name="uni179417C917C5" xMin="200" yMin="-200" xMax="2030" yMax="2250">
      <contour>
        <pt x="930" y="2250" on="1"/>
        <pt x="930" y="1800" on="1"/>
        <pt x="730" y="1800" on="1"/>
        <pt x="730" y="2250" on="1"/>
      </contour>
      <contour>
        <pt x="1230" y="2250" on="1"/>
        <pt x="1230" y="1800" on="1"/>
        <pt x="1030" y="1800" on="1"/>
        <pt x="1030" y="2250" on="1"/>
      </contour>
      <contour>
        <pt x="1780" y="1101" on="1"/>
        <pt x="1779" y="1300" on="0"/>
        <pt x="1520" y="1300" on="1"/>
        <pt x="510" y="1300" on="1"/>
        <pt x="450" y="1300" on="0"/>
        <pt x="450" y="1280" on="1"/>
        <pt x="500" y="1200" on="0"/>
        <pt x="500" y="1100" on="1"/>
        <pt x="500" y="500" on="1"/>
        <pt x="500" y="200" on="0"/>
        <pt x="790" y="200" on="1"/>
        <pt x="1080" y="200" on="0"/>
        <pt x="1080" y="500" on="1"/>
        <pt x="1080" y="1100" on="1"/>
        <pt x="1330" y="1100" on="1"/>
        <pt x="1330" y="-200" on="1"/>
        <pt x="1080" y="-200" on="1"/>
        <pt x="1080" y="51" on="1"/>
        <pt x="963" y="0" on="0"/>
        <pt x="790" y="0" on="1"/>
        <pt x="250" y="0" on="0"/>
        <pt x="250" y="500" on="1"/>
        <pt x="250" y="1100" on="1"/>
        <pt x="250" y="1180" on="0"/>
        <pt x="200" y="1260" on="1"/>
        <pt x="200" y="1300" on="1"/>
        <pt x="200" y="1500" on="0"/>
        <pt x="440" y="1500" on="1"/>
        <pt x="1520" y="1500" on="1"/>
        <pt x="1673" y="1500" on="0"/>
        <pt x="1780" y="1464" on="1"/>
        <pt x="1780" y="1610" on="1"/>
        <pt x="1780" y="1700" on="0"/>
        <pt x="1740" y="1700" on="1"/>
        <pt x="1650" y="1700" on="1"/>
        <pt x="1650" y="1900" on="1"/>
        <pt x="1790" y="1900" on="1"/>
        <pt x="2030" y="1900" on="0"/>
        <pt x="2030" y="1700" on="1"/>
        <pt x="2030" y="0" on="1"/>
        <pt x="1780" y="0" on="1"/>
      </contour>
    </TTGlyph>
    <TTGlyph name="uni179417D2178A17B6" xMin="200" yMin="-650" xMax="2030" yMax="1500">
      <contour>
        <pt x="1330" y="-100" on="1"/>
        <pt x="1080" y="-100" on="1"/>
        <pt x="1080" y="51" on="1"/>
        <pt x="963" y="0" on="0"/>
        <pt x="790" y="0" on="1"/>
        <pt x="250" y="0" on="0"/>
        <pt x="250" y="500" on="1"/>
        <pt x="250" y="1100" on="1"/>
        <pt x="250" y="1180" on="0"/>
        <pt x="200" y="1260" on="1"/>
        <pt x="200" y="1300" on="1"/>
        <pt x="200" y="1500" on="0"/>
        <pt x="440" y="1500" on="1"/>
        <pt x="1520" y="1500" on="1"/>
        <pt x="2030" y="1500" on="0"/>
        <pt x="2030" y="1100" on="1"/>
        <pt x="2030" y="0" on="1"/>
        <pt x="1780" y="0" on="1"/>
        <pt x="1780" y="1100" on="1"/>
        <pt x="1780" y="1300" on="0"/>
        <pt x="1520" y="1300" on="1"/>
        <pt x="510" y="1300" on="1"/>
        <pt x="450" y="1300" on="0"/>
        <pt x="450" y="1280" on="1"/>
        <pt x="500" y="1200" on="0"/>
        <pt x="500" y="1100" on="1"/>
        <pt x="500" y="500" on="1"/>
        <pt x="500" y="200" on="0"/>
        <pt x="790" y="200" on="1"/>
        <pt x="1080" y="200" on="0"/>
        <pt x="1080" y="500" on="1"/>
        <pt x="1080" y="1100" on="1"/>
        <pt x="1330" y="1100" on="1"/>
      </contour>
      <contour>
        <pt x="500" y="-550" on="1"/>
        <pt x="521" y="-550" on="0"/>
        <pt x="530" y="-531" on="0"/>
        <pt x="530" y="-515" on="1"/>
        <pt x="530" y="-499" on="0"/>
        <pt x="521" y="-480" on="0"/>
        <pt x="500" y="-480" on="1"/>
      </contour>
      <contour>
        <pt x="300" y="-450" on="1"/>
        <pt x="300" y="-100" on="0"/>
        <pt x="790" y="-100" on="1"/>
        <pt x="1280" y="-100" on="0"/>
        <pt x="1280" y="-450" on="1"/>
        <pt x="1280" y="-650" on="1"/>
        <pt x="1080" y="-650" on="1"/>
        <pt x="1080" y="-450" on="1"/>
        <pt x="1080" y="-300" on="0"/>
        <pt x="790" y="-300" on="1"/>
        <pt x="500" y="-300" on="0"/>
        <pt x="500" y="-380" on="1"/>
        <pt x="593" y="-380" on="0"/>
        <pt x="660" y="-447" on="0"/>
        <pt x="660" y="-515" on="1"/>
        <pt x="660" y="-583" on="0"/>
        <pt x="583" y="-650" on="0"/>
        <pt x="490" y="-650" on="1"/>
        <pt x="387" y="-650" on="0"/>
        <pt x="300" y="-553" on="0"/>
        <pt x="300" y="-485" on="1"/>
      </contour>
    </TTGlyph>
    <TTGlyph name="uni1795" xMin="200" yMin="0" xMax="1330" yMax="1650">
      <contour>
        <pt x="1130" y="960" on="1"/>
        <pt x="1106" y="960" on="0"/>
        <pt x="1090" y="939" on="0"/>
        <pt x="1090" y="926" on="1"/>
        <pt x="1090" y="913" on="0"/>
        <pt x="1097" y="905" on="1"/>
        <pt x="1105" y="894" on="0"/>
        <pt x="1130" y="894" on="1"/>
      </contour>
      <contour>
        <pt x="250" y="1100" on="1"/>
        <pt x="250" y="1180" on="0"/>
        <pt x="200" y="1260" on="1"/>
        <pt x="200" y="1300" on="1"/>
        <pt x="200" y="1500" on="0"/>
        <pt x="440" y="1500" on="1"/>
        <pt x="762" y="1500" on="1"/>
        <pt x="992" y="1400" on="1"/>
        <pt x="1050" y="1400" on="1"/>
        <pt x="1080" y="1400" on="0"/>
        <pt x="1080" y="1420" on="1"/>
        <pt x="1080" y="1650" on="1"/>
        <pt x="1330" y="1650" on="1"/>
        <pt x="1330" y="1420" on="1"/>
        <pt x="1330" y="1200" on="0"/>
        <pt x="1120" y="1200" on="1"/>
        <pt x="918" y="1200" on="1"/>
        <pt x="688" y="1300" on="1"/>
        <pt x="510" y="1300" on="1"/>
        <pt x="450" y="1300" on="0"/>
        <pt x="450" y="1280" on="1"/>
        <pt x="500" y="1200" on="0"/>
        <pt x="500" y="1100" on="1"/>
        <pt x="500" y="306" on="1"/>
        <pt x="790" y="552" on="1"/>
        <pt x="1080" y="306" on="1"/>
        <pt x="1080" y="753" on="1"/>
        <pt x="1000" y="756" on="0"/>
        <pt x="956" y="814" on="1"/>
        <pt x="920" y="858" on="0"/>
        <pt x="920" y="925" on="1"/>
        <pt x="920" y="992" on="0"/>
        <pt x="1006" y="1100" on="0"/>
        <pt x="1130" y="1100" on="1"/>
        <pt x="1244" y="1100" on="0"/>
        <pt x="1330" y="992" on="0"/>
        <pt x="1330" y="925" on="1"/>
        <pt x="1330" y="0" on="1"/>
        <pt x="1080" y="0" on="1"/>
        <pt x="790" y="278" on="1"/>
        <pt x="466" y="0" on="1"/>
        <pt x="250" y="0" on="1"/>
      </contour>
    </TTGlyph>
    <TTGlyph name="uni1796" xMin="250" yMin="0" xMax="1330" yMax="1527">
      <contour>
        <pt x="450" y="171" on="1"/>
        <pt x="481" y="171" on="0"/>
        <pt x="500" y="198" on="0"/>
        <pt x="500" y="227" on="1"/>
        <pt x="500" y="257" on="0"/>
        <pt x="481" y="283" on="0"/>
        <pt x="450" y="285" on="1"/>
      </contour>
      <contour>
        <pt x="250" y="1189" on="1"/>
        <pt x="543" y="1527" on="1"/>
        <pt x="790" y="1321" on="1"/>
        <pt x="1037" y="1527" on="1"/>
        <pt x="1330" y="1189" on="1"/>
        <pt x="1330" y="0" on="1"/>
        <pt x="1080" y="0" on="1"/>
        <pt x="1080" y="1121" on="1"/>
        <pt x="1009" y="1210" on="1"/>
        <pt x="790" y="1053" on="1"/>
        <pt x="571" y="1210" on="1"/>
        <pt x="500" y="1121" on="1"/>
        <pt x="500" y="456" on="1"/>
        <pt x="576" y="450" on="0"/>
        <pt x="650" y="343" on="0"/>
        <pt x="650" y="225" on="1"/>
        <pt x="650" y="127" on="0"/>
        <pt x="546" y="0" on="0"/>
        <pt x="450" y="0" on="1"/>
        <pt x="354" y="0" on="0"/>
        <pt x="250" y="117" on="0"/>
        <pt x="250" y="225" on="1"/>
      </contour>
    </TTGlyph>
    <TTGlyph name="uni1797" xMin="90" yMin="0" xMax="1327" yMax="1500">
      <contour>
        <pt x="282" y="407" on="1"/>
        <pt x="247" y="563" on="0"/>
        <pt x="247" y="700" on="1"/>
        <pt x="247" y="1200" on="0"/>
        <pt x="787" y="1200" on="1"/>
        <pt x="1327" y="1200" on="0"/>
        <pt x="1327" y="700" on="1"/>
        <pt x="1327" y="0" on="1"/>
        <pt x="1077" y="0" on="1"/>
        <pt x="1077" y="700" on="1"/>
        <pt x="1077" y="1000" on="0"/>
        <pt x="787" y="1000" on="1"/>
        <pt x="497" y="1000" on="0"/>
        <pt x="497" y="700" on="1"/>
        <pt x="497" y="457" on="0"/>
        <pt x="597" y="169" on="1"/>
        <pt x="597" y="108" on="0"/>
        <pt x="500" y="0" on="0"/>
        <pt x="377" y="0" on="1"/>
        <pt x="252" y="0" on="0"/>
        <pt x="145" y="141" on="0"/>
        <pt x="90" y="353" on="1"/>
      </contour>
      <contour>
        <pt x="1327" y="1500" on="1"/>
        <pt x="1327" y="1300" on="1"/>
        <pt x="247" y="1300" on="1"/>
        <pt x="247" y="1500" on="1"/>
      </contour>
    </TTGlyph>
    <TTGlyph name="uni1798" xMin="150" yMin="0" xMax="1380" yMax="1500">
      <contour>
        <pt x="500" y="650" on="1"/>
        <pt x="500" y="500" on="1"/>
        <pt x="500" y="200" on="0"/>
        <pt x="790" y="200" on="1"/>
        <pt x="1080" y="200" on="0"/>
        <pt x="1080" y="500" on="1"/>
        <pt x="1080" y="650" on="1"/>
      </contour>
      <contour>
        <pt x="1080" y="1100" on="1"/>
        <pt x="1080" y="1182" on="0"/>
        <pt x="980" y="1262" on="1"/>
        <pt x="980" y="1350" on="1"/>
        <pt x="980" y="1500" on="0"/>
        <pt x="1170" y="1500" on="1"/>
        <pt x="1380" y="1500" on="1"/>
        <pt x="1380" y="1300" on="1"/>
        <pt x="1210" y="1300" on="1"/>
        <pt x="1210" y="1288" on="1"/>
        <pt x="1330" y="1208" on="0"/>
        <pt x="1330" y="1100" on="1"/>
        <pt x="1330" y="500" on="1"/>
        <pt x="1330" y="0" on="0"/>
        <pt x="790" y="0" on="1"/>
        <pt x="250" y="0" on="0"/>
        <pt x="250" y="500" on="1"/>
        <pt x="250" y="1100" on="1"/>
        <pt x="250" y="1182" on="0"/>
        <pt x="150" y="1262" on="1"/>
        <pt x="150" y="1350" on="1"/>
        <pt x="150" y="1500" on="0"/>
        <pt x="340" y="1500" on="1"/>
        <pt x="550" y="1500" on="1"/>
        <pt x="550" y="1300" on="1"/>
        <pt x="380" y="1300" on="1"/>
        <pt x="380" y="1288" on="1"/>
        <pt x="500" y="1208" on="0"/>
        <pt x="500" y="1100" on="1"/>
        <pt x="500" y="850" on="1"/>
        <pt x="1080" y="850" on="1"/>
      </contour>
    </TTGlyph>
    <TTGlyph name="uni1799" xMin="250" yMin="0" xMax="2080" yMax="1500">
      <contour>
        <pt x="450" y="1294" on="1"/>
        <pt x="475" y="1294" on="0"/>
        <pt x="483" y="1305" on="1"/>
        <pt x="490" y="1313" on="0"/>
        <pt x="490" y="1326" on="1"/>
        <pt x="490" y="1339" on="0"/>
        <pt x="474" y="1360" on="0"/>
        <pt x="450" y="1360" on="1"/>
      </contour>
      <contour>
        <pt x="500" y="500" on="1"/>
        <pt x="500" y="200" on="0"/>
        <pt x="740" y="200" on="1"/>
        <pt x="1015" y="200" on="0"/>
        <pt x="1015" y="500" on="1"/>
        <pt x="1015" y="1100" on="1"/>
        <pt x="1015" y="1182" on="0"/>
        <pt x="915" y="1262" on="1"/>
        <pt x="915" y="1350" on="1"/>
        <pt x="915" y="1500" on="0"/>
        <pt x="1105" y="1500" on="1"/>
        <pt x="1315" y="1500" on="1"/>
        <pt x="1315" y="1300" on="1"/>
        <pt x="1145" y="1300" on="1"/>
        <pt x="1145" y="1288" on="1"/>
        <pt x="1265" y="1208" on="0"/>
        <pt x="1265" y="1100" on="1"/>
        <pt x="1265" y="500" on="1"/>
        <pt x="1265" y="200" on="0"/>
        <pt x="1540" y="200" on="1"/>
        <pt x="1780" y="200" on="0"/>
        <pt x="1780" y="500" on="1"/>
        <pt x="1780" y="1100" on="1"/>
        <pt x="1780" y="1182" on="0"/>
        <pt x="1680" y="1262" on="1"/>
        <pt x="1680" y="1350" on="1"/>
        <pt x="1680" y="1500" on="0"/>
        <pt x="1870" y="1500" on="1"/>
        <pt x="2080" y="1500" on="1"/>
        <pt x="2080" y="1300" on="1"/>
        <pt x="1910" y="1300" on="1"/>
        <pt x="1910" y="1288" on="1"/>
        <pt x="2030" y="1208" on="0"/>
        <pt x="2030" y="1100" on="1"/>
        <pt x="2030" y="500" on="1"/>
        <pt x="2030" y="0" on="0"/>
        <pt x="1540" y="0" on="1"/>
        <pt x="1204" y="0" on="0"/>
        <pt x="1140" y="141" on="1"/>
        <pt x="1076" y="0" on="0"/>
        <pt x="740" y="0" on="1"/>
        <pt x="250" y="0" on="0"/>
        <pt x="250" y="500" on="1"/>
        <pt x="250" y="1325" on="1"/>
        <pt x="250" y="1392" on="0"/>
        <pt x="336" y="1500" on="0"/>
        <pt x="450" y="1500" on="1"/>
        <pt x="574" y="1500" on="0"/>
        <pt x="660" y="1392" on="0"/>
        <pt x="660" y="1325" on="1"/>
        <pt x="660" y="1258" on="0"/>
        <pt x="624" y="1214" on="1"/>
        <pt x="580" y="1156" on="0"/>
        <pt x="500" y="1153" on="1"/>
      </contour>
    </TTGlyph>
    <TTGlyph name="uni179A" xMin="100" yMin="0" xMax="550" yMax="1500">
      <contour>
        <pt x="300" y="285" on="1"/>
        <pt x="269" y="283" on="0"/>
        <pt x="250" y="257" on="0"/>
        <pt x="250" y="227" on="1"/>
        <pt x="250" y="198" on="0"/>
        <pt x="269" y="171" on="0"/>
        <pt x="300" y="171" on="1"/>
      </contour>
      <contour>
        <pt x="250" y="1100" on="1"/>
        <pt x="250" y="1182" on="0"/>
        <pt x="150" y="1262" on="1"/>
        <pt x="150" y="1350" on="1"/>
        <pt x="150" y="1500" on="0"/>
        <pt x="340" y="1500" on="1"/>
        <pt x="550" y="1500" on="1"/>
        <pt x="550" y="1300" on="1"/>
        <pt x="380" y="1300" on="1"/>
        <pt x="380" y="1288" on="1"/>
        <pt x="500" y="1208" on="0"/>
        <pt x="500" y="1100" on="1"/>
        <pt x="500" y="225" on="1"/>
        <pt x="500" y="107" on="0"/>
        <pt x="396" y="0" on="0"/>
        <pt x="300" y="0" on="1"/>
        <pt x="204" y="0" on="0"/>
        <pt x="100" y="107" on="0"/>
        <pt x="100" y="225" on="1"/>
        <pt x="100" y="343" on="0"/>
        <pt x="174" y="450" on="0"/>
        <pt x="250" y="456" on="1"/>
      </contour>
    </TTGlyph>
    <TTGlyph name="uni179A17C917B617C6" xMin="100" yMin="-650" xMax="1200" yMax="2250">
      <contour>
        <pt x="300" y="285" on="1"/>
        <pt x="269" y="283" on="0"/>
        <pt x="250" y="257" on="0"/>
        <pt x="250" y="227" on="1"/>
        <pt x="250" y="198" on="0"/>
        <pt x="269" y="171" on="0"/>
        <pt x="300" y="171" on="1"/>
      </contour>
      <contour>
        <pt x="380" y="1300" on="1"/>
        <pt x="380" y="1288" on="1"/>
        <pt x="500" y="1208" on="0"/>
        <pt x="500" y="1100" on="1"/>
        <pt x="500" y="225" on="1"/>
        <pt x="500" y="107" on="0"/>
        <pt x="396" y="0" on="0"/>
        <pt x="300" y="0" on="1"/>
        <pt x="204" y="0" on="0"/>
        <pt x="100" y="107" on="0"/>
        <pt x="100" y="225" on="1"/>
        <pt x="100" y="343" on="0"/>
        <pt x="174" y="450" on="0"/>
        <pt x="250" y="456" on="1"/>
        <pt x="250" y="1100" on="1"/>
        <pt x="250" y="1182" on="0"/>
        <pt x="150" y="1262" on="1"/>
        <pt x="150" y="1350" on="1"/>
        <pt x="150" y="1500" on="0"/>
        <pt x="340" y="1500" on="1"/>
        <pt x="690" y="1500" on="1"/>
        <pt x="1200" y="1500" on="0"/>
        <pt x="1200" y="1100" on="1"/>
        <pt x="1200" y="0" on="1"/>
        <pt x="950" y="0" on="1"/>
        <pt x="950" y="1100" on="1"/>
        <pt x="950" y="1300" on="0"/>
        <pt x="690" y="1300" on="1"/>
      </contour>
      <contour>
        <pt x="645" y="2025" on="1"/>
        <pt x="645" y="2000" on="0"/>
        <pt x="658" y="1988" on="1"/>
        <pt x="670" y="1975" on="0"/>
        <pt x="695" y="1975" on="1"/>
        <pt x="720" y="1975" on="0"/>
        <pt x="733" y="1988" on="1"/>
        <pt x="745" y="2000" on="0"/>
        <pt x="745" y="2025" on="1"/>
        <pt x="745" y="2050" on="0"/>
        <pt x="733" y="2062" on="1"/>
        <pt x="720" y="2075" on="0"/>
        <pt x="695" y="2075" on="1"/>
        <pt x="670" y="2075" on="0"/>
        <pt x="658" y="2062" on="1"/>
        <pt x="645" y="2050" on="0"/>
      </contour>
      <contour>
        <pt x="920" y="2025" on="1"/>
        <pt x="920" y="1912" on="0"/>
        <pt x="864" y="1856" on="1"/>
        <pt x="808" y="1800" on="0"/>
        <pt x="695" y="1800" on="1"/>
        <pt x="582" y="1800" on="0"/>
        <pt x="526" y="1856" on="1"/>
        <pt x="470" y="1912" on="0"/>
        <pt x="470" y="2025" on="1"/>
        <pt x="470" y="2138" on="0"/>
        <pt x="526" y="2194" on="1"/>
        <pt x="582" y="2250" on="0"/>
        <pt x="695" y="2250" on="1"/>
        <pt x="808" y="2250" on="0"/>
        <pt x="864" y="2194" on="1"/>
        <pt x="920" y="2138" on="0"/>
      </contour>
      <contour>
        <pt x="500" y="-100" on="1"/>
        <pt x="500" y="-650" on="1"/>
        <pt x="250" y="-650" on="1"/>
        <pt x="250" y="-100" on="1"/>
      </contour>
    </TTGlyph>
    <TTGlyph name="uni179B" xMin="250" yMin="0" xMax="2080" yMax="1500">
      <contour>
        <pt x="450" y="171" on="1"/>
        <pt x="481" y="171" on="0"/>
        <pt x="500" y="198" on="0"/>
        <pt x="500" y="227" on="1"/>
        <pt x="500" y="257" on="0"/>
        <pt x="481" y="283" on="0"/>
        <pt x="450" y="285" on="1"/>
      </contour>
      <contour>
        <pt x="250" y="1000" on="1"/>
        <pt x="250" y="1500" on="0"/>
        <pt x="758" y="1500" on="1"/>
        <pt x="1265" y="1500" on="0"/>
        <pt x="1265" y="1000" on="1"/>
        <pt x="1265" y="500" on="1"/>
        <pt x="1265" y="200" on="0"/>
        <pt x="1540" y="200" on="1"/>
        <pt x="1780" y="200" on="0"/>
        <pt x="1780" y="500" on="1"/>
        <pt x="1780" y="1100" on="1"/>
        <pt x="1780" y="1182" on="0"/>
        <pt x="1680" y="1262" on="1"/>
        <pt x="1680" y="1350" on="1"/>
        <pt x="1680" y="1500" on="0"/>
        <pt x="1870" y="1500" on="1"/>
        <pt x="2080" y="1500" on="1"/>
        <pt x="2080" y="1300" on="1"/>
        <pt x="1910" y="1300" on="1"/>
        <pt x="1910" y="1288" on="1"/>
        <pt x="2030" y="1208" on="0"/>
        <pt x="2030" y="1100" on="1"/>
        <pt x="2030" y="500" on="1"/>
        <pt x="2030" y="0" on="0"/>
        <pt x="1540" y="0" on="1"/>
        <pt x="1015" y="0" on="0"/>
        <pt x="1015" y="500" on="1"/>
        <pt x="1015" y="1000" on="1"/>
        <pt x="1015" y="1300" on="0"/>
        <pt x="758" y="1300" on="1"/>
        <pt x="500" y="1300" on="0"/>
        <pt x="500" y="1000" on="1"/>
        <pt x="500" y="456" on="1"/>
        <pt x="576" y="450" on="0"/>
        <pt x="650" y="343" on="0"/>
        <pt x="650" y="225" on="1"/>
        <pt x="650" y="127" on="0"/>
        <pt x="546" y="0" on="0"/>
        <pt x="450" y="0" on="1"/>
        <pt x="354" y="0" on="0"/>
        <pt x="250" y="117" on="0"/>
        <pt x="250" y="225" on="1"/>
      </contour>
    </TTGlyph>
    <TTGlyph name="uni179C" xMin="100" yMin="0" xMax="650" yMax="1650">
      <contour>
        <pt x="300" y="285" on="1"/>
        <pt x="269" y="283" on="0"/>
        <pt x="250" y="257" on="0"/>
        <pt x="250" y="227" on="1"/>
        <pt x="250" y="198" on="0"/>
        <pt x="269" y="171" on="0"/>
        <pt x="300" y="171" on="1"/>
      </contour>
      <contour>
        <pt x="500" y="1100" on="1"/>
        <pt x="500" y="225" on="1"/>
        <pt x="500" y="107" on="0"/>
        <pt x="396" y="0" on="0"/>
        <pt x="300" y="0" on="1"/>
        <pt x="204" y="0" on="0"/>
        <pt x="100" y="107" on="0"/>
        <pt x="100" y="225" on="1"/>
        <pt x="100" y="343" on="0"/>
        <pt x="174" y="450" on="0"/>
        <pt x="250" y="456" on="1"/>
        <pt x="250" y="1100" on="1"/>
        <pt x="250" y="1182" on="0"/>
        <pt x="150" y="1262" on="1"/>
        <pt x="150" y="1350" on="1"/>
        <pt x="150" y="1500" on="0"/>
        <pt x="340" y="1500" on="1"/>
        <pt x="370" y="1500" on="1"/>
        <pt x="420" y="1430" on="1"/>
        <pt x="420" y="1650" on="1"/>
        <pt x="650" y="1650" on="1"/>
        <pt x="650" y="1470" on="1"/>
        <pt x="650" y="1300" on="0"/>
        <pt x="440" y="1300" on="1"/>
        <pt x="380" y="1300" on="1"/>
        <pt x="380" y="1288" on="1"/>
        <pt x="500" y="1208" on="0"/>
      </contour>
    </TTGlyph>
    <TTGlyph name="uni179D" xMin="250" yMin="0" xMax="1530" yMax="1500">
      <contour>
        <pt x="1330" y="1500" on="1"/>
        <pt x="1330" y="1300" on="1"/>
        <pt x="250" y="1300" on="1"/>
        <pt x="250" y="1500" on="1"/>
      </contour>
      <contour>
        <pt x="1330" y="500" on="1"/>
        <pt x="1530" y="500" on="1"/>
        <pt x="1530" y="300" on="1"/>
        <pt x="1330" y="300" on="1"/>
        <pt x="1330" y="0" on="1"/>
        <pt x="1080" y="0" on="1"/>
        <pt x="1080" y="300" on="1"/>
        <pt x="880" y="300" on="1"/>
        <pt x="880" y="500" on="1"/>
        <pt x="1080" y="500" on="1"/>
        <pt x="1080" y="700" on="1"/>
        <pt x="1080" y="1000" on="0"/>
        <pt x="790" y="1000" on="1"/>
        <pt x="500" y="1000" on="0"/>
        <pt x="500" y="700" on="1"/>
        <pt x="499" y="400" on="1"/>
        <pt x="600" y="500" on="0"/>
        <pt x="700" y="500" on="1"/>
        <pt x="830" y="500" on="1"/>
        <pt x="830" y="290" on="1"/>
        <pt x="700" y="290" on="1"/>
        <pt x="571" y="290" on="0"/>
        <pt x="500" y="148" on="1"/>
        <pt x="500" y="0" on="1"/>
        <pt x="250" y="0" on="1"/>
        <pt x="250" y="700" on="1"/>
        <pt x="250" y="1200" on="0"/>
        <pt x="790" y="1200" on="1"/>
        <pt x="1330" y="1200" on="0"/>
        <pt x="1330" y="700" on="1"/>
      </contour>
    </TTGlyph>
    <TTGlyph name="uni179E" xMin="150" yMin="0" xMax="1530" yMax="1500">
      <contour>
        <pt x="1080" y="800" on="1"/>
        <pt x="1080" y="1100" on="1"/>
        <pt x="1080" y="1182" on="0"/>
        <pt x="980" y="1262" on="1"/>
        <pt x="980" y="1350" on="1"/>
        <pt x="980" y="1500" on="0"/>
        <pt x="1170" y="1500" on="1"/>
        <pt x="1380" y="1500" on="1"/>
        <pt x="1380" y="1300" on="1"/>
        <pt x="1210" y="1300" on="1"/>
        <pt x="1210" y="1288" on="1"/>
        <pt x="1330" y="1208" on="0"/>
        <pt x="1330" y="1100" on="1"/>
        <pt x="1330" y="800" on="1"/>
        <pt x="1530" y="800" on="1"/>
        <pt x="1530" y="600" on="1"/>
        <pt x="1330" y="600" on="1"/>
        <pt x="1330" y="500" on="1"/>
        <pt x="1330" y="0" on="0"/>
        <pt x="790" y="0" on="1"/>
        <pt x="250" y="0" on="0"/>
        <pt x="250" y="500" on="1"/>
        <pt x="250" y="1100" on="1"/>
        <pt x="250" y="1182" on="0"/>
        <pt x="150" y="1262" on="1"/>
        <pt x="150" y="1350" on="1"/>
        <pt x="150" y="1500" on="0"/>
        <pt x="340" y="1500" on="1"/>
        <pt x="550" y="1500" on="1"/>
        <pt x="550" y="1300" on="1"/>
        <pt x="380" y="1300" on="1"/>
        <pt x="380" y="1288" on="1"/>
        <pt x="500" y="1208" on="0"/>
        <pt x="500" y="1100" on="1"/>
        <pt x="500" y="500" on="1"/>
        <pt x="500" y="200" on="0"/>
        <pt x="790" y="200" on="1"/>
        <pt x="1080" y="200" on="0"/>
        <pt x="1080" y="500" on="1"/>
        <pt x="1080" y="600" on="1"/>
        <pt x="880" y="600" on="1"/>
        <pt x="880" y="800" on="1"/>
      </contour>
    </TTGlyph>
    <TTGlyph name="uni179F" xMin="250" yMin="0" xMax="2080" yMax="1500">
      <contour>
        <pt x="450" y="171" on="1"/>
        <pt x="481" y="171" on="0"/>
        <pt x="500" y="198" on="0"/>
        <pt x="500" y="227" on="1"/>
        <pt x="500" y="257" on="0"/>
        <pt x="481" y="283" on="0"/>
        <pt x="450" y="285" on="1"/>
      </contour>
      <contour>
        <pt x="250" y="700" on="1"/>
        <pt x="250" y="1000" on="0"/>
        <pt x="441" y="1123" on="1"/>
        <pt x="385" y="1216" on="0"/>
        <pt x="300" y="1261" on="1"/>
        <pt x="300" y="1350" on="1"/>
        <pt x="300" y="1500" on="0"/>
        <pt x="490" y="1500" on="1"/>
        <pt x="1080" y="1500" on="1"/>
        <pt x="1080" y="1300" on="1"/>
        <pt x="550" y="1300" on="1"/>
        <pt x="550" y="1289" on="1"/>
        <pt x="629" y="1246" on="0"/>
        <pt x="662" y="1196" on="1"/>
        <pt x="684" y="1200" on="0"/>
        <pt x="758" y="1200" on="1"/>
        <pt x="1265" y="1200" on="0"/>
        <pt x="1265" y="700" on="1"/>
        <pt x="1265" y="500" on="1"/>
        <pt x="1265" y="200" on="0"/>
        <pt x="1540" y="200" on="1"/>
        <pt x="1780" y="200" on="0"/>
        <pt x="1780" y="500" on="1"/>
        <pt x="1780" y="1100" on="1"/>
        <pt x="1780" y="1182" on="0"/>
        <pt x="1680" y="1262" on="1"/>
        <pt x="1680" y="1350" on="1"/>
        <pt x="1680" y="1500" on="0"/>
        <pt x="1870" y="1500" on="1"/>
        <pt x="2080" y="1500" on="1"/>
        <pt x="2080" y="1300" on="1"/>
        <pt x="1910" y="1300" on="1"/>
        <pt x="1910" y="1288" on="1"/>
        <pt x="2030" y="1208" on="0"/>
        <pt x="2030" y="1100" on="1"/>
        <pt x="2030" y="500" on="1"/>
        <pt x="2030" y="0" on="0"/>
        <pt x="1540" y="0" on="1"/>
        <pt x="1015" y="0" on="0"/>
        <pt x="1015" y="500" on="1"/>
        <pt x="1015" y="700" on="1"/>
        <pt x="1015" y="1000" on="0"/>
        <pt x="758" y="1000" on="1"/>
        <pt x="500" y="1000" on="0"/>
        <pt x="500" y="700" on="1"/>
        <pt x="500" y="456" on="1"/>
        <pt x="576" y="450" on="0"/>
        <pt x="650" y="343" on="0"/>
        <pt x="650" y="225" on="1"/>
        <pt x="650" y="127" on="0"/>
        <pt x="546" y="0" on="0"/>
        <pt x="450" y="0" on="1"/>
        <pt x="354" y="0" on="0"/>
        <pt x="250" y="117" on="0"/>
        <pt x="250" y="225" on="1"/>
      </contour>
    </TTGlyph>
    <TTGlyph name="uni17A0" xMin="150" yMin="0" xMax="2030" yMax="1500">
      <contour>
        <pt x="500" y="1100" on="1"/>
        <pt x="500" y="500" on="1"/>
        <pt x="500" y="200" on="0"/>
        <pt x="740" y="200" on="1"/>
        <pt x="1015" y="200" on="0"/>
        <pt x="1015" y="500" on="1"/>
        <pt x="1015" y="1000" on="1"/>
        <pt x="1015" y="1500" on="0"/>
        <pt x="1522" y="1500" on="1"/>
        <pt x="2030" y="1500" on="0"/>
        <pt x="2030" y="1000" on="1"/>
        <pt x="2030" y="0" on="1"/>
        <pt x="1780" y="0" on="1"/>
        <pt x="1780" y="1000" on="1"/>
        <pt x="1780" y="1300" on="0"/>
        <pt x="1522" y="1300" on="1"/>
        <pt x="1265" y="1300" on="0"/>
        <pt x="1265" y="1000" on="1"/>
        <pt x="1265" y="500" on="1"/>
        <pt x="1265" y="0" on="0"/>
        <pt x="740" y="0" on="1"/>
        <pt x="250" y="0" on="0"/>
        <pt x="250" y="500" on="1"/>
        <pt x="250" y="1100" on="1"/>
        <pt x="250" y="1182" on="0"/>
        <pt x="150" y="1262" on="1"/>
        <pt x="150" y="1350" on="1"/>
        <pt x="150" y="1500" on="0"/>
        <pt x="340" y="1500" on="1"/>
        <pt x="550" y="1500" on="1"/>
        <pt x="550" y="1300" on="1"/>
        <pt x="380" y="1300" on="1"/>
        <pt x="380" y="1288" on="1"/>
        <pt x="500" y="1208" on="0"/>
      </contour>
    </TTGlyph>
    <TTGlyph name="uni17A1" xMin="250" yMin="-650" xMax="2050" yMax="1500">
      <contour>
        <pt x="1750" y="1100" on="1"/>
        <pt x="1750" y="1182" on="0"/>
        <pt x="1650" y="1262" on="1"/>
        <pt x="1650" y="1350" on="1"/>
        <pt x="1650" y="1500" on="0"/>
        <pt x="1840" y="1500" on="1"/>
        <pt x="2050" y="1500" on="1"/>
        <pt x="2050" y="1300" on="1"/>
        <pt x="1880" y="1300" on="1"/>
        <pt x="1880" y="1288" on="1"/>
        <pt x="2000" y="1208" on="0"/>
        <pt x="2000" y="1100" on="1"/>
        <pt x="2000" y="-650" on="1"/>
        <pt x="1712" y="-650" on="1"/>
        <pt x="1540" y="-478" on="1"/>
        <pt x="1368" y="-650" on="1"/>
        <pt x="1080" y="-650" on="1"/>
        <pt x="1080" y="-300" on="1"/>
        <pt x="920" y="-300" on="1"/>
        <pt x="920" y="-250" on="1"/>
        <pt x="920" y="-188" on="0"/>
        <pt x="997" y="-100" on="0"/>
        <pt x="1125" y="-100" on="1"/>
        <pt x="1253" y="-100" on="0"/>
        <pt x="1330" y="-188" on="0"/>
        <pt x="1330" y="-250" on="1"/>
        <pt x="1330" y="-432" on="1"/>
        <pt x="1540" y="-222" on="1"/>
        <pt x="1750" y="-432" on="1"/>
      </contour>
      <contour>
        <pt x="1180" y="614" on="1"/>
        <pt x="1180" y="643" on="0"/>
        <pt x="1160" y="643" on="1"/>
        <pt x="1140" y="643" on="0"/>
        <pt x="1140" y="613" on="1"/>
        <pt x="1140" y="575" on="0"/>
        <pt x="1180" y="571" on="1"/>
      </contour>
      <contour>
        <pt x="1190" y="443" on="1"/>
        <pt x="1190" y="400" on="1"/>
        <pt x="1190" y="0" on="0"/>
        <pt x="790" y="0" on="1"/>
        <pt x="390" y="0" on="0"/>
        <pt x="390" y="400" on="1"/>
        <pt x="390" y="600" on="1"/>
        <pt x="640" y="600" on="1"/>
        <pt x="640" y="400" on="1"/>
        <pt x="640" y="200" on="0"/>
        <pt x="790" y="200" on="1"/>
        <pt x="940" y="200" on="0"/>
        <pt x="940" y="400" on="1"/>
        <pt x="940" y="483" on="1"/>
        <pt x="250" y="732" on="0"/>
        <pt x="250" y="1100" on="1"/>
        <pt x="250" y="1500" on="0"/>
        <pt x="790" y="1500" on="1"/>
        <pt x="1330" y="1500" on="0"/>
        <pt x="1330" y="1100" on="1"/>
        <pt x="1330" y="821" on="0"/>
        <pt x="1012" y="821" on="1"/>
        <pt x="925" y="821" on="0"/>
        <pt x="870" y="862" on="1"/>
        <pt x="870" y="1075" on="1"/>
        <pt x="992" y="1039" on="0"/>
        <pt x="1026" y="1039" on="1"/>
        <pt x="1080" y="1039" on="0"/>
        <pt x="1080" y="1100" on="1"/>
        <pt x="1080" y="1300" on="0"/>
        <pt x="790" y="1300" on="1"/>
        <pt x="500" y="1300" on="0"/>
        <pt x="500" y="1100" on="1"/>
        <pt x="500" y="784" on="0"/>
        <pt x="940" y="677" on="1"/>
        <pt x="940" y="760" on="0"/>
        <pt x="1120" y="760" on="1"/>
        <pt x="1330" y="760" on="0"/>
        <pt x="1330" y="635" on="1"/>
        <pt x="1330" y="522" on="0"/>
        <pt x="1249" y="448" on="0"/>
      </contour>
    </TTGlyph>
    <TTGlyph name="uni17A2" xMin="100" yMin="0" xMax="1380" yMax="1500">
      <contour>
        <pt x="300" y="285" on="1"/>
        <pt x="269" y="283" on="0"/>
        <pt x="250" y="257" on="0"/>
        <pt x="250" y="227" on="1"/>
        <pt x="250" y="198" on="0"/>
        <pt x="269" y="171" on="0"/>
        <pt x="300" y="171" on="1"/>
      </contour>
      <contour>
        <pt x="1130" y="285" on="1"/>
        <pt x="1099" y="283" on="0"/>
        <pt x="1080" y="257" on="0"/>
        <pt x="1080" y="227" on="1"/>
        <pt x="1080" y="198" on="0"/>
        <pt x="1099" y="171" on="0"/>
        <pt x="1130" y="171" on="1"/>
      </contour>
      <contour>
        <pt x="500" y="225" on="1"/>
        <pt x="500" y="107" on="0"/>
        <pt x="396" y="0" on="0"/>
        <pt x="300" y="0" on="1"/>
        <pt x="204" y="0" on="0"/>
        <pt x="100" y="107" on="0"/>
        <pt x="100" y="225" on="1"/>
        <pt x="100" y="343" on="0"/>
        <pt x="174" y="450" on="0"/>
        <pt x="250" y="456" on="1"/>
        <pt x="250" y="1100" on="1"/>
        <pt x="250" y="1182" on="0"/>
        <pt x="150" y="1262" on="1"/>
        <pt x="150" y="1350" on="1"/>
        <pt x="150" y="1500" on="0"/>
        <pt x="340" y="1500" on="1"/>
        <pt x="550" y="1500" on="1"/>
        <pt x="550" y="1300" on="1"/>
        <pt x="380" y="1300" on="1"/>
        <pt x="380" y="1288" on="1"/>
        <pt x="500" y="1208" on="0"/>
        <pt x="500" y="1100" on="1"/>
        <pt x="500" y="850" on="1"/>
        <pt x="1080" y="850" on="1"/>
        <pt x="1080" y="1100" on="1"/>
        <pt x="1080" y="1182" on="0"/>
        <pt x="980" y="1262" on="1"/>
        <pt x="980" y="1350" on="1"/>
        <pt x="980" y="1500" on="0"/>
        <pt x="1170" y="1500" on="1"/>
        <pt x="1380" y="1500" on="1"/>
        <pt x="1380" y="1300" on="1"/>
        <pt x="1210" y="1300" on="1"/>
        <pt x="1210" y="1288" on="1"/>
        <pt x="1330" y="1208" on="0"/>
        <pt x="1330" y="1100" on="1"/>
        <pt x="1330" y="225" on="1"/>
        <pt x="1330" y="107" on="0"/>
        <pt x="1226" y="0" on="0"/>
        <pt x="1130" y="0" on="1"/>
        <pt x="1034" y="0" on="0"/>
        <pt x="930" y="107" on="0"/>
        <pt x="930" y="225" on="1"/>
        <pt x="930" y="343" on="0"/>
        <pt x="1004" y="450" on="0"/>
        <pt x="1080" y="456" on="1"/>
        <pt x="1080" y="650" on="1"/>
        <pt x="500" y="650" on="1"/>
      </contour>
    </TTGlyph>
    <TTGlyph name="uni17A3" xMin="100" yMin="0" xMax="1380" yMax="1500">
      <contour>
        <pt x="300" y="285" on="1"/>
        <pt x="269" y="283" on="0"/>
        <pt x="250" y="257" on="0"/>
        <pt x="250" y="227" on="1"/>
        <pt x="250" y="198" on="0"/>
        <pt x="269" y="171" on="0"/>
        <pt x="300" y="171" on="1"/>
      </contour>
      <contour>
        <pt x="1130" y="285" on="1"/>
        <pt x="1099" y="283" on="0"/>
        <pt x="1080" y="257" on="0"/>
        <pt x="1080" y="227" on="1"/>
        <pt x="1080" y="198" on="0"/>
        <pt x="1099" y="171" on="0"/>
        <pt x="1130" y="171" on="1"/>
      </contour>
      <contour>
        <pt x="500" y="225" on="1"/>
        <pt x="500" y="107" on="0"/>
        <pt x="396" y="0" on="0"/>
        <pt x="300" y="0" on="1"/>
        <pt x="204" y="0" on="0"/>
        <pt x="100" y="107" on="0"/>
        <pt x="100" y="225" on="1"/>
        <pt x="100" y="343" on="0"/>
        <pt x="174" y="450" on="0"/>
        <pt x="250" y="456" on="1"/>
        <pt x="250" y="1100" on="1"/>
        <pt x="250" y="1182" on="0"/>
        <pt x="150" y="1262" on="1"/>
        <pt x="150" y="1350" on="1"/>
        <pt x="150" y="1500" on="0"/>
        <pt x="340" y="1500" on="1"/>
        <pt x="550" y="1500" on="1"/>
        <pt x="550" y="1300" on="1"/>
        <pt x="380" y="1300" on="1"/>
        <pt x="380" y="1288" on="1"/>
        <pt x="500" y="1208" on="0"/>
        <pt x="500" y="1100" on="1"/>
        <pt x="500" y="850" on="1"/>
        <pt x="1080" y="850" on="1"/>
        <pt x="1080" y="1100" on="1"/>
        <pt x="1080" y="1182" on="0"/>
        <pt x="980" y="1262" on="1"/>
        <pt x="980" y="1350" on="1"/>
        <pt x="980" y="1500" on="0"/>
        <pt x="1170" y="1500" on="1"/>
        <pt x="1380" y="1500" on="1"/>
        <pt x="1380" y="1300" on="1"/>
        <pt x="1210" y="1300" on="1"/>
        <pt x="1210" y="1288" on="1"/>
        <pt x="1330" y="1208" on="0"/>
        <pt x="1330" y="1100" on="1"/>
        <pt x="1330" y="225" on="1"/>
        <pt x="1330" y="107" on="0"/>
        <pt x="1226" y="0" on="0"/>
        <pt x="1130" y="0" on="1"/>
        <pt x="1034" y="0" on="0"/>
        <pt x="930" y="107" on="0"/>
        <pt x="930" y="225" on="1"/>
        <pt x="930" y="343" on="0"/>
        <pt x="1004" y="450" on="0"/>
        <pt x="1080" y="456" on="1"/>
        <pt x="1080" y="650" on="1"/>
        <pt x="500" y="650" on="1"/>
      </contour>
    </TTGlyph>
    <TTGlyph name="uni17A4" xMin="100" yMin="0" xMax="2030" yMax="1500">
      <contour>
        <pt x="300" y="285" on="1"/>
        <pt x="269" y="283" on="0"/>
        <pt x="250" y="257" on="0"/>
        <pt x="250" y="227" on="1"/>
        <pt x="250" y="198" on="0"/>
        <pt x="269" y="171" on="0"/>
        <pt x="300" y="171" on="1"/>
      </contour>
      <contour>
        <pt x="1130" y="285" on="1"/>
        <pt x="1099" y="283" on="0"/>
        <pt x="1080" y="257" on="0"/>
        <pt x="1080" y="227" on="1"/>
        <pt x="1080" y="198" on="0"/>
        <pt x="1099" y="171" on="0"/>
        <pt x="1130" y="171" on="1"/>
      </contour>
      <contour>
        <pt x="1210" y="1300" on="1"/>
        <pt x="1210" y="1288" on="1"/>
        <pt x="1330" y="1208" on="0"/>
        <pt x="1330" y="1100" on="1"/>
        <pt x="1330" y="225" on="1"/>
        <pt x="1330" y="107" on="0"/>
        <pt x="1226" y="0" on="0"/>
        <pt x="1130" y="0" on="1"/>
        <pt x="1034" y="0" on="0"/>
        <pt x="930" y="107" on="0"/>
        <pt x="930" y="225" on="1"/>
        <pt x="930" y="343" on="0"/>
        <pt x="1004" y="450" on="0"/>
        <pt x="1080" y="456" on="1"/>
        <pt x="1078" y="650" on="1"/>
        <pt x="498" y="650" on="1"/>
        <pt x="500" y="225" on="1"/>
        <pt x="500" y="107" on="0"/>
        <pt x="396" y="0" on="0"/>
        <pt x="300" y="0" on="1"/>
        <pt x="204" y="0" on="0"/>
        <pt x="100" y="107" on="0"/>
        <pt x="100" y="225" on="1"/>
        <pt x="100" y="343" on="0"/>
        <pt x="174" y="450" on="0"/>
        <pt x="250" y="456" on="1"/>
        <pt x="250" y="1100" on="1"/>
        <pt x="250" y="1182" on="0"/>
        <pt x="150" y="1262" on="1"/>
        <pt x="150" y="1350" on="1"/>
        <pt x="150" y="1500" on="0"/>
        <pt x="340" y="1500" on="1"/>
        <pt x="550" y="1500" on="1"/>
        <pt x="550" y="1300" on="1"/>
        <pt x="380" y="1300" on="1"/>
        <pt x="380" y="1288" on="1"/>
        <pt x="500" y="1208" on="0"/>
        <pt x="500" y="1100" on="1"/>
        <pt x="498" y="850" on="1"/>
        <pt x="1078" y="850" on="1"/>
        <pt x="1080" y="1100" on="1"/>
        <pt x="1080" y="1182" on="0"/>
        <pt x="980" y="1262" on="1"/>
        <pt x="980" y="1350" on="1"/>
        <pt x="980" y="1500" on="0"/>
        <pt x="1170" y="1500" on="1"/>
        <pt x="1590" y="1500" on="1"/>
        <pt x="2030" y="1500" on="0"/>
        <pt x="2030" y="1100" on="1"/>
        <pt x="2030" y="0" on="1"/>
        <pt x="1780" y="0" on="1"/>
        <pt x="1780" y="1100" on="1"/>
        <pt x="1780" y="1300" on="0"/>
        <pt x="1590" y="1300" on="1"/>
      </contour>
    </TTGlyph>
    <TTGlyph name="uni17A5" xMin="200" yMin="0" xMax="1330" yMax="1650">
      <contour>
        <pt x="450" y="171" on="1"/>
        <pt x="481" y="171" on="0"/>
        <pt x="500" y="198" on="0"/>
        <pt x="500" y="227" on="1"/>
        <pt x="500" y="257" on="0"/>
        <pt x="481" y="283" on="0"/>
        <pt x="450" y="285" on="1"/>
      </contour>
      <contour>
        <pt x="250" y="700" on="1"/>
        <pt x="250" y="1200" on="0"/>
        <pt x="790" y="1200" on="1"/>
        <pt x="1330" y="1200" on="0"/>
        <pt x="1330" y="700" on="1"/>
        <pt x="1330" y="0" on="1"/>
        <pt x="1080" y="0" on="1"/>
        <pt x="1080" y="700" on="1"/>
        <pt x="1080" y="1000" on="0"/>
        <pt x="790" y="1000" on="1"/>
        <pt x="500" y="1000" on="0"/>
        <pt x="500" y="700" on="1"/>
        <pt x="500" y="456" on="1"/>
        <pt x="576" y="450" on="0"/>
        <pt x="650" y="343" on="0"/>
        <pt x="650" y="225" on="1"/>
        <pt x="650" y="127" on="0"/>
        <pt x="546" y="0" on="0"/>
        <pt x="450" y="0" on="1"/>
        <pt x="354" y="0" on="0"/>
        <pt x="250" y="117" on="0"/>
        <pt x="250" y="225" on="1"/>
      </contour>
      <contour>
        <pt x="270" y="1070" on="1"/>
        <pt x="250" y="1180" on="0"/>
        <pt x="200" y="1260" on="1"/>
        <pt x="200" y="1300" on="1"/>
        <pt x="200" y="1500" on="0"/>
        <pt x="440" y="1500" on="1"/>
        <pt x="762" y="1500" on="1"/>
        <pt x="992" y="1400" on="1"/>
        <pt x="1050" y="1400" on="1"/>
        <pt x="1080" y="1400" on="0"/>
        <pt x="1080" y="1420" on="1"/>
        <pt x="1080" y="1650" on="1"/>
        <pt x="1330" y="1650" on="1"/>
        <pt x="1330" y="1420" on="1"/>
        <pt x="1330" y="1200" on="0"/>
        <pt x="1120" y="1200" on="1"/>
        <pt x="918" y="1200" on="1"/>
        <pt x="688" y="1300" on="1"/>
        <pt x="510" y="1300" on="1"/>
        <pt x="450" y="1300" on="0"/>
        <pt x="450" y="1280" on="1"/>
        <pt x="500" y="1200" on="0"/>
        <pt x="500" y="1170" on="1"/>
      </contour>
    </TTGlyph>
    <TTGlyph name="uni17A6" xMin="250" yMin="-650" xMax="1930" yMax="2400">
      <contour>
        <pt x="1305" y="-350" on="1"/>
        <pt x="1305" y="-450" on="0"/>
        <pt x="1515" y="-450" on="1"/>
        <pt x="1680" y="-450" on="0"/>
        <pt x="1680" y="-250" on="1"/>
        <pt x="1680" y="1600" on="1"/>
        <pt x="1680" y="1800" on="0"/>
        <pt x="1490" y="1800" on="1"/>
        <pt x="1080" y="1800" on="1"/>
        <pt x="1080" y="2150" on="1"/>
        <pt x="1080" y="2200" on="0"/>
        <pt x="1040" y="2200" on="1"/>
        <pt x="1000" y="2200" on="1"/>
        <pt x="1000" y="2400" on="1"/>
        <pt x="1090" y="2400" on="1"/>
        <pt x="1330" y="2400" on="0"/>
        <pt x="1330" y="2200" on="1"/>
        <pt x="1330" y="2000" on="1"/>
        <pt x="1490" y="2000" on="1"/>
        <pt x="1930" y="2000" on="0"/>
        <pt x="1930" y="1600" on="1"/>
        <pt x="1930" y="-250" on="1"/>
        <pt x="1930" y="-650" on="0"/>
        <pt x="1515" y="-650" on="1"/>
        <pt x="1075" y="-650" on="0"/>
        <pt x="1075" y="-400" on="1"/>
        <pt x="1075" y="-300" on="0"/>
        <pt x="790" y="-300" on="1"/>
        <pt x="530" y="-300" on="0"/>
        <pt x="530" y="-430" on="1"/>
        <pt x="539" y="-430" on="0"/>
        <pt x="630" y="-509" on="0"/>
        <pt x="630" y="-540" on="1"/>
        <pt x="630" y="-571" on="0"/>
        <pt x="539" y="-650" on="0"/>
        <pt x="465" y="-650" on="1"/>
        <pt x="391" y="-650" on="0"/>
        <pt x="300" y="-571" on="0"/>
        <pt x="300" y="-515" on="1"/>
        <pt x="300" y="-400" on="1"/>
        <pt x="300" y="-100" on="0"/>
        <pt x="790" y="-100" on="1"/>
        <pt x="1305" y="-100" on="0"/>
      </contour>
      <contour>
        <pt x="450" y="171" on="1"/>
        <pt x="481" y="171" on="0"/>
        <pt x="500" y="198" on="0"/>
        <pt x="500" y="227" on="1"/>
        <pt x="500" y="257" on="0"/>
        <pt x="481" y="283" on="0"/>
        <pt x="450" y="285" on="1"/>
      </contour>
      <contour>
        <pt x="250" y="1000" on="1"/>
        <pt x="250" y="1500" on="0"/>
        <pt x="790" y="1500" on="1"/>
        <pt x="1330" y="1500" on="0"/>
        <pt x="1330" y="1000" on="1"/>
        <pt x="1330" y="0" on="1"/>
        <pt x="1080" y="0" on="1"/>
        <pt x="1080" y="1000" on="1"/>
        <pt x="1080" y="1300" on="0"/>
        <pt x="790" y="1300" on="1"/>
        <pt x="500" y="1300" on="0"/>
        <pt x="500" y="1000" on="1"/>
        <pt x="500" y="456" on="1"/>
        <pt x="576" y="450" on="0"/>
        <pt x="650" y="343" on="0"/>
        <pt x="650" y="225" on="1"/>
        <pt x="650" y="127" on="0"/>
        <pt x="546" y="0" on="0"/>
        <pt x="450" y="0" on="1"/>
        <pt x="354" y="0" on="0"/>
        <pt x="250" y="117" on="0"/>
        <pt x="250" y="225" on="1"/>
      </contour>
    </TTGlyph>
    <TTGlyph name="uni17A7" xMin="250" yMin="0" xMax="1330" yMax="1500">
      <contour>
        <pt x="250" y="654" on="1"/>
        <pt x="1080" y="794" on="0"/>
        <pt x="1080" y="1100" on="1"/>
        <pt x="1080" y="1300" on="0"/>
        <pt x="790" y="1300" on="1"/>
        <pt x="500" y="1300" on="0"/>
        <pt x="500" y="1100" on="1"/>
        <pt x="500" y="979" on="0"/>
        <pt x="554" y="979" on="1"/>
        <pt x="588" y="979" on="0"/>
        <pt x="710" y="1015" on="1"/>
        <pt x="710" y="862" on="1"/>
        <pt x="655" y="821" on="0"/>
        <pt x="568" y="821" on="1"/>
        <pt x="250" y="821" on="0"/>
        <pt x="250" y="1100" on="1"/>
        <pt x="250" y="1500" on="0"/>
        <pt x="790" y="1500" on="1"/>
        <pt x="1330" y="1500" on="0"/>
        <pt x="1330" y="1100" on="1"/>
        <pt x="1330" y="687" on="0"/>
        <pt x="500" y="507" on="1"/>
        <pt x="500" y="400" on="1"/>
        <pt x="500" y="200" on="0"/>
        <pt x="570" y="200" on="1"/>
        <pt x="700" y="200" on="0"/>
        <pt x="1080" y="468" on="1"/>
        <pt x="1080" y="600" on="1"/>
        <pt x="1330" y="600" on="1"/>
        <pt x="1330" y="0" on="1"/>
        <pt x="1080" y="0" on="1"/>
        <pt x="1080" y="242" on="1"/>
        <pt x="802" y="0" on="0"/>
        <pt x="570" y="0" on="1"/>
        <pt x="250" y="0" on="0"/>
        <pt x="250" y="400" on="1"/>
      </contour>
    </TTGlyph>
    <TTGlyph name="uni17A8" xMin="250" yMin="0" xMax="1330" yMax="1863">
      <contour>
        <pt x="790" y="1539" on="1"/>
        <pt x="544" y="1627" on="1"/>
        <pt x="302" y="1503" on="1"/>
        <pt x="254" y="1721" on="1"/>
        <pt x="536" y="1863" on="1"/>
        <pt x="790" y="1741" on="1"/>
        <pt x="1044" y="1863" on="1"/>
        <pt x="1326" y="1721" on="1"/>
        <pt x="1278" y="1503" on="1"/>
        <pt x="1036" y="1627" on="1"/>
      </contour>
      <contour>
        <pt x="250" y="654" on="1"/>
        <pt x="1080" y="794" on="0"/>
        <pt x="1080" y="1100" on="1"/>
        <pt x="1080" y="1300" on="0"/>
        <pt x="790" y="1300" on="1"/>
        <pt x="500" y="1300" on="0"/>
        <pt x="500" y="1100" on="1"/>
        <pt x="500" y="979" on="0"/>
        <pt x="554" y="979" on="1"/>
        <pt x="588" y="979" on="0"/>
        <pt x="710" y="1015" on="1"/>
        <pt x="710" y="862" on="1"/>
        <pt x="655" y="821" on="0"/>
        <pt x="568" y="821" on="1"/>
        <pt x="250" y="821" on="0"/>
        <pt x="250" y="1100" on="1"/>
        <pt x="250" y="1500" on="0"/>
        <pt x="790" y="1500" on="1"/>
        <pt x="1330" y="1500" on="0"/>
        <pt x="1330" y="1100" on="1"/>
        <pt x="1330" y="687" on="0"/>
        <pt x="500" y="507" on="1"/>
        <pt x="500" y="400" on="1"/>
        <pt x="500" y="200" on="0"/>
        <pt x="570" y="200" on="1"/>
        <pt x="700" y="200" on="0"/>
        <pt x="1080" y="468" on="1"/>
        <pt x="1080" y="600" on="1"/>
        <pt x="1330" y="600" on="1"/>
        <pt x="1330" y="0" on="1"/>
        <pt x="1080" y="0" on="1"/>
        <pt x="1080" y="242" on="1"/>
        <pt x="802" y="0" on="0"/>
        <pt x="570" y="0" on="1"/>
        <pt x="250" y="0" on="0"/>
        <pt x="250" y="400" on="1"/>
      </contour>
    </TTGlyph>
    <TTGlyph name="uni17A9" xMin="250" yMin="0" xMax="1380" yMax="1500">
      <contour>
        <pt x="930" y="468" on="1"/>
        <pt x="930" y="600" on="1"/>
        <pt x="1130" y="600" on="1"/>
        <pt x="1130" y="0" on="1"/>
        <pt x="930" y="0" on="1"/>
        <pt x="930" y="242" on="1"/>
        <pt x="802" y="0" on="0"/>
        <pt x="570" y="0" on="1"/>
        <pt x="250" y="0" on="0"/>
        <pt x="250" y="400" on="1"/>
        <pt x="250" y="654" on="1"/>
        <pt x="1080" y="794" on="0"/>
        <pt x="1080" y="1100" on="1"/>
        <pt x="1080" y="1300" on="0"/>
        <pt x="790" y="1300" on="1"/>
        <pt x="500" y="1300" on="0"/>
        <pt x="500" y="1100" on="1"/>
        <pt x="500" y="979" on="0"/>
        <pt x="554" y="979" on="1"/>
        <pt x="588" y="979" on="0"/>
        <pt x="710" y="1015" on="1"/>
        <pt x="710" y="862" on="1"/>
        <pt x="655" y="821" on="0"/>
        <pt x="568" y="821" on="1"/>
        <pt x="250" y="821" on="0"/>
        <pt x="250" y="1100" on="1"/>
        <pt x="250" y="1500" on="0"/>
        <pt x="790" y="1500" on="1"/>
        <pt x="1330" y="1500" on="0"/>
        <pt x="1330" y="1100" on="1"/>
        <pt x="1330" y="687" on="0"/>
        <pt x="500" y="507" on="1"/>
        <pt x="500" y="400" on="1"/>
        <pt x="500" y="200" on="0"/>
        <pt x="570" y="200" on="1"/>
        <pt x="700" y="200" on="0"/>
      </contour>
      <contour>
        <pt x="1180" y="600" on="1"/>
        <pt x="1380" y="600" on="1"/>
        <pt x="1380" y="0" on="1"/>
        <pt x="1180" y="0" on="1"/>
      </contour>
    </TTGlyph>
    <TTGlyph name="uni17AA" xMin="200" yMin="0" xMax="1330" yMax="1950">
      <contour>
        <pt x="250" y="654" on="1"/>
        <pt x="1080" y="794" on="0"/>
        <pt x="1080" y="1100" on="1"/>
        <pt x="1080" y="1300" on="0"/>
        <pt x="790" y="1300" on="1"/>
        <pt x="500" y="1300" on="0"/>
        <pt x="500" y="1100" on="1"/>
        <pt x="500" y="979" on="0"/>
        <pt x="554" y="979" on="1"/>
        <pt x="588" y="979" on="0"/>
        <pt x="710" y="1015" on="1"/>
        <pt x="710" y="862" on="1"/>
        <pt x="655" y="821" on="0"/>
        <pt x="568" y="821" on="1"/>
        <pt x="250" y="821" on="0"/>
        <pt x="250" y="1100" on="1"/>
        <pt x="250" y="1500" on="0"/>
        <pt x="790" y="1500" on="1"/>
        <pt x="1330" y="1500" on="0"/>
        <pt x="1330" y="1100" on="1"/>
        <pt x="1330" y="687" on="0"/>
        <pt x="500" y="507" on="1"/>
        <pt x="500" y="400" on="1"/>
        <pt x="500" y="200" on="0"/>
        <pt x="570" y="200" on="1"/>
        <pt x="700" y="200" on="0"/>
        <pt x="1080" y="468" on="1"/>
        <pt x="1080" y="600" on="1"/>
        <pt x="1330" y="600" on="1"/>
        <pt x="1330" y="0" on="1"/>
        <pt x="1080" y="0" on="1"/>
        <pt x="1080" y="242" on="1"/>
        <pt x="802" y="0" on="0"/>
        <pt x="570" y="0" on="1"/>
        <pt x="250" y="0" on="0"/>
        <pt x="250" y="400" on="1"/>
      </contour>
      <contour>
        <pt x="270" y="1370" on="1"/>
        <pt x="250" y="1480" on="0"/>
        <pt x="200" y="1560" on="1"/>
        <pt x="200" y="1600" on="1"/>
        <pt x="200" y="1800" on="0"/>
        <pt x="440" y="1800" on="1"/>
        <pt x="762" y="1800" on="1"/>
        <pt x="992" y="1700" on="1"/>
        <pt x="1050" y="1700" on="1"/>
        <pt x="1080" y="1700" on="0"/>
        <pt x="1080" y="1720" on="1"/>
        <pt x="1080" y="1950" on="1"/>
        <pt x="1330" y="1950" on="1"/>
        <pt x="1330" y="1720" on="1"/>
        <pt x="1330" y="1500" on="0"/>
        <pt x="1120" y="1500" on="1"/>
        <pt x="918" y="1500" on="1"/>
        <pt x="688" y="1600" on="1"/>
        <pt x="510" y="1600" on="1"/>
        <pt x="450" y="1600" on="0"/>
        <pt x="450" y="1580" on="1"/>
        <pt x="500" y="1500" on="0"/>
        <pt x="500" y="1470" on="1"/>
      </contour>
    </TTGlyph>
    <TTGlyph name="uni17AB" xMin="150" yMin="-500" xMax="1380" yMax="1500">
      <contour>
        <pt x="1330" y="-50" on="1"/>
        <pt x="1330" y="-187" on="1"/>
        <pt x="1330" y="-500" on="0"/>
        <pt x="763" y="-500" on="1"/>
        <pt x="465" y="-500" on="0"/>
        <pt x="213" y="-366" on="1"/>
        <pt x="274" y="-149" on="1"/>
        <pt x="528" y="-300" on="0"/>
        <pt x="763" y="-300" on="1"/>
        <pt x="1080" y="-300" on="0"/>
        <pt x="1080" y="-187" on="1"/>
        <pt x="1080" y="-50" on="1"/>
      </contour>
      <contour>
        <pt x="1080" y="1100" on="1"/>
        <pt x="1080" y="1182" on="0"/>
        <pt x="980" y="1262" on="1"/>
        <pt x="980" y="1350" on="1"/>
        <pt x="980" y="1500" on="0"/>
        <pt x="1170" y="1500" on="1"/>
        <pt x="1380" y="1500" on="1"/>
        <pt x="1380" y="1300" on="1"/>
        <pt x="1210" y="1300" on="1"/>
        <pt x="1210" y="1288" on="1"/>
        <pt x="1330" y="1208" on="0"/>
        <pt x="1330" y="1100" on="1"/>
        <pt x="1330" y="500" on="1"/>
        <pt x="1330" y="0" on="0"/>
        <pt x="790" y="0" on="1"/>
        <pt x="250" y="0" on="0"/>
        <pt x="250" y="500" on="1"/>
        <pt x="250" y="1100" on="1"/>
        <pt x="250" y="1182" on="0"/>
        <pt x="150" y="1262" on="1"/>
        <pt x="150" y="1350" on="1"/>
        <pt x="150" y="1500" on="0"/>
        <pt x="340" y="1500" on="1"/>
        <pt x="550" y="1500" on="1"/>
        <pt x="550" y="1300" on="1"/>
        <pt x="380" y="1300" on="1"/>
        <pt x="380" y="1288" on="1"/>
        <pt x="500" y="1208" on="0"/>
        <pt x="500" y="1100" on="1"/>
        <pt x="500" y="500" on="1"/>
        <pt x="500" y="200" on="0"/>
        <pt x="790" y="200" on="1"/>
        <pt x="1080" y="200" on="0"/>
        <pt x="1080" y="500" on="1"/>
      </contour>
    </TTGlyph>
    <TTGlyph name="uni17AC" xMin="150" yMin="-600" xMax="1380" yMax="1500">
      <contour>
        <pt x="1221" y="-379" on="1"/>
        <pt x="1282" y="-400" on="0"/>
        <pt x="1380" y="-400" on="1"/>
        <pt x="1380" y="-600" on="1"/>
        <pt x="1196" y="-600" on="0"/>
        <pt x="1127" y="-549" on="1"/>
        <pt x="1082" y="-516" on="0"/>
        <pt x="1046" y="-472" on="1"/>
        <pt x="960" y="-500" on="0"/>
        <pt x="763" y="-500" on="1"/>
        <pt x="465" y="-500" on="0"/>
        <pt x="213" y="-366" on="1"/>
        <pt x="274" y="-149" on="1"/>
        <pt x="528" y="-300" on="0"/>
        <pt x="763" y="-300" on="1"/>
        <pt x="1080" y="-300" on="0"/>
        <pt x="1080" y="-187" on="1"/>
        <pt x="1080" y="-50" on="1"/>
        <pt x="1330" y="-50" on="1"/>
        <pt x="1330" y="-187" on="1"/>
        <pt x="1330" y="-288" on="0"/>
      </contour>
      <contour>
        <pt x="1080" y="1100" on="1"/>
        <pt x="1080" y="1182" on="0"/>
        <pt x="980" y="1262" on="1"/>
        <pt x="980" y="1350" on="1"/>
        <pt x="980" y="1500" on="0"/>
        <pt x="1170" y="1500" on="1"/>
        <pt x="1380" y="1500" on="1"/>
        <pt x="1380" y="1300" on="1"/>
        <pt x="1210" y="1300" on="1"/>
        <pt x="1210" y="1288" on="1"/>
        <pt x="1330" y="1208" on="0"/>
        <pt x="1330" y="1100" on="1"/>
        <pt x="1330" y="500" on="1"/>
        <pt x="1330" y="0" on="0"/>
        <pt x="790" y="0" on="1"/>
        <pt x="250" y="0" on="0"/>
        <pt x="250" y="500" on="1"/>
        <pt x="250" y="1100" on="1"/>
        <pt x="250" y="1182" on="0"/>
        <pt x="150" y="1262" on="1"/>
        <pt x="150" y="1350" on="1"/>
        <pt x="150" y="1500" on="0"/>
        <pt x="340" y="1500" on="1"/>
        <pt x="550" y="1500" on="1"/>
        <pt x="550" y="1300" on="1"/>
        <pt x="380" y="1300" on="1"/>
        <pt x="380" y="1288" on="1"/>
        <pt x="500" y="1208" on="0"/>
        <pt x="500" y="1100" on="1"/>
        <pt x="500" y="500" on="1"/>
        <pt x="500" y="200" on="0"/>
        <pt x="790" y="200" on="1"/>
        <pt x="1080" y="200" on="0"/>
        <pt x="1080" y="500" on="1"/>
      </contour>
    </TTGlyph>
    <TTGlyph name="uni17AD" xMin="213" yMin="-500" xMax="1330" yMax="1527">
      <contour>
        <pt x="450" y="171" on="1"/>
        <pt x="481" y="171" on="0"/>
        <pt x="500" y="198" on="0"/>
        <pt x="500" y="227" on="1"/>
        <pt x="500" y="257" on="0"/>
        <pt x="481" y="283" on="0"/>
        <pt x="450" y="285" on="1"/>
      </contour>
      <contour>
        <pt x="1080" y="1121" on="1"/>
        <pt x="1009" y="1210" on="1"/>
        <pt x="790" y="1053" on="1"/>
        <pt x="571" y="1210" on="1"/>
        <pt x="500" y="1121" on="1"/>
        <pt x="500" y="456" on="1"/>
        <pt x="576" y="450" on="0"/>
        <pt x="650" y="343" on="0"/>
        <pt x="650" y="225" on="1"/>
        <pt x="650" y="127" on="0"/>
        <pt x="546" y="0" on="0"/>
        <pt x="450" y="0" on="1"/>
        <pt x="354" y="0" on="0"/>
        <pt x="250" y="117" on="0"/>
        <pt x="250" y="225" on="1"/>
        <pt x="250" y="1189" on="1"/>
        <pt x="543" y="1527" on="1"/>
        <pt x="790" y="1321" on="1"/>
        <pt x="1037" y="1527" on="1"/>
        <pt x="1330" y="1189" on="1"/>
        <pt x="1330" y="-187" on="1"/>
        <pt x="1330" y="-500" on="0"/>
        <pt x="763" y="-500" on="1"/>
        <pt x="465" y="-500" on="0"/>
        <pt x="213" y="-366" on="1"/>
        <pt x="274" y="-149" on="1"/>
        <pt x="528" y="-300" on="0"/>
        <pt x="763" y="-300" on="1"/>
        <pt x="1080" y="-300" on="0"/>
        <pt x="1080" y="-187" on="1"/>
      </contour>
    </TTGlyph>
    <TTGlyph name="uni17AE" xMin="213" yMin="-600" xMax="1380" yMax="1527">
      <contour>
        <pt x="450" y="171" on="1"/>
        <pt x="481" y="171" on="0"/>
        <pt x="500" y="198" on="0"/>
        <pt x="500" y="227" on="1"/>
        <pt x="500" y="257" on="0"/>
        <pt x="481" y="283" on="0"/>
        <pt x="450" y="285" on="1"/>
      </contour>
      <contour>
        <pt x="1080" y="1121" on="1"/>
        <pt x="1009" y="1210" on="1"/>
        <pt x="790" y="1053" on="1"/>
        <pt x="571" y="1210" on="1"/>
        <pt x="500" y="1121" on="1"/>
        <pt x="500" y="456" on="1"/>
        <pt x="576" y="450" on="0"/>
        <pt x="650" y="343" on="0"/>
        <pt x="650" y="225" on="1"/>
        <pt x="650" y="127" on="0"/>
        <pt x="546" y="0" on="0"/>
        <pt x="450" y="0" on="1"/>
        <pt x="354" y="0" on="0"/>
        <pt x="250" y="117" on="0"/>
        <pt x="250" y="225" on="1"/>
        <pt x="250" y="1189" on="1"/>
        <pt x="543" y="1527" on="1"/>
        <pt x="790" y="1321" on="1"/>
        <pt x="1037" y="1527" on="1"/>
        <pt x="1330" y="1189" on="1"/>
        <pt x="1330" y="-187" on="1"/>
        <pt x="1330" y="-288" on="0"/>
        <pt x="1221" y="-379" on="1"/>
        <pt x="1282" y="-400" on="0"/>
        <pt x="1380" y="-400" on="1"/>
        <pt x="1380" y="-600" on="1"/>
        <pt x="1196" y="-600" on="0"/>
        <pt x="1127" y="-549" on="1"/>
        <pt x="1082" y="-516" on="0"/>
        <pt x="1046" y="-472" on="1"/>
        <pt x="960" y="-500" on="0"/>
        <pt x="763" y="-500" on="1"/>
        <pt x="465" y="-500" on="0"/>
        <pt x="213" y="-366" on="1"/>
        <pt x="274" y="-149" on="1"/>
        <pt x="528" y="-300" on="0"/>
        <pt x="763" y="-300" on="1"/>
        <pt x="1080" y="-300" on="0"/>
        <pt x="1080" y="-187" on="1"/>
      </contour>
    </TTGlyph>
    <TTGlyph name="uni17AF" xMin="100" yMin="0" xMax="1330" yMax="1900">
      <contour>
        <pt x="300" y="729" on="1"/>
        <pt x="269" y="729" on="0"/>
        <pt x="250" y="702" on="0"/>
        <pt x="250" y="673" on="1"/>
        <pt x="250" y="643" on="0"/>
        <pt x="269" y="617" on="0"/>
        <pt x="300" y="615" on="1"/>
      </contour>
      <contour>
        <pt x="1080" y="1100" on="1"/>
        <pt x="1080" y="1300" on="0"/>
        <pt x="790" y="1300" on="1"/>
        <pt x="500" y="1300" on="0"/>
        <pt x="500" y="1100" on="1"/>
        <pt x="250" y="1100" on="1"/>
        <pt x="250" y="1650" on="1"/>
        <pt x="250" y="1700" on="0"/>
        <pt x="190" y="1700" on="1"/>
        <pt x="100" y="1700" on="1"/>
        <pt x="100" y="1900" on="1"/>
        <pt x="190" y="1900" on="1"/>
        <pt x="500" y="1900" on="0"/>
        <pt x="500" y="1700" on="1"/>
        <pt x="500" y="1461" on="1"/>
        <pt x="534" y="1500" on="0"/>
        <pt x="790" y="1500" on="1"/>
        <pt x="1330" y="1500" on="0"/>
        <pt x="1330" y="1100" on="1"/>
        <pt x="1330" y="0" on="1"/>
        <pt x="1062" y="0" on="1"/>
        <pt x="790" y="272" on="1"/>
        <pt x="518" y="0" on="1"/>
        <pt x="250" y="0" on="1"/>
        <pt x="250" y="444" on="1"/>
        <pt x="174" y="450" on="0"/>
        <pt x="100" y="557" on="0"/>
        <pt x="100" y="675" on="1"/>
        <pt x="100" y="793" on="0"/>
        <pt x="174" y="900" on="0"/>
        <pt x="300" y="900" on="1"/>
        <pt x="426" y="900" on="0"/>
        <pt x="500" y="793" on="0"/>
        <pt x="500" y="675" on="1"/>
        <pt x="500" y="261" on="1"/>
        <pt x="790" y="524" on="1"/>
        <pt x="1080" y="261" on="1"/>
      </contour>
    </TTGlyph>
    <TTGlyph name="uni17B0" xMin="250" yMin="-550" xMax="1330" yMax="1527">
      <contour>
        <pt x="961" y="-248" on="1"/>
        <pt x="1028" y="-310" on="0"/>
        <pt x="1058" y="-310" on="1"/>
        <pt x="1074" y="-310" on="0"/>
        <pt x="1120" y="-282" on="0"/>
        <pt x="1120" y="-247" on="1"/>
        <pt x="1117" y="-223" on="0"/>
        <pt x="1078" y="-223" on="1"/>
        <pt x="1038" y="-223" on="0"/>
      </contour>
      <contour>
        <pt x="450" y="171" on="1"/>
        <pt x="481" y="171" on="0"/>
        <pt x="500" y="198" on="0"/>
        <pt x="500" y="227" on="1"/>
        <pt x="500" y="257" on="0"/>
        <pt x="481" y="283" on="0"/>
        <pt x="450" y="285" on="1"/>
      </contour>
      <contour>
        <pt x="844" y="-283" on="1"/>
        <pt x="736" y="-318" on="0"/>
        <pt x="660" y="-333" on="1"/>
        <pt x="660" y="-400" on="0"/>
        <pt x="730" y="-400" on="1"/>
        <pt x="794" y="-400" on="0"/>
      </contour>
      <contour>
        <pt x="1330" y="0" on="1"/>
        <pt x="1330" y="-251" on="0"/>
        <pt x="1230" y="-450" on="0"/>
        <pt x="1104" y="-450" on="1"/>
        <pt x="970" y="-450" on="0"/>
        <pt x="953" y="-428" on="1"/>
        <pt x="929" y="-550" on="0"/>
        <pt x="700" y="-550" on="1"/>
        <pt x="450" y="-550" on="0"/>
        <pt x="450" y="-340" on="1"/>
        <pt x="450" y="-215" on="0"/>
        <pt x="660" y="-186" on="0"/>
        <pt x="1011" y="-100" on="0"/>
        <pt x="1080" y="-10" on="1"/>
        <pt x="1080" y="1121" on="1"/>
        <pt x="1009" y="1210" on="1"/>
        <pt x="790" y="1053" on="1"/>
        <pt x="571" y="1210" on="1"/>
        <pt x="500" y="1121" on="1"/>
        <pt x="500" y="456" on="1"/>
        <pt x="576" y="450" on="0"/>
        <pt x="650" y="343" on="0"/>
        <pt x="650" y="225" on="1"/>
        <pt x="650" y="127" on="0"/>
        <pt x="546" y="0" on="0"/>
        <pt x="450" y="0" on="1"/>
        <pt x="354" y="0" on="0"/>
        <pt x="250" y="117" on="0"/>
        <pt x="250" y="225" on="1"/>
        <pt x="250" y="1189" on="1"/>
        <pt x="543" y="1527" on="1"/>
        <pt x="790" y="1321" on="1"/>
        <pt x="1037" y="1527" on="1"/>
        <pt x="1330" y="1189" on="1"/>
      </contour>
    </TTGlyph>
    <TTGlyph name="uni17B1" xMin="250" yMin="0" xMax="1330" yMax="1900">
      <contour>
        <pt x="500" y="1638" on="0"/>
        <pt x="509" y="1638" on="1"/>
        <pt x="517" y="1638" on="0"/>
        <pt x="529" y="1667" on="1"/>
        <pt x="640" y="1630" on="0"/>
        <pt x="640" y="1579" on="1"/>
        <pt x="640" y="1500" on="0"/>
        <pt x="488" y="1500" on="1"/>
        <pt x="250" y="1500" on="0"/>
        <pt x="250" y="1685" on="1"/>
        <pt x="250" y="1778" on="0"/>
        <pt x="449" y="1900" on="0"/>
        <pt x="630" y="1900" on="1"/>
        <pt x="851" y="1900" on="0"/>
        <pt x="1318" y="1636" on="1"/>
        <pt x="1214" y="1479" on="1"/>
        <pt x="769" y="1700" on="0"/>
        <pt x="625" y="1700" on="1"/>
        <pt x="528" y="1700" on="0"/>
        <pt x="504" y="1676" on="1"/>
        <pt x="487" y="1659" on="0"/>
        <pt x="487" y="1651" on="1"/>
        <pt x="487" y="1647" on="0"/>
        <pt x="490" y="1645" on="1"/>
      </contour>
      <contour>
        <pt x="250" y="654" on="1"/>
        <pt x="1080" y="794" on="0"/>
        <pt x="1080" y="1100" on="1"/>
        <pt x="1080" y="1300" on="0"/>
        <pt x="790" y="1300" on="1"/>
        <pt x="500" y="1300" on="0"/>
        <pt x="500" y="1100" on="1"/>
        <pt x="500" y="979" on="0"/>
        <pt x="554" y="979" on="1"/>
        <pt x="588" y="979" on="0"/>
        <pt x="710" y="1015" on="1"/>
        <pt x="710" y="862" on="1"/>
        <pt x="655" y="821" on="0"/>
        <pt x="568" y="821" on="1"/>
        <pt x="250" y="821" on="0"/>
        <pt x="250" y="1100" on="1"/>
        <pt x="250" y="1500" on="0"/>
        <pt x="790" y="1500" on="1"/>
        <pt x="1330" y="1500" on="0"/>
        <pt x="1330" y="1100" on="1"/>
        <pt x="1330" y="687" on="0"/>
        <pt x="500" y="507" on="1"/>
        <pt x="500" y="400" on="1"/>
        <pt x="500" y="200" on="0"/>
        <pt x="570" y="200" on="1"/>
        <pt x="700" y="200" on="0"/>
        <pt x="1080" y="468" on="1"/>
        <pt x="1080" y="600" on="1"/>
        <pt x="1330" y="600" on="1"/>
        <pt x="1330" y="0" on="1"/>
        <pt x="1080" y="0" on="1"/>
        <pt x="1080" y="242" on="1"/>
        <pt x="802" y="0" on="0"/>
        <pt x="570" y="0" on="1"/>
        <pt x="250" y="0" on="0"/>
        <pt x="250" y="400" on="1"/>
      </contour>
    </TTGlyph>
    <TTGlyph name="uni17B2" xMin="250" yMin="0" xMax="1335" yMax="1500">
      <contour>
        <pt x="1330" y="405" on="1"/>
        <pt x="1330" y="0" on="0"/>
        <pt x="790" y="0" on="1"/>
        <pt x="250" y="0" on="0"/>
        <pt x="250" y="500" on="1"/>
        <pt x="250" y="1000" on="1"/>
        <pt x="250" y="1500" on="0"/>
        <pt x="790" y="1500" on="1"/>
        <pt x="1330" y="1500" on="0"/>
        <pt x="1330" y="1200" on="1"/>
        <pt x="1080" y="1200" on="1"/>
        <pt x="1080" y="1300" on="0"/>
        <pt x="790" y="1300" on="1"/>
        <pt x="500" y="1300" on="0"/>
        <pt x="500" y="1000" on="1"/>
        <pt x="500" y="500" on="1"/>
        <pt x="500" y="200" on="0"/>
        <pt x="790" y="200" on="1"/>
        <pt x="1080" y="200" on="0"/>
        <pt x="1080" y="405" on="1"/>
        <pt x="1085" y="405" on="1"/>
        <pt x="1085" y="555" on="0"/>
        <pt x="995" y="555" on="1"/>
        <pt x="865" y="555" on="1"/>
        <pt x="865" y="755" on="1"/>
        <pt x="995" y="755" on="1"/>
        <pt x="1085" y="755" on="0"/>
        <pt x="1085" y="830" on="1"/>
        <pt x="1085" y="905" on="0"/>
        <pt x="995" y="905" on="1"/>
        <pt x="875" y="905" on="1"/>
        <pt x="875" y="1105" on="1"/>
        <pt x="995" y="1105" on="1"/>
        <pt x="1335" y="1105" on="0"/>
        <pt x="1335" y="855" on="1"/>
        <pt x="1335" y="724" on="0"/>
        <pt x="1219" y="651" on="1"/>
        <pt x="1335" y="565" on="0"/>
        <pt x="1335" y="405" on="1"/>
      </contour>
    </TTGlyph>
    <TTGlyph name="uni17B3" xMin="250" yMin="0" xMax="1430" yMax="2100">
      <contour>
        <pt x="1100" y="1751" on="1"/>
        <pt x="1100" y="1900" on="1"/>
        <pt x="1100" y="2100" on="0"/>
        <pt x="1340" y="2100" on="1"/>
        <pt x="1430" y="2100" on="1"/>
        <pt x="1430" y="1900" on="1"/>
        <pt x="1340" y="1900" on="1"/>
        <pt x="1330" y="1900" on="0"/>
        <pt x="1330" y="1850" on="1"/>
        <pt x="1330" y="1621" on="1"/>
        <pt x="1214" y="1479" on="1"/>
        <pt x="769" y="1700" on="0"/>
        <pt x="625" y="1700" on="1"/>
        <pt x="528" y="1700" on="0"/>
        <pt x="504" y="1676" on="1"/>
        <pt x="487" y="1659" on="0"/>
        <pt x="487" y="1651" on="1"/>
        <pt x="487" y="1647" on="0"/>
        <pt x="490" y="1645" on="1"/>
        <pt x="500" y="1638" on="0"/>
        <pt x="509" y="1638" on="1"/>
        <pt x="517" y="1638" on="0"/>
        <pt x="529" y="1667" on="1"/>
        <pt x="640" y="1630" on="0"/>
        <pt x="640" y="1579" on="1"/>
        <pt x="640" y="1500" on="0"/>
        <pt x="488" y="1500" on="1"/>
        <pt x="250" y="1500" on="0"/>
        <pt x="250" y="1685" on="1"/>
        <pt x="250" y="1778" on="0"/>
        <pt x="449" y="1900" on="0"/>
        <pt x="630" y="1900" on="1"/>
        <pt x="796" y="1900" on="0"/>
      </contour>
      <contour>
        <pt x="250" y="654" on="1"/>
        <pt x="1080" y="794" on="0"/>
        <pt x="1080" y="1100" on="1"/>
        <pt x="1080" y="1300" on="0"/>
        <pt x="790" y="1300" on="1"/>
        <pt x="500" y="1300" on="0"/>
        <pt x="500" y="1100" on="1"/>
        <pt x="500" y="979" on="0"/>
        <pt x="554" y="979" on="1"/>
        <pt x="588" y="979" on="0"/>
        <pt x="710" y="1015" on="1"/>
        <pt x="710" y="862" on="1"/>
        <pt x="655" y="821" on="0"/>
        <pt x="568" y="821" on="1"/>
        <pt x="250" y="821" on="0"/>
        <pt x="250" y="1100" on="1"/>
        <pt x="250" y="1500" on="0"/>
        <pt x="790" y="1500" on="1"/>
        <pt x="1330" y="1500" on="0"/>
        <pt x="1330" y="1100" on="1"/>
        <pt x="1330" y="687" on="0"/>
        <pt x="500" y="507" on="1"/>
        <pt x="500" y="400" on="1"/>
        <pt x="500" y="200" on="0"/>
        <pt x="570" y="200" on="1"/>
        <pt x="700" y="200" on="0"/>
        <pt x="1080" y="468" on="1"/>
        <pt x="1080" y="600" on="1"/>
        <pt x="1330" y="600" on="1"/>
        <pt x="1330" y="0" on="1"/>
        <pt x="1080" y="0" on="1"/>
        <pt x="1080" y="242" on="1"/>
        <pt x="802" y="0" on="0"/>
        <pt x="570" y="0" on="1"/>
        <pt x="250" y="0" on="0"/>
        <pt x="250" y="400" on="1"/>
      </contour>
    </TTGlyph>
    <TTGlyph name="uni17B6" xMin="-250" yMin="0" xMax="500" yMax="1500">
      <contour>
        <pt x="-250" y="1500" on="1"/>
        <pt x="-10" y="1500" on="1"/>
        <pt x="500" y="1500" on="0"/>
        <pt x="500" y="1100" on="1"/>
        <pt x="500" y="0" on="1"/>
        <pt x="250" y="0" on="1"/>
        <pt x="250" y="1100" on="1"/>
        <pt x="250" y="1300" on="0"/>
        <pt x="-10" y="1300" on="1"/>
        <pt x="-250" y="1300" on="1"/>
      </contour>
    </TTGlyph>
    <TTGlyph name="uni17B7" xMin="-1200" yMin="1800" xMax="-250" yMax="2250">
      <contour>
        <pt x="-1200" y="2000" on="1"/>
        <pt x="-1200" y="2250" on="0"/>
        <pt x="-800" y="2250" on="1"/>
        <pt x="-600" y="2250" on="0"/>
        <pt x="-250" y="1980" on="0"/>
        <pt x="-250" y="1930" on="1"/>
        <pt x="-250" y="1800" on="1"/>
        <pt x="-950" y="1800" on="1"/>
        <pt x="-1200" y="1800" on="0"/>
      </contour>
      <contour>
        <pt x="-1000" y="1995" on="1"/>
        <pt x="-1000" y="1940" on="0"/>
        <pt x="-900" y="1940" on="1"/>
        <pt x="-450" y="1940" on="1"/>
        <pt x="-649" y="2050" on="0"/>
        <pt x="-800" y="2050" on="1"/>
        <pt x="-1000" y="2050" on="0"/>
      </contour>
    </TTGlyph>
    <TTGlyph name="uni17B7.a" xMin="-1150" yMin="1950" xMax="-250" yMax="2400">
      <contour>
        <pt x="-1150" y="2150" on="1"/>
        <pt x="-1150" y="2400" on="0"/>
        <pt x="-800" y="2400" on="1"/>
        <pt x="-600" y="2400" on="0"/>
        <pt x="-250" y="2130" on="0"/>
        <pt x="-250" y="2080" on="1"/>
        <pt x="-250" y="1950" on="1"/>
        <pt x="-900" y="1950" on="1"/>
        <pt x="-1150" y="1950" on="0"/>
      </contour>
      <contour>
        <pt x="-950" y="2145" on="1"/>
        <pt x="-950" y="2090" on="0"/>
        <pt x="-850" y="2090" on="1"/>
        <pt x="-450" y="2090" on="1"/>
        <pt x="-649" y="2200" on="0"/>
        <pt x="-800" y="2200" on="1"/>
        <pt x="-950" y="2200" on="0"/>
      </contour>
    </TTGlyph>
    <TTGlyph name="uni17B7.r" xMin="-950" yMin="1800" xMax="0" yMax="2250">
      <contour>
        <pt x="-950" y="2000" on="1"/>
        <pt x="-950" y="2250" on="0"/>
        <pt x="-550" y="2250" on="1"/>
        <pt x="-350" y="2250" on="0"/>
        <pt x="0" y="1980" on="0"/>
        <pt x="0" y="1930" on="1"/>
        <pt x="0" y="1800" on="1"/>
        <pt x="-700" y="1800" on="1"/>
        <pt x="-950" y="1800" on="0"/>
      </contour>
      <contour>
        <pt x="-750" y="1995" on="1"/>
        <pt x="-750" y="1940" on="0"/>
        <pt x="-650" y="1940" on="1"/>
        <pt x="-200" y="1940" on="1"/>
        <pt x="-399" y="2050" on="0"/>
        <pt x="-550" y="2050" on="1"/>
        <pt x="-750" y="2050" on="0"/>
      </contour>
    </TTGlyph>
    <TTGlyph name="uni17B717CD" xMin="-1200" yMin="1800" xMax="30" yMax="2368">
      <contour>
        <pt x="-1000" y="1995" on="1"/>
        <pt x="-1000" y="1940" on="0"/>
        <pt x="-900" y="1940" on="1"/>
        <pt x="-450" y="1940" on="1"/>
        <pt x="-649" y="2050" on="0"/>
        <pt x="-800" y="2050" on="1"/>
        <pt x="-1000" y="2050" on="0"/>
      </contour>
      <contour>
        <pt x="-473" y="2149" on="1"/>
        <pt x="-474" y="2150" on="1"/>
        <pt x="-465" y="2300" on="0"/>
        <pt x="-325" y="2300" on="1"/>
        <pt x="-240" y="2300" on="0"/>
        <pt x="-185" y="2265" on="1"/>
        <pt x="-106" y="2271" on="0"/>
        <pt x="-77" y="2368" on="1"/>
        <pt x="30" y="2300" on="1"/>
        <pt x="0" y="2190" on="0"/>
        <pt x="-130" y="2160" on="1"/>
        <pt x="-207" y="2170" on="0"/>
        <pt x="-235" y="2170" on="1"/>
        <pt x="-295" y="2170" on="0"/>
        <pt x="-295" y="2130" on="1"/>
        <pt x="-295" y="2090" on="0"/>
        <pt x="-245" y="2090" on="1"/>
        <pt x="-205" y="2090" on="0"/>
        <pt x="-205" y="2110" on="1"/>
        <pt x="-235" y="2130" on="1"/>
        <pt x="-170" y="2150" on="1"/>
        <pt x="-75" y="2091" on="0"/>
        <pt x="-75" y="2041" on="1"/>
        <pt x="-75" y="1961" on="0"/>
        <pt x="-256" y="1951" on="1"/>
        <pt x="-250" y="1939" on="0"/>
        <pt x="-250" y="1930" on="1"/>
        <pt x="-250" y="1800" on="1"/>
        <pt x="-950" y="1800" on="1"/>
        <pt x="-1200" y="1800" on="0"/>
        <pt x="-1200" y="2000" on="1"/>
        <pt x="-1200" y="2250" on="0"/>
        <pt x="-800" y="2250" on="1"/>
        <pt x="-627" y="2250" on="0"/>
      </contour>
    </TTGlyph>
    <TTGlyph name="uni17B717CD.r" xMin="-950" yMin="1800" xMax="280" yMax="2368">
      <contour>
        <pt x="-750" y="1995" on="1"/>
        <pt x="-750" y="1940" on="0"/>
        <pt x="-650" y="1940" on="1"/>
        <pt x="-200" y="1940" on="1"/>
        <pt x="-399" y="2050" on="0"/>
        <pt x="-550" y="2050" on="1"/>
        <pt x="-750" y="2050" on="0"/>
      </contour>
      <contour>
        <pt x="-223" y="2149" on="1"/>
        <pt x="-224" y="2150" on="1"/>
        <pt x="-215" y="2300" on="0"/>
        <pt x="-75" y="2300" on="1"/>
        <pt x="10" y="2300" on="0"/>
        <pt x="65" y="2265" on="1"/>
        <pt x="144" y="2271" on="0"/>
        <pt x="173" y="2368" on="1"/>
        <pt x="280" y="2300" on="1"/>
        <pt x="250" y="2190" on="0"/>
        <pt x="120" y="2160" on="1"/>
        <pt x="43" y="2170" on="0"/>
        <pt x="15" y="2170" on="1"/>
        <pt x="-45" y="2170" on="0"/>
        <pt x="-45" y="2130" on="1"/>
        <pt x="-45" y="2090" on="0"/>
        <pt x="5" y="2090" on="1"/>
        <pt x="45" y="2090" on="0"/>
        <pt x="45" y="2110" on="1"/>
        <pt x="15" y="2130" on="1"/>
        <pt x="80" y="2150" on="1"/>
        <pt x="175" y="2091" on="0"/>
        <pt x="175" y="2041" on="1"/>
        <pt x="175" y="1961" on="0"/>
        <pt x="-6" y="1951" on="1"/>
        <pt x="0" y="1939" on="0"/>
        <pt x="0" y="1930" on="1"/>
        <pt x="0" y="1800" on="1"/>
        <pt x="-700" y="1800" on="1"/>
        <pt x="-950" y="1800" on="0"/>
        <pt x="-950" y="2000" on="1"/>
        <pt x="-950" y="2250" on="0"/>
        <pt x="-550" y="2250" on="1"/>
        <pt x="-377" y="2250" on="0"/>
      </contour>
    </TTGlyph>
    <TTGlyph name="uni17B8" xMin="-1200" yMin="1800" xMax="-250" yMax="2350">
      <contour>
        <pt x="-1000" y="1995" on="1"/>
        <pt x="-1000" y="1940" on="0"/>
        <pt x="-900" y="1940" on="1"/>
        <pt x="-450" y="1940" on="1"/>
        <pt x="-649" y="2050" on="0"/>
        <pt x="-800" y="2050" on="1"/>
        <pt x="-1000" y="2050" on="0"/>
      </contour>
      <contour>
        <pt x="-430" y="2119" on="1"/>
        <pt x="-430" y="2350" on="1"/>
        <pt x="-250" y="2350" on="1"/>
        <pt x="-250" y="1800" on="1"/>
        <pt x="-950" y="1800" on="1"/>
        <pt x="-1200" y="1800" on="0"/>
        <pt x="-1200" y="2000" on="1"/>
        <pt x="-1200" y="2250" on="0"/>
        <pt x="-800" y="2250" on="1"/>
        <pt x="-603" y="2250" on="0"/>
      </contour>
    </TTGlyph>
    <TTGlyph name="uni17B8.a" xMin="-1150" yMin="1950" xMax="-250" yMax="2500">
      <contour>
        <pt x="-950" y="2145" on="1"/>
        <pt x="-950" y="2090" on="0"/>
        <pt x="-850" y="2090" on="1"/>
        <pt x="-450" y="2090" on="1"/>
        <pt x="-649" y="2200" on="0"/>
        <pt x="-800" y="2200" on="1"/>
        <pt x="-950" y="2200" on="0"/>
      </contour>
      <contour>
        <pt x="-430" y="2269" on="1"/>
        <pt x="-430" y="2500" on="1"/>
        <pt x="-250" y="2500" on="1"/>
        <pt x="-250" y="1950" on="1"/>
        <pt x="-900" y="1950" on="1"/>
        <pt x="-1150" y="1950" on="0"/>
        <pt x="-1150" y="2150" on="1"/>
        <pt x="-1150" y="2400" on="0"/>
        <pt x="-800" y="2400" on="1"/>
        <pt x="-603" y="2400" on="0"/>
      </contour>
    </TTGlyph>
    <TTGlyph name="uni17B8.r" xMin="-950" yMin="1800" xMax="0" yMax="2350">
      <contour>
        <pt x="-750" y="1995" on="1"/>
        <pt x="-750" y="1940" on="0"/>
        <pt x="-650" y="1940" on="1"/>
        <pt x="-200" y="1940" on="1"/>
        <pt x="-399" y="2050" on="0"/>
        <pt x="-550" y="2050" on="1"/>
        <pt x="-750" y="2050" on="0"/>
      </contour>
      <contour>
        <pt x="-180" y="2119" on="1"/>
        <pt x="-180" y="2350" on="1"/>
        <pt x="0" y="2350" on="1"/>
        <pt x="0" y="1800" on="1"/>
        <pt x="-700" y="1800" on="1"/>
        <pt x="-950" y="1800" on="0"/>
        <pt x="-950" y="2000" on="1"/>
        <pt x="-950" y="2250" on="0"/>
        <pt x="-550" y="2250" on="1"/>
        <pt x="-353" y="2250" on="0"/>
      </contour>
    </TTGlyph>
    <TTGlyph name="uni17B9" xMin="-1200" yMin="1800" xMax="-250" yMax="2350">
      <contour>
        <pt x="-410" y="2210" on="1"/>
        <pt x="-418" y="2210" on="0"/>
        <pt x="-424" y="2205" on="1"/>
        <pt x="-430" y="2200" on="0"/>
        <pt x="-430" y="2190" on="1"/>
        <pt x="-430" y="2182" on="0"/>
        <pt x="-424" y="2176" on="1"/>
        <pt x="-418" y="2170" on="0"/>
        <pt x="-410" y="2170" on="1"/>
        <pt x="-400" y="2170" on="0"/>
        <pt x="-395" y="2176" on="1"/>
        <pt x="-390" y="2182" on="0"/>
        <pt x="-390" y="2190" on="1"/>
        <pt x="-390" y="2200" on="0"/>
        <pt x="-395" y="2205" on="1"/>
        <pt x="-400" y="2210" on="0"/>
      </contour>
      <contour>
        <pt x="-1000" y="1995" on="1"/>
        <pt x="-1000" y="1940" on="0"/>
        <pt x="-900" y="1940" on="1"/>
        <pt x="-450" y="1940" on="1"/>
        <pt x="-649" y="2050" on="0"/>
        <pt x="-800" y="2050" on="1"/>
        <pt x="-1000" y="2050" on="0"/>
      </contour>
      <contour>
        <pt x="-570" y="2202" on="1"/>
        <pt x="-566" y="2267" on="0"/>
        <pt x="-527" y="2306" on="1"/>
        <pt x="-483" y="2350" on="0"/>
        <pt x="-410" y="2350" on="1"/>
        <pt x="-337" y="2350" on="0"/>
        <pt x="-293" y="2306" on="1"/>
        <pt x="-250" y="2263" on="0"/>
        <pt x="-250" y="2190" on="1"/>
        <pt x="-250" y="2117" on="0"/>
        <pt x="-293" y="2074" on="1"/>
        <pt x="-313" y="2054" on="0"/>
        <pt x="-337" y="2043" on="1"/>
        <pt x="-250" y="1965" on="0"/>
        <pt x="-250" y="1930" on="1"/>
        <pt x="-250" y="1800" on="1"/>
        <pt x="-950" y="1800" on="1"/>
        <pt x="-1200" y="1800" on="0"/>
        <pt x="-1200" y="2000" on="1"/>
        <pt x="-1200" y="2250" on="0"/>
        <pt x="-800" y="2250" on="1"/>
        <pt x="-680" y="2250" on="0"/>
      </contour>
    </TTGlyph>
    <TTGlyph name="uni17B9.a" xMin="-1150" yMin="1950" xMax="-250" yMax="2500">
      <contour>
        <pt x="-410" y="2360" on="1"/>
        <pt x="-418" y="2360" on="0"/>
        <pt x="-424" y="2355" on="1"/>
        <pt x="-430" y="2350" on="0"/>
        <pt x="-430" y="2340" on="1"/>
        <pt x="-430" y="2332" on="0"/>
        <pt x="-424" y="2326" on="1"/>
        <pt x="-418" y="2320" on="0"/>
        <pt x="-410" y="2320" on="1"/>
        <pt x="-400" y="2320" on="0"/>
        <pt x="-395" y="2326" on="1"/>
        <pt x="-390" y="2332" on="0"/>
        <pt x="-390" y="2340" on="1"/>
        <pt x="-390" y="2350" on="0"/>
        <pt x="-395" y="2355" on="1"/>
        <pt x="-400" y="2360" on="0"/>
      </contour>
      <contour>
        <pt x="-950" y="2145" on="1"/>
        <pt x="-950" y="2090" on="0"/>
        <pt x="-850" y="2090" on="1"/>
        <pt x="-450" y="2090" on="1"/>
        <pt x="-649" y="2200" on="0"/>
        <pt x="-800" y="2200" on="1"/>
        <pt x="-950" y="2200" on="0"/>
      </contour>
      <contour>
        <pt x="-570" y="2352" on="1"/>
        <pt x="-566" y="2417" on="0"/>
        <pt x="-527" y="2456" on="1"/>
        <pt x="-483" y="2500" on="0"/>
        <pt x="-410" y="2500" on="1"/>
        <pt x="-337" y="2500" on="0"/>
        <pt x="-293" y="2456" on="1"/>
        <pt x="-250" y="2413" on="0"/>
        <pt x="-250" y="2340" on="1"/>
        <pt x="-250" y="2267" on="0"/>
        <pt x="-293" y="2224" on="1"/>
        <pt x="-313" y="2204" on="0"/>
        <pt x="-337" y="2193" on="1"/>
        <pt x="-250" y="2115" on="0"/>
        <pt x="-250" y="2080" on="1"/>
        <pt x="-250" y="1950" on="1"/>
        <pt x="-900" y="1950" on="1"/>
        <pt x="-1150" y="1950" on="0"/>
        <pt x="-1150" y="2150" on="1"/>
        <pt x="-1150" y="2400" on="0"/>
        <pt x="-800" y="2400" on="1"/>
        <pt x="-680" y="2400" on="0"/>
      </contour>
    </TTGlyph>
    <TTGlyph name="uni17B9.r" xMin="-950" yMin="1800" xMax="0" yMax="2350">
      <contour>
        <pt x="-160" y="2210" on="1"/>
        <pt x="-168" y="2210" on="0"/>
        <pt x="-174" y="2205" on="1"/>
        <pt x="-180" y="2200" on="0"/>
        <pt x="-180" y="2190" on="1"/>
        <pt x="-180" y="2182" on="0"/>
        <pt x="-174" y="2176" on="1"/>
        <pt x="-168" y="2170" on="0"/>
        <pt x="-160" y="2170" on="1"/>
        <pt x="-150" y="2170" on="0"/>
        <pt x="-145" y="2176" on="1"/>
        <pt x="-140" y="2182" on="0"/>
        <pt x="-140" y="2190" on="1"/>
        <pt x="-140" y="2200" on="0"/>
        <pt x="-145" y="2205" on="1"/>
        <pt x="-150" y="2210" on="0"/>
      </contour>
      <contour>
        <pt x="-750" y="1995" on="1"/>
        <pt x="-750" y="1940" on="0"/>
        <pt x="-650" y="1940" on="1"/>
        <pt x="-200" y="1940" on="1"/>
        <pt x="-399" y="2050" on="0"/>
        <pt x="-550" y="2050" on="1"/>
        <pt x="-750" y="2050" on="0"/>
      </contour>
      <contour>
        <pt x="-320" y="2202" on="1"/>
        <pt x="-316" y="2267" on="0"/>
        <pt x="-277" y="2306" on="1"/>
        <pt x="-233" y="2350" on="0"/>
        <pt x="-160" y="2350" on="1"/>
        <pt x="-87" y="2350" on="0"/>
        <pt x="-43" y="2306" on="1"/>
        <pt x="0" y="2263" on="0"/>
        <pt x="0" y="2190" on="1"/>
        <pt x="0" y="2117" on="0"/>
        <pt x="-43" y="2074" on="1"/>
        <pt x="-63" y="2054" on="0"/>
        <pt x="-87" y="2043" on="1"/>
        <pt x="0" y="1965" on="0"/>
        <pt x="0" y="1930" on="1"/>
        <pt x="0" y="1800" on="1"/>
        <pt x="-700" y="1800" on="1"/>
        <pt x="-950" y="1800" on="0"/>
        <pt x="-950" y="2000" on="1"/>
        <pt x="-950" y="2250" on="0"/>
        <pt x="-550" y="2250" on="1"/>
        <pt x="-430" y="2250" on="0"/>
      </contour>
    </TTGlyph>
    <TTGlyph name="uni17BA" xMin="-1200" yMin="1800" xMax="-250" yMax="2350">
      <contour>
        <pt x="-1000" y="1995" on="1"/>
        <pt x="-1000" y="1940" on="0"/>
        <pt x="-900" y="1940" on="1"/>
        <pt x="-450" y="1940" on="1"/>
        <pt x="-649" y="2050" on="0"/>
        <pt x="-800" y="2050" on="1"/>
        <pt x="-1000" y="2050" on="0"/>
      </contour>
      <contour>
        <pt x="-640" y="2227" on="1"/>
        <pt x="-640" y="2350" on="1"/>
        <pt x="-480" y="2350" on="1"/>
        <pt x="-480" y="2154" on="1"/>
        <pt x="-452" y="2136" on="0"/>
        <pt x="-425" y="2115" on="1"/>
        <pt x="-417" y="2109" on="0"/>
        <pt x="-410" y="2103" on="1"/>
        <pt x="-410" y="2350" on="1"/>
        <pt x="-250" y="2350" on="1"/>
        <pt x="-250" y="1800" on="1"/>
        <pt x="-950" y="1800" on="1"/>
        <pt x="-1200" y="1800" on="0"/>
        <pt x="-1200" y="2000" on="1"/>
        <pt x="-1200" y="2250" on="0"/>
        <pt x="-800" y="2250" on="1"/>
        <pt x="-718" y="2250" on="0"/>
      </contour>
    </TTGlyph>
    <TTGlyph name="uni17BA.a" xMin="-1150" yMin="1950" xMax="-250" yMax="2500">
      <contour>
        <pt x="-950" y="2145" on="1"/>
        <pt x="-950" y="2090" on="0"/>
        <pt x="-850" y="2090" on="1"/>
        <pt x="-450" y="2090" on="1"/>
        <pt x="-649" y="2200" on="0"/>
        <pt x="-800" y="2200" on="1"/>
        <pt x="-950" y="2200" on="0"/>
      </contour>
      <contour>
        <pt x="-640" y="2377" on="1"/>
        <pt x="-640" y="2500" on="1"/>
        <pt x="-480" y="2500" on="1"/>
        <pt x="-480" y="2304" on="1"/>
        <pt x="-452" y="2286" on="0"/>
        <pt x="-425" y="2265" on="1"/>
        <pt x="-417" y="2259" on="0"/>
        <pt x="-410" y="2253" on="1"/>
        <pt x="-410" y="2500" on="1"/>
        <pt x="-250" y="2500" on="1"/>
        <pt x="-250" y="1950" on="1"/>
        <pt x="-900" y="1950" on="1"/>
        <pt x="-1150" y="1950" on="0"/>
        <pt x="-1150" y="2150" on="1"/>
        <pt x="-1150" y="2400" on="0"/>
        <pt x="-800" y="2400" on="1"/>
        <pt x="-718" y="2400" on="0"/>
      </contour>
    </TTGlyph>
    <TTGlyph name="uni17BA.r" xMin="-950" yMin="1800" xMax="0" yMax="2350">
      <contour>
        <pt x="-750" y="1995" on="1"/>
        <pt x="-750" y="1940" on="0"/>
        <pt x="-650" y="1940" on="1"/>
        <pt x="-200" y="1940" on="1"/>
        <pt x="-399" y="2050" on="0"/>
        <pt x="-550" y="2050" on="1"/>
        <pt x="-750" y="2050" on="0"/>
      </contour>
      <contour>
        <pt x="-390" y="2227" on="1"/>
        <pt x="-390" y="2350" on="1"/>
        <pt x="-230" y="2350" on="1"/>
        <pt x="-230" y="2154" on="1"/>
        <pt x="-202" y="2136" on="0"/>
        <pt x="-175" y="2115" on="1"/>
        <pt x="-167" y="2109" on="0"/>
        <pt x="-160" y="2103" on="1"/>
        <pt x="-160" y="2350" on="1"/>
        <pt x="0" y="2350" on="1"/>
        <pt x="0" y="1800" on="1"/>
        <pt x="-700" y="1800" on="1"/>
        <pt x="-950" y="1800" on="0"/>
        <pt x="-950" y="2000" on="1"/>
        <pt x="-950" y="2250" on="0"/>
        <pt x="-550" y="2250" on="1"/>
        <pt x="-468" y="2250" on="0"/>
      </contour>
    </TTGlyph>
    <TTGlyph name="uni17BB" xMin="-500" yMin="-650" xMax="-250" yMax="-100">
      <contour>
        <pt x="-250" y="-100" on="1"/>
        <pt x="-250" y="-650" on="1"/>
        <pt x="-500" y="-650" on="1"/>
        <pt x="-500" y="-100" on="1"/>
      </contour>
    </TTGlyph>
    <TTGlyph name="uni17BB.b" xMin="-500" yMin="-1200" xMax="-250" yMax="-700">
      <contour>
        <pt x="-250" y="-700" on="1"/>
        <pt x="-250" y="-1200" on="1"/>
        <pt x="-500" y="-1200" on="1"/>
        <pt x="-500" y="-700" on="1"/>
      </contour>
    </TTGlyph>
    <TTGlyph name="uni17BB.n" xMin="-1200" yMin="-650" xMax="-950" yMax="-100">
      <contour>
        <pt x="-950" y="-100" on="1"/>
        <pt x="-950" y="-650" on="1"/>
        <pt x="-1200" y="-650" on="1"/>
        <pt x="-1200" y="-100" on="1"/>
      </contour>
    </TTGlyph>
    <TTGlyph name="uni17BB.n2" xMin="-1100" yMin="-1200" xMax="-850" yMax="-700">
      <contour>
        <pt x="-850" y="-700" on="1"/>
        <pt x="-850" y="-1200" on="1"/>
        <pt x="-1100" y="-1200" on="1"/>
        <pt x="-1100" y="-700" on="1"/>
      </contour>
    </TTGlyph>
    <TTGlyph name="uni17BC" xMin="-800" yMin="-650" xMax="-250" yMax="-100">
      <contour>
        <pt x="-600" y="-400" on="1"/>
        <pt x="-600" y="-470" on="0"/>
        <pt x="-550" y="-470" on="1"/>
        <pt x="-500" y="-470" on="0"/>
        <pt x="-500" y="-400" on="1"/>
        <pt x="-500" y="-100" on="1"/>
        <pt x="-250" y="-100" on="1"/>
        <pt x="-250" y="-400" on="1"/>
        <pt x="-250" y="-650" on="0"/>
        <pt x="-525" y="-650" on="1"/>
        <pt x="-800" y="-650" on="0"/>
        <pt x="-800" y="-400" on="1"/>
        <pt x="-800" y="-100" on="1"/>
        <pt x="-600" y="-100" on="1"/>
      </contour>
    </TTGlyph>
    <TTGlyph name="uni17BC.b" xMin="-800" yMin="-1200" xMax="-250" yMax="-700">
      <contour>
        <pt x="-600" y="-950" on="1"/>
        <pt x="-600" y="-1020" on="0"/>
        <pt x="-550" y="-1020" on="1"/>
        <pt x="-500" y="-1020" on="0"/>
        <pt x="-500" y="-950" on="1"/>
        <pt x="-500" y="-700" on="1"/>
        <pt x="-250" y="-700" on="1"/>
        <pt x="-250" y="-950" on="1"/>
        <pt x="-250" y="-1200" on="0"/>
        <pt x="-525" y="-1200" on="1"/>
        <pt x="-800" y="-1200" on="0"/>
        <pt x="-800" y="-950" on="1"/>
        <pt x="-800" y="-700" on="1"/>
        <pt x="-600" y="-700" on="1"/>
      </contour>
    </TTGlyph>
    <TTGlyph name="uni17BC.n" xMin="-1500" yMin="-650" xMax="-950" yMax="-100">
      <contour>
        <pt x="-1300" y="-400" on="1"/>
        <pt x="-1300" y="-470" on="0"/>
        <pt x="-1250" y="-470" on="1"/>
        <pt x="-1200" y="-470" on="0"/>
        <pt x="-1200" y="-400" on="1"/>
        <pt x="-1200" y="-100" on="1"/>
        <pt x="-950" y="-100" on="1"/>
        <pt x="-950" y="-400" on="1"/>
        <pt x="-950" y="-650" on="0"/>
        <pt x="-1225" y="-650" on="1"/>
        <pt x="-1500" y="-650" on="0"/>
        <pt x="-1500" y="-400" on="1"/>
        <pt x="-1500" y="-100" on="1"/>
        <pt x="-1300" y="-100" on="1"/>
      </contour>
    </TTGlyph>
</ttFont>
